<mxfile host="Electron" modified="2023-08-28T18:58:31.137Z" agent="Mozilla/5.0 (Windows NT 10.0; Win64; x64) AppleWebKit/537.36 (KHTML, like Gecko) draw.io/21.6.8 Chrome/114.0.5735.289 Electron/25.5.0 Safari/537.36" etag="DcMbBXrSCRFNHtOktHz8" version="21.6.8" type="device">
  <diagram name="Page-1" id="mxjehB3a9qrkVwvjf4hk">
    <mxGraphModel dx="794" dy="511" grid="1" gridSize="10" guides="1" tooltips="1" connect="1" arrows="1" fold="1" page="1" pageScale="1" pageWidth="827" pageHeight="1169" math="0" shadow="0">
      <root>
        <mxCell id="0" />
        <mxCell id="1" parent="0" />
        <mxCell id="aAb9H2nELcyI2E5IMsyW-1" value="" style="shape=image;verticalLabelPosition=bottom;labelBackgroundColor=default;verticalAlign=top;aspect=fixed;imageAspect=0;image=data:image/png,iVBORw0KGgoAAAANSUhEUgAABfQAAAMwCAYAAABm6eGDAAAAAXNSR0IArs4c6QAAAARnQU1BAACxjwv8YQUAAAAJcEhZcwAADsMAAA7DAcdvqGQAAP+lSURBVHhe7P0JkKN5et93PgASdyKRFzKzqrKqsrqr+j5qOLOcIcWjhxwOZ2lKHHEYlleyTUbIDjLCjtlZO2ZjHLsOU6HYNXdnJQ9nFStpvQ41TdGUQyu5KVESvRatHh7ikBxyuqePqu6677wTyEQmkDj3ff5436w3UUAm7nyB+n4i0AkgUdX5vn+8L7J+/+d9/gIAAAAAAAAAAAAAAAAAAAAAAAAAAAAAAAAAAAAAAAAAAAAAAAAAAAAAAAAAAAAAAAAAAAAAAAAAAAAAAAAAAAAAAAAAAAAAAAAAAAAAAAAAAAAAAAAAAAAAAAAAAAAAAAAAAAAAAAAAAAAAAAAAAAAAAAAAAAAAAAAAAAAAAAAAAAAAAAAAAAAAAAAAAAAAAAAAAAAAAAAAAAAAAAAAAAAAAAAAAAAAAAAAAAAAAAAAAAAAAAAAAAAAAAAAAAAAAAAAAAAAAAAAAAAAAAAAAAAAAAAAAAAAAAAAAAAAAAAAAAAAAAAAAAAAAAAAAAAAAAAAAAAAAAAAAAAAAAAAAAAAAAAAAAAAAAAAAAAAAAAAAAAAAAAAAAAAAAAAAAAAAAAAAAAAAAAAAAAAAAAAAAAAAAAAAAAAAAAAAAAAAAAAAAAAAAAAAAAAAAAAAAAAAAAAAAAAAAAAAAAAAAAAAAAAAAAAAAAAAAAAAAAAAAAAAAAAAAAAAAAAAAAAAAAAAAAAAAAAAAAAAAAAAAAAAAAAAAAAAAAAAAAAAAAAAAAAAAAAAAAAAAAAAAAAAAAAAAAAAAAAAAAAAAAAAAAAAAAAAAAAAAAAAAAAAAAAAAAAAAAAAAAAAAAAAAAAAAAAAAAAAAAAAAAAAAAAAAAAAAAAAAAAAAAAAAAAAAAAAAAAAAAAAAAAAAAAAAAAAAAAAAAAAAAAAAAAAAAAAAAAAAAAAAAAAAAAAAAAAAAAAAAAAAAAAAAAAAAAAAAAAAAAAAAAAAAAAAAAAAAAAAAAAAAAAAAAAAAAAAAAAAAAAAAAAAAAAAAAAAAAAAAAAAAAAAAAAAAAAAAAAAAAAAAAAAAAAAAAAAAAAAAAAAAAAAAAAAAAAAAAAAAAAAAAAAAAAAAAAAAAAAAAAAAAAAAAAAAAAAAAAAAAAAAAAAAAAAAAAAAAAAAAAAAAAAAAAAAAAAAAAAAAAAAAAAAAAAAAAAAAAAAAAAAAAAAAAAAAAAAAAAAAAAAAAAAAAAAAAAAAAAAAAAAAAAAAAAAAAAAAAAAAAAAAAAAAAAAAAAAAAAAAAAAAAAAAAAAAAAAAAAAAAAAAAAAAAAAAAAAAAAAAAAAAAAAAAAAAAAAAAAAAAAAAAAAAAAAAAAAAAAAAAAAAAAAAAAAAAAAAAAAAAAAAAAAAAAAAAAAAAAAAAAAAAAAAAAAAAAAAAAAAAAAAAAAAAAAAAAAAAAAAAAAAAAAAAAAAAAAAAAAAAAAAAAAAAAAAAAAAAAAAAAAAAAAAAAAAAAAAAAAAAAAAAAAAAAAAAAAAAAAAAAAAAAAAAAAAAAAAAAAAAAAAAAAAAAAAAAAAAAAAAAAAAAAAAAAAAAAAAAAAAAAAAAAAAAAAAAAAAAAAAAAAAAAAAAAAAAAAAAAAAAAAAAAAAAAAAAAAAAAAAAAAAAAAAAAAAAAAAAAAAAAAAAAAAAAAAAAAAAAAAAAAAAAAAAAAAAAAAAAAAAAAAAAAAAAAAAAAAAAAAAAAAAAAAAAAAAAAAAAAAAAAAAAAAAAAAAAAAAAAAAAAAAAAAAAAAAAAAAAAAAAAAAAAAAAAAAAAAAAAAAAAAAAAAAAAAAAAAAAAAAAAAAAAAAAAAAAAAAAAAAAAAAAAAAAAAAAAAAAAAAAAAAAAJ8BnfwUAAACAp8rXv/7189MTE0tnzp55YyIxsTSXmr2sz79/9eqb167deOurX/3qHfNCAAAAwCMI9AEAAACMNCe4n5lPXZ6bmb2swX0imViKhsOT9ksaWl1df0fD/atXP37za1/7WsZ+GgAAADgxBPoAAAAARsKv/MqvJFNTU5c1uJ9MJJZSszOXZ+dSl48L7ltx7979t6/duv0W4T4AAABOEoE+AAAAgKGiwX0sFls6d27xjV4H960g3AcAAMBJIdAHAAAA4EknHdy3wgn3v/jFn/1V+ykAAACgbwj0AQAAAJyoYQjuW0G4DwAAgH4j0AcAAAAwEO7gPpPZuf3zP//zv/Wv3/q17y5duHh57uwl+1WjgXAfAAAA/UCgDwAAAKCn6ivuE4nxpbm52cvJieSS/RIjt7+fXr1/K13a3VzKrD+U8cmUzJw6b90OvWzoXbt+463rt2699Vf+yl/9NfspAAAAoCME+gAAAAA60ii419Bew3v7JS0rFQuydv+67GytSTa9JtML52Uyddq6nbFfMRqufnT9rT/98+9+4z/5T/6Tb9lPAQAAAC0j0AcAAABwJCe4TyaTS+cXT7/hBPeJZGKpH33u93O7srl8Z6jD/XK5LIVCUcqVimR39ySX35dCsWiey+xkb//UF37ygv1SAAAAoGUE+gAAAAAMd3A/n5q5rIvT9jO4b4XXw/2jgvuK9VwjuVzu9uc//3kCfQAAALSNQB8AAAB4yjjBfTwcnjxz9swbXgjuW6Hh/uq9aybYz2UzAw/3c7l8W8F9M+5A/5vf/ObrzjhMJCaW5lKzl1fX1t+5dvPWW7posPkDAAAAgI1AHwAAABhxGuC/8tJzXzm1cGoogvtW7O2kZePRbdHFdAv5vZ6G+xrSa1ify+dNcG/C+w6Ce7dgcExCwaBEIxEJhYJSLZffaWUc3v/g6puE+wAAAHAQ6AMAAABD7qiK+xvXb721/Oju7Wn/9i+PT6ZM6D139pL9J0eDE+5rax6l4X5iSrf16HBf2+XUAvu8FAqlgwC/m+De7/dLNBK2g/sx81UfBwIB+xWdI9wHAAAAgT4AAAAwRNwtWtptlaOhd3rtoalqH9VwX3vtp9ceHAr3J+fOylg4Ltm9vZ4G91ppPx6L9Ty4P05ufz995cOrb965//Btwn0AAICnC4E+AAAA4EFf//rXz09PTCy5e6v3qlVOqVgwgbeG+9qPPjmrrWpOy8ypJfsVw8lZoNYJ7jfufiCl3Q2RsYgEZjqbuDjJ4L4VhPsAAABPFwJ9AAAA4AQ5wf3MfOry3Mzs5V4G963QhWY13NfKdg33B73QbCfqg3vtd68L1dZX3FeyK1LdXW0p0K8P7t397ocF4T4AAMDoI9AHAAAABkD73Kempi5rcD+ZSCxpu5zZudRlLy1O67Vwv1Fwr+1yisWS/YqjNQr0neBeq+y30ttSLeZkKh6Q1MJZiSU8MxRdy2xnbn/w4UdvPrj34O2//ou/+C37aQAAAAw5An0AAACgh5wFas+dW3zDq8F9KzTcX713zQT7uWymr+G+E9zXKu1z5qu5Wc912udeg/tgOSvBSk5iE9MSmz5jqu41zHe3y9ncWJOtB9fMugLR8aRpO6QtiMLRuP2K4Ue4DwAAMDoI9AEAAIAOuIP7TGbntrY4+dY/+/VbZ84/szRqC83u7aTNgrruhWYTU7qobnvhvhPclysV0yJHF6btRXBvQnrr63g8ZirvGwX3rXAvGuyE+7qtY8GQ/Yrh54T7H1+/+daXv/zld+2nAQAAMCQI9AEAAIAjtFpxr/3LNx/elt2t5UlnodmZU1rV7t1e9J3QdjzptQeHwn3dRg34HV4P7lvhDvfHJ3Xy4vRQhvv1bYu0ZZGOx/Ly8ltf+tKX/rL9MgAAAAwJAn0AAADA0stWOcO40Gwn0uvLsvbQ2s71exKKxCS+8JwUqmNdBfcqEgkPLLhvRaNw32tXYbS73sDq6upBoO+89+fnZy+vrKy/Q+U+AACAdxHoAwAA4KlSH9wnEuNLc3Ozl5MTySX7JT01yF70/aRhsYbEWnFfC4v3D4L78sp75jX+5DnxRZLmfiuCwTET1kcjERPcm/D+BIP745SKhYOJmpMK95utN5C3xuM4zlUO47GY+PyS3t3ZeXvx7OIb9ZNWq6vr77x/9eqb167deOurX/1q7VIMAAAAeAKBPgAAAEbSoIP7Vrh70ZdLRUktXuyoF30/OWGx05rFHdw300qgHwmNyfh4QkLWVyfA92pw34pG4b62WNK++73gDu4PxkHD+2PGQjnB/cEkiV7hoBMn0Yj9itYR7gMAAHgLgT4AAACGmhPcJ5PJpfOLp9/Q4F5D+0QysdRJu5xBcXrRr92/LoGxYMNe9P2kgXEtKM6Lu7d6J61ynEA/OH1BQokZUwHuBPcaQGd2srJ153sSDY+N5EKz9S2W2lk/wQnuO1lvYNDrCty7d//ta7duv3X16sdvfu1rX8vYTwMAAGCACPQBAAAwVH71b/3ffvT5F19+Q3vcm+B+wtvBfSt20o/Dfe1Fr6G3VnwfhPvV2pdD3L/JN/q+rVxpvChqJ8G9w926RYP7iL8s0fGkjI0dHdJvLDdZaPaYP+dpdf+iOmr9hFwuPxTBfSsI9wEAAE4GgT4AAAA8xam4j4fDk2fOnqkF94lam5z3r1x9s5h+cHlhOvILGpQmTCg8YgvNrj2Q9PpDEwpruD+3eMmE37HE0XMWptK76PS472FwHwyaEDnk6nevQXK3zEKz1nYehPuz3ltotlNOUJ9Jb8rKzXdESnnxxWbEnzhtv6K5SFhbEdnBvXVf97Xudy+3J7p3//7b127cfuuLP/uzv2o/BQAAgD4h0AcAAMCJaBbct9Iqx7SrWXdVtC/UVbSPCHforRXwup3JubNSqcpBcK/hsYb3Ret+p/oZ3B/noBd92tWLfqF3vej7qZVJlHL6jsj+dsNAv1ouSCo1byrunar7YV5XQBHuAwAA9BeBPgAAAPqqm+C+FRruaysXp6LdhN6zp4+taPe6+rB4/dZ3pZzfEV9kUvzJs/ar2uME9xrUmxDZYxXgB+1q0q52NdZYnvRVGN1c/VDZvi+RQEUScxckPD5tJkq0An8zvS3pRzdkP/3AM9vZa4T7AAAAvUegDwAAgJ755je/+Xq/gvtWNKxonz0t4WjcfoX3OGFxrc997uC+fnUHxpXMPanm0y0F+k5wP2ytW9xOItyvD+71fqtXP9Rf5aDBvU6aHLe/natNNpdvm8fT1nt2FFtJEe4DAAD0BoE+AAAA2vb1r3/9/PTExJIG9xOJiaW52dnLgwzuW+G1Hu1OWFwuV8wCtWZR1AbBfTONAn0nRFb5/X3xl3IylYjKqXMXhya4b4WG+6v3r5lgP5fNdB3uN5tE0X14nH62J9rZWjXvWXe4r9uZmJozj3vjqBWWj1hduUv6vtf9rJMl//aP//Qr/8F/8B8Q7AMAAHSAQB8AAABNOcH9TCp1eS41e9mLwf1xGvVo72e4321w30y4vCP+0q4kZk5LbHLhiYp7/X9srK/IzsoNT7Wr6bW9nbRpsaRjWcjvHbmd3YyFuz3ReCx6cN+9z2ucENz9T6vug/FhXSfi8VUOtYkS3ef17YlWV1ff+tKXvvSX7YcAAABoA4E+AAAATJ/71NTU5bFIZPLnf/7nf+u//39/47/65GuvfuXspVeHuxF9nV62celXcB90VX13ulhqryvaj9e/yu6j1EJvrWi/Yx7rdgYnFzsK7p9sTzTmmascvBju1wf3etP93kp7omaBvrPexpe//OV37acAAABQh0AfAADgKeIEZucWF9+YTCaWtM/9bCp12V1xn9vfT9++9uE7geL2GxoIaw/6GQ2ER6zS2wn3NSg9LvR2wmEN7vW+CYxbCIuPokFyLbCPmPD4cc91v/2K3lR81yra75htLZeKklq8aPdoP22/YrhoT/vaJErO3C8USlLYTUtx47r5fmD+VfO1XuPgvjZ5MkztidJrDw4mMQaxCLQT3Ot+ts4Nj/d5F+//7Uzm7Rs3b37l8HobE4fW23j/wytvXrt55y2dYDR/CAAAAAaBPgAAwAhqJbhvRTuh9zBz2rhsrtyXcjEv06eeEX/iVM+Cew2Nn1ws1QnuB8epaNdK78BY8GA8vdjGxZlE0TFwbs3GopTfEV+m1ndeA/1IuLZ/d/dyUq2UZSJgjencKZmcWTCvGRW9XAT68BUnrsmSLt//zlh0M4lCuA8AAPAYgT4AAMAQ61Vw34qD0Nuu9B7ecL9qQksNKnWBzkKxZMJLDYz3M8vi31sRGYtIYKa9HvuPg/tav3Wn+v4kgvtWuMP9WqX3+RNp49JKz/VmDq5yCPolWNkzP384ljgUFme2s7J+53uSWX9ktnNu8aJ5Xb8q2k9Ko3Bfj9GxYMh+xWMNr3LoMrh/fMVJrUWUcxz0+uoHwn0AAPC0I9AHAAAYAoMM7p9s7+L8yvj4+fpK77nFSzI+Oeu5Su9aWFyyg/vjw+Lizuqxgb5WfEejsYPA0gnvte/6sEqvPbQXmu1f6N1tcO8OiZ3guN2w+HHo/cgOvc93XNHuZe5w30zSzC1JJRA92PfdBve9GIteINwHAABPIwJ9AAAAD6kP7hOJ8aW52dnLyeTEkv0Sz9Fw3+nR7lR697OndyPdhMVu7kA/mHr+UHCptId+ZmNFxnIrJvQe7TD4cejdrNK7kfqxcO4PMrhvhXs7dTJKrzZpZzu9pNn7P7/6sQTKe+KLz4t/fN5+dWu8FNwfR9f9uHLlozfv3H/4NuE+AAAYdQT6AAAAJ+Sb3/xbr59bPP/GZDJpgntdFHJubvay/e2h1G0YfJxGYbEGl8ViyX5F+5zgUnt7x0M+CfnFTEzUt25x6/d2ekWj0HvubO3KBWcsnPC4nbGoD4udwPikrnI4aju9pN2Jq8L69WMDfff7fzym6zzU7mu7qGFEuA8AAEYdgT4AAEAfORX3yWRy6fzi6Tc0uN/f309rm4hwYf2LFy+c/QWvhofd6iYkbRTca5/v/P6+/Yr2OcFltwt01huWMLhTOha53J48untddlZumufip1+WQnXs2Kr7ZmFxt/u8X0rFgrnSZCe9dqLj6bz/9T2vV4V0+v4vb94QKe6aQH9s4tSh93/AGhv9u9PLtyU+Vhq5961ywv0b12++9dd/8Re/ZT8NAAAw1Aj0AQAAesAd3M+nZi5rj3utuE8kE0vN+tw74aGGwdn0ugkPtdJ75pRnu+t0pH47k7OnTHio2+kOLnP7Wm3c/QKd/Qruj3PUdg4DZyyOWiy1vPKe+eqfuiC+0Li574hY+3nQ+7yf9nO7B+F+v8azlX3eCWcs4v68We8hFJuQcCTWcCwOb+eaaSM1TO/bVmUy27c/uPrRmw/uPXibcB8AAAwzAn0AAIA2OMF9PByePHP2zButBPetcEI1DYNz2Yxp36Kh2mTqtP2K4eYEl7ndrNz+6LvWBm8f9KnvRXDptRC5Pgz22nhqcNxRiLxx1bQjCiYXZXwqZfa5TsToosPb9z+Q6ZlaRfuovG8dvRjPjvf5EXTyyult79y6ef/Xh/uPt/OM/YrRsLmZvv2dd9998+d+7t/9G/ZTAAAAQ4NAHwAAoIF+Bfet2NtJHywyWy4Vhyrcb6XiuLK7LtXsIxPoB2Zaa/ERDNaC+l4Fl4OkIenq/euSWX8ohfzeQMezUKi1K3J6reut1RDZ2ec6WRKy7us+Dwb8TdcJcLZTg+BRnJRyHLed3ezzZpyrTga5QO0ohPvO+ajZmgM//MM/zL+HAQDA0OEXGAAA8FQ7yeC+FTtba6Zqf+3+dQmMBWVu8aKMT6YkMZWyX3EyumkVUtxZFf/eypGBfrVckIlYSOYWFvseXA6SM54alCoNSRPWeHYbeh8XXB7FXeXdq7C4flIqZb1ve7GdXqL7PL25LvdvvC/l3Ja1I0MSnH9p6IL7VtTG83aDSQxvhPv173/n/nFj4QT6zufAucXTb0QikcmPr99868tf/vK75kUAAAAeQ6APAACeGt/85jdf92pw34r02kMTqulindr2xAn3Y4n+/vhOxbEG93q/24pjrdD359clFJ+UidMvPBFcavuWzNa6rFz7U7Oduq6A9vXu93YOmnuyxtnO4yZrug3uTyIsrp+UcsLgk56UatVx+7x2xclDawcHJZB60Tx3HGcs3IsF61iEQkH7Fd7lhPtPXnHS/3DfGQudPHQvFqxfOzkG0umtt+ZmZy8nkxNPLBiwurr+zvtXrrx59/7Dtwn3AQCAlxDoAwCAkfP1r3/9/Fe/+lVTAv3//Yf/7X9z+ZM/+MYwBfet2Hh024SkGu5Hx5MmDNZgrVk7lFa4W4XoVyfA7DS4V92GyI22U8P9cDRuv2I06GSNU7nvTNaEEjNSLPsOxsTrwX0rOpnEGJRGVd66z4vFkv2KxloN9ONjFUktLA79YsFutfF80OCKk+7CfWcsOl1zwDkGerW+hhPuX7tx6y3nswUAAOCkEOgDAIChpcH99MTE0kxq5vJcavby3GzqshPc5/b3099953vfSPqzX9nPbk4mZ0/JzMLSSLX8cKzeu2b6XGvoPT5ZW5R07mzz3vTdVHk3Ux8i663XFcfucL+V7RwGjULkrRt/IlKtiG9iUfzRKfuVTxrEPu+nk7rixF3lrQv6drtArRPoRxPTEpy99ESArMdWJpORlY/+0J7EWPLMJEYvNQr3J2fPHLud3V4BNOiFsQn3AQDASSPQBwAAnqf9jVNTU5c1uJ9MJpdSs9OXZ1Opy61W3J/koqSDdHgRy/Xads6fl2J1zARkwxLcH6dULJjt1HBft3MYwv12QuTy6geHAn3d585rgtV9OXP2Qt9Dy0HrxxUn3VZ5N/PEAs3We1+fa+VnTa89MNvpXImh4f7otpN64LoSY0nGp+dlLBzveCJRj4ODfW7fTvoYuHf//tsa7F/9+PqbX/va1zL20wAAAH1FoA8AADzDvTBhJ8F9K4a9n3cjjSru91ZvSGl3QyQ8IYHJ8/YrW+cE9xocOz2+vRgiN5zEOMHJmm5CZGef+3buSSI5LdFkSsKxhHlObaa3Jf3wmuys3xuZKxQa6eRKDHeVd6+C+/rJKydE7tX7//F2PrQnMWrh/rC3k6o/H63efl+quU2RYFwC08/ar2qu3/u9Xwj3AQDAoBDoAwCAgRtEcN8KDfc3lu+4qmW9vfhqfVCmNw3vG/X4rmTuSTWfPjbQd8KzQbas6JdBX4mhwXGn1d/dtAnx2iRGvzhXYtS3k4pNnzHve+f9306VdyNeCJAbhfvdXqHQb875yBmDZuejSnZFqrsrTQP9eDggycnpgzEYtvNOI064/8Wf/blftZ8CAADoGQJ9AADQN14J7lvRj5YfnWoU3GtYnN/ft19xvPpA3x3c69etzLb4i1mZiodken5xRFt+1FqbKB3L2mKd7Yfe7sWC3eFlKyHyE+1ZrFttHHoTWjqTGNn0muSymZEJ9+uPAd2+3UdXzff8qZfE529//9UH9864eG3NAXe4r732W7lCoZ+cseh08sqXW5NgZU/C4zMSmz1/MIGlx1FmJytbN/5YovFErS3PANZQGDTCfQAA0GsE+gAAoGvDFNy3opOWH51wgjINx3qxOKdDq7/9+5syHg1LdGJawvHJhiHyxtqKpJdveGISo5/cbZacKzEaLUqq4+EO7J37rYyFF6q893bSB1eclEvFoQj364P7Zvu8tL8nvvQNc/+4QH9Urjo5fIXCYML9bq466Wa/j2r7oXqE+wAAoBcI9AEAQMvcwb0+1l7B46HqGz/y/a+9NQpVwfV61dqk2wrXZpzqbw3PQtb9bqq/BzWJcdJ0OzdW7kt2a8WE+1NnX5ZcydcwRG7EC8F9K7y2VoR78iq7t3dwv9WrTqrFnFQ2r5v7TqDvDpD179NWL+HChqROLcrM/Fnz2lGh4b6OZe1ctGbCbh3PmVNL9iva083klernlSeNrlAYlYlG9wTWH3/nz3/5r/7Vv/o37G8BAAC0jEAfAAA8ob7iPpEYX0omJpbm5mYv2y858PDho3fKu6uXj6t+Hnat9GfvV3CvwaU7NHPu9yNEPhwcrkty9lRXweFJcodn9aFleeU98xp/8pz4Iklz321YgvtWDHKtiL4dA1KW8P6qaZsUnjpzcCy4x0P/XxvWe3fj0c2huUKhE4cnGtdc23nGfsVjRx0DrTjp46BRuD8ME43Ofnf2t3Pfvb7A5ubm2z/zMz/zWfshAABAywj0AQB4ijnBfTKZXDq/ePoNJ7hPJBNLnbTLcVd5a3A4t3hxJNsmaEC6fP+W7KzfM9XPE2delkJ1rPvQ0mMh8rD0Z68PLRuFZ/WcQD84fUFC4zNmP5crZdne2ZWx/JqkUnMje4WCc4w6bZY6PUY1QO/H5FUvjgGvXaHQL064n15/cHCMBpOLUrDG5bhjwM3rE1gn0X6oFd1MYB0V6Otn89e+9rWM/RAAAOAQAn0AAJ4C7uB+PjVzOTU7c7mb4L4V7uBwmFu4HLUgamH5fQn4quKbWBR/dMr+E8cbxupvL/Rnd8IzDczaXXPA2efa0zsaiUhE9s2kk97crTx0vHU7dzYedNVmaRg0OkZ1e+tbm3SzKHAzgzwGWl1DYRg0DZB3t6S44bQkernpGgPu42A8pq26avf1q5fPP25OuK9jqpONgwr3neOgVxNYGuhfuXLli0etP/P+h1fevHbzzls///M//1vmDwEAAFgI9AEAGCFOcB8PhyfPnD3zxiCC++P0qg99v2lQ5g4rnftHhTXl1Q9EqpUjA/1gwCfJZLIWnFk3DTCHJThrpt8BaTdVr05g2YsFUYflCoVuHQ5I1024H59/TnI6cXLMMXCc+uBebxrch0JB+xWD1egqIn3v9qP9ULf0fd/qMVAtZKWyddPc10Bfr0rQfe28fqy0I9NTUzJ3+vzQn3/c6tsPdbu2gHLOP522KWqkF8cB4T4AAHAQ6AMAMISOCu4jJxTc1/9SUbW/Kud7TkDqhSrvXoQ1TqA/NnVOwom5Q2GN/t2Znaxs3//APD+ICtKT0G2bpXZCy3rWe70nwX0r6q9QSFnbqf3chzHcb3YMlPd3Hy88O/u8+AKtL0LqrvzWKyD6PR690Kj9UKMrFPqt2ysgzAK1vpLEAyVzDMamFg7t9+zunqRX78nq7fdc7YfOjGz7oVbWFlD9DO77fV4i3AcA4OlGoA8AwBD47/7+3/9RJ7ifOOGK+17RKm/thez0uHYC0vEOQ6b6X2r6GdZoQKPtKoKVnAnQ9NYsBHRCJg0OR7nKWx3VwqWb0NIEltZ+d9qymMrWHgdk7RiWFi71x4Cz/5v1Va8Wcy0F+oOcSBmUVtsPdaPbc1J9lbdzLLSz32vv3Qeu9+6SJ9+73Xp83n28tsDE3AXJFSu1Y6HLdjnKOS+d9HFAuA8AwNOHQB8AgCHwv/yjv7M1NTs3qaFEN60EvErDNA33nSpvDfdbrfJ2h2TFDkKyRuqrLDXA7EVYk2vShz7ZQrg/LL+06Xhks1m5f/OK7KcfmOeCC69IpXr8FvQisBy09NpDa0z1/XtyLVycY0BDynbXFnCrD/R1e2rjUQsss3t75qqT/PIVmZ6dH8mJqcOLr3a2/ocXgvtWpNcemEkM3d5RCPed/V5/xc/u/XdEKkXxjZ8Sf7z9bRum89Kfv/O9b9y5//Btwn0AAEYbgT4AAENAA/3gmP8gIdQg2PQKHtEqbyfc1zBNt1PDtPrg3gnKmlUbt6JfwX0r3FcoaJimY3rSYZrzi6G7XZJq9AvjcaFlaX9PfOkb5n6jam/d18MU3Lei3y1cmgWW+ly3E1hmDIJ+CVb2rJ990vz8zX7uncymaeHiXF2j2zis7YeOcriFy7p1Ljplwn1nUtUZDx0Dnexw7rc6Hs75x7nixzkWTmJ9gcfv3Yf2e7cW7ntxbQGl+9455zi3Zvu9vHalpUB/mIL74+T299NXrnz0JuE+AACjiUAfAIAhUB/oO5wwTUPvUWmZcBAUZ7Ny98qfib+UFfEHJTj/UlehpbtNyCCD+1Z0c4VCvznjsdtmtbFWe/u2a5W/iTMvSygcMft7d29PNtPbUnz0rnnvtnqFwlHcv9C2MhkxCO5wv5Mq727WFmimH4HlsLQf6oYeAzs7GVm7d1121u+Z5+KLr0mh7GsruB+WNkWNwv1eTky14+DzoMOrHVR9oO+eSNGvej4q7a7L7ETEnphq3HN/WBHuAwAwegj0AQAYAs0CfTevBcHHcYIaDSrzTdqEFHdWxb+3YgL9QOoF89xx3H2N9b6pePVocNaIO9x3X6HQb+7grN0rINwBWdyuNNb7wYC/eZV33RoKozYx5SgXC2YhaF2k013lPW1XeVes/e6ElJ0GlvXqg3u9meOgz5Xf7kkMPR+dRPuhbjlrPehEit53xkXHo1ouSGX9I+tVVfFPXxJfMFr7Qy5e6aveK+5wX8fSvHf7EO7XB/fOsdCLK7B8uw8kYb0Ho8mUhGOJhuORze7I1qMbDa46Ga1wP5PZvv3B1Y/efHDvwdt//Rd/8Vv20wAAYMgQ6AMAMARaCfTdBhkEH8cJarTaeLfNauPK7rpUs4+ODPQ1ZJuIhSS1sDi07REa0V7eGi45QbCOqYZM3a6h0MpESjP1lca9utJB+9BrYOj08nbC/WEKgo+j+z27k5E7V78r5VzaPBc89XpPgnsdA7NIs32/1fFodGVDr/5x4A73+9F+qFv1AXIrEym1QP+quR9MPS+h6ISZNFGmynv7kUwlIib0HrUg+PDaAo/D/XY/Y9yfB31pG+W6dXpeeloWDtZw/733r7x5/fbtt7785S+/az8NAACGAIE+AABDoN1A380JR/vd37qb4L4ZDfT9+XUJRRMysfiyCSydsEaDms10RjKb65K+887QXaHQDu3l7YT7uWympTHtZjz6Fdy3wn2FggbBuq1eCoKP4w6KGy3SXM1npJK5a+4H5l81X49zkuPRC/VXnWgQnOpisrGdf8B0Ety7Ofveudoh4i81XV9gZzst6ZXbh6q8J2fPjFwQ7IT7OmGj56Rm4b6ec4ahbdRRRincbzYet2/f/sZf+2t/7f9gvwwAAAwBAn0AAIbA7/zG//NWJBzorjTb0qtw3wkGehXcK3dQUx/ct6I+NNTt9MIVCr22t5M2YZoGTEonMRIzpyUQjnc0Hu61BbzWomj13jUTGHpxTJ2gWPe1rgvg3NerHo7SaqAfG6uYq06GKbg/jhME63HqXHXSqzF1xkPD+rx1c+632rKlPijWmzkWOmxT9LRUeZvJxgc3Jb12Twr5PZk8fUkq4Wmz73sZ3Hc7Hr2QXntgJjGcK4l0TPX967UrifRYcCau9DhwJrOajcetW3e+8R/+h/++CfR/5Vd+JRmLxZbOLZ5+Y2Nt4x3a8gAA4E0E+gAADIFeBfoODSM03D8uYHL6STshmRMQnGRwf5x+tarxgvrxWL/1jkhxVyQ8IYHJ8/arGtP97uzrfuz3ftLQUEM0Z0y1D/30wlLfrzpRTlDcqwksJ9DXCu742U88MR4avm3vZGX94z88OE69GBp2q35MW51s7HY8nPPPIK92eDzZ+NCM6dziJXPujbY5pu5/uJ3E4s/Ovm90tUMlc896b2/Z56LWz7X14zEs6w48bin1eOFgHdNBHqdHjcdx3J/D+/n8O8Exf3o2lbps7f9DG6Btef7snXe/cff+w7dpywMAgHcQ6AMAMAR6Hei7acCkVd6x6TMmDGjUJqQT9cG93tfAcpAVlk6rGg1dtHq0V1co9Ju7wvKo8aiFaOmGgb6/WpKpyaQkJ6eGJrhvRT/HdFBXnkRCYy21EBr29kOtajam4cR0V+PhvvrEK22K3OF+bUxrVd5eahPmBMVFa39n7atPauei5lc7tBLoVytlGR8fH6rgvhWNwv1ejqkzHvr+d8ZD7x93NZDq5YTJ6ur6O+9fufIm4T4AACePQB8AgCHQz0Df4Z++KL5gbYHHdjiBgYYE8Vjs4L7XghptgaGBiwaHTn9rDV1OsgWGu8Ky3YkU3e/BYkbiEWtfxxISm1w4CO7N2gIbK5K++565QkG3cxTbD7nHVOnElFbJHhfuD+OVJ+5wf9TG1D2Bpdu487C28Kx/9nnxBY6fvNB97+xv3fc6Bl47/zTiDvf1fatjOsgJG+f804tJLHegH5x+5tCxoPe1LdXm+ooU1z4y26g995NdLhzsxX/IusN9cy5qc0ydScVO1h3Qlmm1/d7/CRMn3L9249ZbX/3qV+/YTwMAgAEh0AcAYAh4IdCvr/QbtoU53dJr2gdZw7RHA2lr0m1wXwtp2r/S4SRb1QyaO9w/aCk1vSBj4VhH+70ZZzxOagKrUR963dZhaCnVynFQKuTFt3XN3G8U6OuVJ9Mzs32ZNDkpzpjW1ot4HO73csLGmcTS4F7v637vJLh3O3Ruqu5LJBJpumCwo3ac1tYWcCZWa5Nw3YX7XuL8A7tRuO+MqXsSyzkmWh0P937Xryd9HDjh/tWPr7/5ta99LWM/DQAA+ohAHwCAITCQQH/qgvhC4/ajw0KFDUmdWpSZ+bP2M6PDXfnstDXpNEirDyz1vgY2rSzM2e+geFjbD7Wifr/r2gLl/E5Laws044yHlyewnAkbHdNcNuOZMe3mONBAf2zntpmUSZx5WULhiNnnStcW2Lh/VYKV3MG2jvbaAmtmG/XW6oRNK5Mm7XKfm6KRSM+OBXe4X5uEG72Fg01wn9uTu9fel/30A/NccO4lqfjGzP2jHJowsb4eF9x74R/29+7ff1ur9gn3AQDoLwJ9AACGwEkH+uXVD7QB8kCq2U9Ko8pn3c5G4b4Tmjl9jNtpjeCFoNiL7Yda0WpQfNTaAo3oGAz7lSd7O2nz/tVbuVQcSLjfzXGgmh0LQevxUVXejSbhdFu91Ie+F+rD/cdjeqYvwb06qWNBz0l61ZRu7zCG++5jQdsLuY8LVS0XpLJut5KavvTE1XDDfA5qFigQ7gMA0D8E+gAADAGvBPpuTpCmt6dhkc7w9DnJa9uKIQruWzHo9kOt6DYobhboO2Oif2e1kJXZZFwWzl0citCsHb2esHHGw4sL1LrDfWcSbpTOSc6+z2yuy+qt96Rc2BUJxiU4e6mr8F6PBafiO2J/9cq56fGYPjTnpNTiJRPue2USWd//7R4LTqCv2xOZe17GJybNcaDnouzunmzff1+SyaR5/w5D+6x2abh//catt774sz/3q/ZTAACgCwT6AAAMAS8G+m6jsEhnw5Amty3FtY/N949aoNO9GKHe91I41o5Glc/9DEd7ERQ34ttdkaDsy/jMaQknTx0El854aA/xzc11Sd/7wFOtavqhVvlcq9x3JmyOqnzudsHgkwqKD/ehH86Fg48Liis7D6W6t24C/cD0s+a54ziTWK22bfEad7hfOyctmXEdxNUYen5yrnzQqyD0aohWj4VG+z0SGmt6Lj24GsM6Xg+uxrDOR6O0toCDcB8AgO4R6AMAMAS8Hui7eT0cbSewrBZzUtm8bu5roB8IRkwwo4GbilV3ZH7xgiSS0+bxqGin/VCr3Ity9iq470VYeRKtak6Ke8KmVvl8UXyx2Y5atng5KD7cqsZ7i0G7g+J2Jk1aCfSrlbJMRAMybW2rjkcri2cPC3e4r5NSepzq8drthKMzsdhJ+6L648C5381xYK4Qu3fNvH8PJhxHMNzX/X7z1u23v/UHf/SV//w//8/ftZ8GAAAtINAHAGAIDFOg7zjp3uz11ZWdhDTxyJgEK3sSHZ801aHu4GgznTEV3oOqZj8pTjiqIVor1ezd7PdmnPHQNi3OgsH9CCvrW9Vo4D3si3Q2Civ30stS2rpr/UvAL4G5l+1XNtaPwHKQnPZZh8LRAU3YdBMUN6KBvr+QkdD4jASnzlvjcLh9kf7dmUxGVj/6Q/tqjNFbZNaxagfe7nD/uAlHZzx0MrFRn/ujOMfBoFuomQlHeyLjYDHzIQv3G+13fa86a5989NFHX/mP/qP/iGp9AADaQKAPAMAQ+Of//a9+NxELXrYf9sWRgf7aVZFK0X7UPqcaWIOXXvdB7iY0qw8rO6ky7kc1u1c1qmaPpZakWKq0td+bOanQrJFG1ez9eP/2SrOwUr/Wj0kltyXV7fuHAn3d987rxip7cubcxRPb9/3Sr6sxnH2v73+tuHfu1y/W3C53Ky9zLIz5zXOtTBq6q9lr719v9aHvlcPn37WDcD+ROmuNS2etvJ7Y7x45Dpxw/9D712Ph/nFtoxoh0AcAoH0E+gAADIFhD/TdOg28exnc6/1+VHifZDVwv9Tvd3N/OyPF1Svm+0e9b46iQZnXFwx2uMP9k74awxmPTsNKPRZ0fQF/TiefUhKbOXew7/Xv3Mpsy/byDcmu3xuJ928znSwc3O2+b6YXE4tHcYf7g+5D3286Js5nwe5ORtZv/pkEfFXxJ8+LL5K0X9VYv/d7P5n379oDE+4rff+OW+/dQYX79Z8L+rXT48AJ9H/lV34lGYvFlpLJ5NLZxdNvJBPjS6nZ2cv3Hjx4+/rNO2/9/M///G/ZfwQAgKcegT4AAENglAJ9t0a9rRsFyK1WuzoBjQaU0UjkRINipxpYA0Pl9XDU2e8aUB5X4V0tF6Sy/pG5f1yg71S7alA2yEVS+2HQV2O41x3Q+3ocNBqPZrrZ987klG7rQauPpyDcr7WqOS/j0wviG4sMVXDfin71oe+3+s8FJ8SvH4/C8ntNA/2glGR2/tTBGAzjOagRJ9x3T071Ktxvdb+3yz2hK5XybZ/Pn04kE0vRcPjIS0je//DKm4T7AAAQ6AMAMBRGNdB3S5x5WSqBaEuhmROMDUuFtwYuGgTrzQkMNUg7ifYXTkDTTZVxo0DfHVbq37W9syuhwoZMz8yOZPuhdtcWOEq3oVm/g+JG1ewaBo9CuF+/79dvvSPl/I74IpPiT561X9UeL00sNuNMTrXbh77fnPGon1hstc/92M4t6z0aksT8s2btE93vaiu9LTurt2Vv467rWB2tRWaVO9w3nzWnWltHoRefC43089xEuA8AeJoR6AMAMASehkDfN7Eo/uiU/egxdyWf14P7VgyyfYuGMn0JaMb8EqvumMAolkxJNJ54Yjw0IFp9cEuyGw8Oqtl1O2dO9XVt5xPhXI2h43pUNXt9eOy14L4VDavZWwgMT1qr+76cviOyv91yoD8K5ydnckrDfb3pe1dv/T5Wuzk/ufvc6309DlrZ77Vjta4P/VMW7ofjk2Y/j9LVJ4T7AICnDYE+AABD4GkN9AN7y5KaP2UCl1Ho91xv9d41E452277Fac2iAaUuyqlfex3Q6H0TmnWw7sAori3QjLkaY+WebD7SSuGgTJ6+JJXQhBmTVhdJdfa9hsPxWOzgvlZ7e4l7ckoDQy8sHOwE9xpSHtc6qpFmgb6Oib7/NQStFnMyGQvI4jMvDlVw34rHV548qDtWOw+8dUycCZR2z0/9DIprk1N1feit9++ohPvuSay12x/IfmbZPB9YeM187YQzHl6exCLcBwA8DQj0AQAYAk9FoD9+SvzxWftRTXnzpkhx19zvd7/yk9Rq+5ZuK7wbGXRAM2xrCxzFGY9GVcbFdWv7rPeuLzYj/kTjbRuGcKxVg144+Kh9383x4Ms+lKCvJInZsxKamHsiQNb/79raquw8+thMUGkArNs5ulee1Mb18JUnjQPvbs5P9cG93tf93uuFy5txwn09Lz1eJPmM5688Uc5+132tEybOffcEYjWfkYpOVllaDfQ7vQrCK3L7++kPr3z05r37D98m3AcAjBoCfQAAhsBAAv3kuScWEXR4IdB3exwsjV6Ft4Zoaw9umgpvZSq8w1MtB2PNeDE8Hqb2Le22B3Heu06g74RjpsK7XJDJiMjc6fOmXdEoOdyb/VFPJuL6eQWKhpS6YLBzv50AuR/V7F7lrmZ3WtUk5i5IvlhpGCA3MwyTWO5wv3Zeaq0Pfb91M4l1VKCvY+L8+WB1X+YXTklycsoz49ELhPsAgFFDoA8AwBB4agN9u/3FUYY53K+vaHUHY/WBcDuGsbKyUfsWHddBt1rSMdExqI1DbWxaCcwcTmAZ9+clOOaX6MSMxMaTh/b95uampB9cNdv6NFx5UuvNvm5t5ykTjjY7Vrup8G5mUAFyu9Xsw6LRRNbu3T813/Mnzzf9zFDDXuGt0mu1SQwdVyfc13Htd1sp93moF5NYGujr1Se6DZFTLx208nJPYm2mM5J+dEMyj26aCYykdZzq+7hfV9mcFCfcv3X95lt//Rd/8Vv20wAADBUCfQAAhgCB/vGcCu9BhC3tcoJKDcPy+xrOtF/h3YgTVp7kIqn94A73+xV4dxse92LfNwq8dVtHsX2LbqtWPLsD79jMWSlWfGYcdN+3usZAM14JkOur2Z21Bbwc7rczkVVe+Z756gT67gpvXzErqdkZSS0sDv15qN7j89JDu61ULdzvZtKxH5NYSieu6iexgtbjVsN5s61rtW0d5XA/k9m+/eHVj958cO/B24T7AIBhQqAPAMAQINBvzyB6eDfihDO96OvtDvTHkouHwmOlC36ml+9IfKzYl8DbC9qt8G6kPjDT++2Ex05wr4FYo6rWXmkUeOu4DnNbqWbHw+69PxepVhouhN2KYZrI8lr7lm4CZGe/hwur1jl2UsKJGYnGEocqvDOr98zVJ7WrbC6ZbfXaBGsvNAr3j/q8cfZ7O5O6rej3sXDQQstuj+aE+6PweVN/LNy6deetn/rpn/7L9rcBAPA0An0AAIbAW7/2jX8zGQ+9YT/si1EK9N36VeHt9PXWoFLvayjWy3BmrJKrhcfjyaYVoE7grUHLUYvpjoLjAu9uAzNn33uht7d7bQE1DOOq+7vViazy6gctBfrDFNy3YpDtW9zHg07+6f1WJ7J6cSz0o5rdq9zbagJvHdPpMy0dC63ywrHghPtaue8sCD0M4X6rx8LaxsbbP/vFL37WfggAgKcR6AMAMAQI9Hujk2BUwwCnirVXLRGccEZDsmgk0pPwuNbD+465OYtWej0E7oSOx+bqI9l4dFNymTUJjAUlcuoVKZQqLY+JuzXLSQb3rXCH+05bqZOu8O72eKgP9N3Hg9re2RVfISNT41GZnl98aiq8Ow2825lMqeccCxoO6+LA+rXXx0KjwFvfx8PevsUJip0K7530muw9umK+5599QXyB9revF5Mpg3Bw9ZR1ftJwX8dUw/2Tbhfmnmhv91hYXV1960tf+tITFfq/8iu/kozFYkv7+/vpr371q9YvJQAAnDwCfQAAhsCJB/ob10RKeftRfwwi0HdzFl11gtH6cKaToLLeSYUz7hBYA2+nh/dJhcCdcsIZHYf6hSF1kcdK5q55nT/1kvj8T+5PL1S19tLjYLT/Cwf343hQegzouCWnZiSWTElIW7Y0OB42Vx9KekW395EdeA++hdagNAq8G1U9uydT2l0o1QvHwkH7lrSrfUuTbfWS+mPBuV+/36tF67lN67PS4k+93PCc5KZj4oxDvyZTBqE+3DeTySmdTO7fmhH9OD9poH/t2rVfSE1NXZ5JzVxOpWYvz82mLieSiaVoOGxmFVdX19/54MqVN+/ef/j2l7/85XfNHwQA4AQQ6AMAMAQI9PsnEJ2U4MwFGZUFOesNMgTuVCfhjDvQDy68IqFQxISV+vdohfdYfk1mU3NPQQj8eOHgTrbV2fedtGY5ijus1ABZx6bT42H13jU7BO7fIsle4ATem8u3TQstDbxj889J3hqbVsNKJ7h3QmLnfq/XfOjWQQhsjetBhbd1O8kKb+dY6PRqh9L+rvjSN8x9d6DvjIlO7OrfG67uyuzsrMzMnzXfHyWmNZp9vB60gesi3HfGRN//OonVy/OTjkk3E1xOuH/txq23qNwHAAwagT4AAEOAQL+PgnEJTD9jPzhefVDZSRBwUhqFwIMMRrutqjwUwoz5JVgtNFxjQP8/Gyv3JbNyW3Qx3achBNZxPWpbuw0rm+lFMNaqwyFwbZHkkw6Bu+GMSf1kSmFv53Gld5PWLe6QeBhaRx3FGVddPPjwWiD9rfB2zj/tXu3QTLVclHBe10eIS+L0i2Ys9FhwT6boVUdrD27KzvrdgW3rSTFt4OzPnIN1T44I97tpHdXMoI4Twn0AwKAR6AMAMAQI9PtoLCKBmcZBb7VSltTszNAF98dpFIxqD+9e9dtvFFTqfV2sthW9DGEeh4VPx8LBuq2bK/elkNuRZGpRglPnexJWOmOix4AXKr91W7Wl1KFKYA+Pazth5aHWLbMvSCAYMftaX6+VyeHyjszOzY1khXdtLZC6ELiLwNs5F/WyNYvSc1K356d2A+9h5myrnp+cNV5icxekWKr0bEz0HKXHyUlfJXfv/v23r9+49dbVj6+/+bWvfS1jPw0AQE8R6AMAMAQI9PvoqEC/kJXK1q2RDoG7WUy3F1XfvQjGWtXNtnpRs7CytLsh1e371kHll8Dcy/arWzOMld9eGtduKr+dfR+PBCRYyUl0fNJcgeJuo6TH2MbDm7L54Frdto5eCFxbC+RBg3F9clsbTSLqvvdCa5ZWmG1dq9vWIQ/3G56fcntSfPSe+b7f+tz1BaPmfjsGNSa9QLgPAOgXAn0AAIYAgX4ftRDoO4Z5gdlW1C+m6wRouq3OArWdBvdO9aTeNITRMOYkQ+KjttVrmgX3zfa9Bvq+7MNjA32vrvvQjUGNa7tj4uYEkrq/u7nawQm8D2/rmRE+Nx3e1uDk2Y7ORY14KSQ227pWN64p746rcyy0MrGrkxWyfsXcPy7Qd8ZEJxSjkcjB5KLeH0ZOuP/Fn/25X7WfAgCgYwT6AAAMAQL9Pmoj0Hfz6gKz3dJwRoPJB7c/lr1Ve4HHI94b9YapetLRaOFgsyBpYtJ+xWA4wZiGYdqeqNOwspLbOlShXz8mWsGsCwcHtm/L9PyieQ8PelsHIb32UGrtW2rj6oT77Wyre0zarfx29vsgrnZIrz0w72Gt8K5t69LQTzw2mjTZy6xJafOm+X5g/jXztR2DHJNecIf7ZlxPney4Op8Peutk7YFquSCVtavmvjvQdyYX9baV2RZ/aU8mYwFJziyM5AQV4T4AoFsE+gAADIFBBPq+iUXxR6fsR4cNJNCPz4l/fN5+VOPlQN9tGBddbRSW6c0dzJRX7NYIDQL9+pBY73dSZew17nBf251oCKw3d9uTXtCwvl8LQEbGqhLxF03LltjEdNOgclDb6gWNtrV+Mq6bMdF970xeadW9ORassTiJkPjxtuoCrTpBdcnTE4+tnIsc1XxGKhnrc8FyXKDvjMmoXIGikzabj2rrgfQ73G9nTNrh91VlbOeu+bnDk6ckGk+Ycakfk2x2RzbuXn08QXXCExn9RLgPAOgEgT4AAEOAQL+PehDouzlBoVf6stcHM3pfg5njKow12JT1D0zLh/DMBRmLTZpgTGV392Rn7Z5MRHR7e7eYrpeUigUTJml4pgsHdzpp021FayO9rjJ2tlUXmNXAexgnqNqx+uCmLN/+SMqFPRmfOS3V+OmWx6R+IkvDyEaBpFe4w/3aRMbSiU3aOOeibiayGgX67jHRv0uvPhnLr8psat7TExndMOO65pq0sY5VDbzbvdKmF2PSiDMmel6Kx2LmvplQ6WDCt35bRz3c/+DqR2/+lb/yV3/NfgoAgIYI9AEAGAL/+L/72/9TKhn5ov2wLwj0n9RJoO82yHC/F8GMBsPukDjoK5kApVH4t5/bNW0gNGQp5Pc8N5HRS862auCdy2Yabmv9xIkT4ncTiqn6Mel3exDdVifc14mM5OwpEwIP47geNSaV7IpUd1ebHv+9DCS94PCkzUMTiPZz0sa95obe79lElnVOGitsmp8/nDzVdEw2Vu5JZtW6ubb1pCYy+s0deJtJm1NLZnvrJzL0eHCOgV5NLir3Whz9Pkf1aiLDK5qdo957771f+KVf+iVCfQBAUwT6AAAMAQL9PupjoO8wVYUL53tWVdhNaxDlBDAahvWiPcigFiL1gp3MpizfvS7Z9XvmceLMy1L0hY694uE4GlbqOOhNK7+12rhfoVirhmXSxgnF9Dhotc+9E+gHQjGJLLxkJk1032uwltvbkYRvV6bnz47sBNXjSZs1c17SsZ05tWS/onVen8ga9ETGSdPAe3PlnmQ3V2pB9/yzki9WezIm7ishvHB1SqsTGV7gHCetfm5/8MEHBPoAgCMR6AMAMASe1kC/krkn1XzaftQnAwj03drpVa4hgBOQdVJReRIBjAlZ1jVkOdkFZrt1VABjguL1D8zr2lkwWHktFGuVe9JGOeM66MC7m8ks96RJJFA1k1mNrkDRv3fj3keiC+qWS0XXRMYZ+xWjozZpc80E3oevPjm8rc7x0M6kSSsGeTzUT2Toduqtk4kML2h6jirkpfjIXv9k+hnxhcbN/VY5YzJMV6e4w30zaWOdl1r5jO2HTj633ZPs+t7f2ty6/W9+7/cvf+1rX8vYLwEA4BACfQAAhgCBfh8NONB3c3qVz5x+xvyDv9MqV6+GxO5w35nI8GJlrLs9SCshsQZorQT6wYBPorHYSLRscdNwX4NRvfX66hNHN5NZvTweahMZD+quPjkzklef7O2kzSSGM2mTXHjGnJPbmTRpxmvnKCfc17E9aiLDK9o5R1UrZams2uenYwL9Qbf0GoRBhfvOhEo7n9vOcaDvfaWfB+7JMveYfvvb31766le/WlswAgCAOgT6AAAMgb/zt//rn1mciX6lnwvjHhnob94UKe7aj/rjaQz0Hb7xU+KPz9qPmnNXTkYjkaEJYLTthYaEtcrY2gKzGrAMujK2kwCmEXegPzZ9QcLjM4dCsXKlLNs7WUk/vCbxkM8EhaPc4qP+igzd3lbbXnQzJu7jYRCTJrWJjNuuiYzhXpzTPWmi+17HQMeilLkv1b11kWBcAtPP2q9ujTMmwxQSOxMZ+j4+3Fpq8OF+L85RjQJ994SKjoMubJ7dXJbEWFGmT50fyatPDtot2VcXOeF+u+diZ0zauTKo/rNa/w6lf4eO51F/1kGgDwA4CoE+AABD5Ot/82+ePzUb/crsRPiLkXCgp2kogf6TTjLQr5YLMp5IjlTlpBpEX/ZehGKNuBd/HCvtSHR8smHLFsfhFh8nN5ExKO5w37n6xAnPnDHRIKyTli16DHgpJH68rfbinIuX2prIGKR2j4fKzsOWAn0NLZ1K+16sxeEFzhUZetz2s91St8dDMyZIHvNLrLItIeu9qJON0Xii4SRXYT8vq3eumvPTwVUK1nl4VMN9M6lsja9ub7NwX8fFOT46bZejV1MoZ0w7/dwh0AcAHIVAHwCAIfHNb37z9Xg4PHnm7Jk3UrMzl+enE1/UMMlpj9AtAv0nnWign8/I2P76QaA0bD3oW9GoL7tua6sVz41CMb2f39+3X9EZdzVrr9qDDGIiwyuy2R1ZvvOx7KzeNo9jp16QooRbCraGMSR2h/smKLTGVcd30P27neOhnUriRuoDfffxoOOgf+/2zq4EMtet7awtRDq656fu2y2129KrVb2c5DJXKdjv44Pz04iG++Zc/OCmactTyO1Icn5JqvH5Y8N35zjQc5I6ql1OL7z99ttL/+V/+V8S6AMAGiLQBwBgCPzW//D3/qeXXnrlixqcNKoAdVfGdopA/0knHehXMnftR48X0x3V1i3ptYd224ta6xYn8NagsFdBZb364N4dWvZTo4kMDYKHLdw/qprVtP1Y+9C8rtE6A/2YNDlpTosPHduDKmDrPdyPY7YfIbEzJsHKnsQjYxKKJazjb6ZhdbdyT2TUzk9L5rg9iYVI+62VdkvOearXVwYN+lgx56e1uqsUhjTcP+qzo7T9SKrZldrvALPP2X/i8f7WyRInvNc/r63U+hHcN/OHf/iHkyyKCwBohkAfAIAh4F4Ut76VRb3Ve9fsQGndfqY1BPpP8lKg7zbKrVs0qFy+d1027l21dkJFwtPnpBKe6klQ6cW+3jqRocfr46Dw8USGV3QSVDqBfr5YkW3/jGSKQbn9aFMmE1G5fPGMBHMPZXpqymzrKF6l0KtFV/sVEve6hZF+7ugkhr6X+zmR4QWrD26aCu/Cbtocs/HTr0rOOm/1pF2ONQZemuRywn33VQrjUzr56L1wv/5Y0a9Hhe/FzCPx59bM7wDzz32/eU6De6V/rhfHWTcI9AEARyHQBwBgCLgDfbfHIdGTgVh9i4/jEOg/qVrMSWWzNy2NjtJuoO921HvAy44LKssb10RK+Ybvi6P0OqgcJPeVNs4VGXobVMWzMyZahdpJX+/ljW3JW3/29vKmub+V3pL0Xkn2S1X7FY+dn43K83Mh+fSFcRMUOlcpDOsCs0dpZdFVZ9/r/tarHdrd980MOiQ+vAB2f69SGASt6G5U3V3e37U+G6xzlMU/+4L4Aq0fo16eYDyKO9w3k4+nTmZR6F5Nch0E+hZfbFb8E976DCXQBwAchUAfAIAh0CzQdzuq/3h9i49GGoXKDgL9/uom0Hc87vHceg/6QagPX5z7x4UvrQT6unBwKjU3Mi1bHIdbt9QW0+11KNosqGwlFMvvF2V5c8e6bUt6J2cC/HQ2Z8L8Try2GJPn5yPywkLUBIVOuD+KfdnTG8uy9vCOZNfvmceT5z8hxepYy/u+GS9Wd/fqKoVBaDckrl29ZX0uWvypl8Xnb7yfdVycsRiVhYNVeu2B6UF/cGVRn8L9bs5Tx6ls22tFWHzWZ0w7E8eDQKAPADgKgT4AAEOglUDf4QRiGpy002+fQP9JwxToux33HugHJxDrVfjiBPpjEwsSnlw8FFSq7Z2srD64JdXt+66gcJRbtzw0oWhy9pS1vUstb6uOixNO1ve5P44G9xrUm8B+J3cQ4nca3LfCHe6fxFUKvXTUvi+vvm8d5BX7yqhp+08cb1iru1u5SmEQ2g3um6kP9HVC1T2hovQql/SjmxIPVsy2jmoLIvM7hd06zHz2WNvZ7oRc/bjo104/O1pFoA8AGGYE+gAADIF/9N/+rX+wMBX9Bfthy46q7N3f35fM6l3zj3CtAnaHyvXVnqs3/tz0C+6nEwv0/UEJpF6wHxw2rIG+m9equ5tx3nMaTsZjMQn5ShKJxo6dkDhqMd1RUwtF75jbwWKVJhQ93VVQ6QT3Jrx/VKu215sG+CclPOaT1zXcX4jK0ky4L+/jXulk3xeW35OAr3pkoD+q1d21K8bqFl017+PehfvOmPTrPOWv7ks8UDKTTmFdOLjJuDgTcu4WRLq9o7j+iXKH+2ZCztpOHVvnPF5/rDj3+xncN0OgDwAYZgT6AAAMgU4DfTd3+FdPQ4ft9JaE4pPi94skxsft79Rc++63TOjfT77YjPgTh382Av3uA323bqq7e1U12c8K45PuQT8ITiC2ufpIVm+9Zx0kRRkbn5NqvLUwqr7PvRPe97PqvlvJaKAW7s9HZCEZOvJc1k/OvtdgOL+vx0UtJNb77XJX6I9Zx76+/5+o7l69J5HKjjlmR+197HDCffeiq8nZM221bnGfp9q9CuUovZ5QObjaZs3Vgsh6D3uxBVEvPLj1kWzcvyblYl7GU2elGlvoybj0itcD/R/+4R8mqwEANMWHBAAAQ6AXgb6jk17rBPr9NahA380ditZXTTrhWLfBSzBYC+oHXWE8iB70/eaMyVEVxk4rLF9kUvzJs+Y5R6/73HvF/ETQhPt6iwT9h97HvdTvq1BismeuKAnHJiQaT9ivOEzfAxsPb9rv4+FfYPY42pfdOW5rV9sc7sver/OUMy6DXH/AXG1jT0AetCAa0nD/qHE5CM1DcQlMP2v/CW8g0AcADDM+JAAAGAK9DPTdGvVabxRk5Vc/knK+v+03CPQHG+g72qnubuYkArFWaVWsVv9qIHp4Yc7BVncfRQMxJwRrp8JYA/383o5kShG5uxs2wb1aOjUtW5ur8hv/4n+V6Pi0ufmbLNo5zM5Ph0xLnk9fGO94Ueh+hcR65Ukvr0Kpb92i26m3UWzdomOyfPe6bDyoVXfrlWPBmUs9m1Dx2voD5ioFezLjoAWRB8N951hxzlPOcXPUmBDod45AHwBwFD4kAAAYAv0K9N1i889J0R9t+I/zaqUs1dyWVPe3+7Y47lMd6DdYP2BQgX6j/d5MfXCv903VfajWJsTrau09HpqAXw063O8mPHb3uTeV9xvbspXJSHq3IPulqv2qxyKhMdlYfyT7exkp5HclFIlLOJaU+ETrYfcw0XY8uqCuLqbbaC2FfgX3JzGZVZukuna4utu8j4ezulvHQSeQC4XauDjBfWXHDlyD7YfBOi46Dhrc65VC5jxljY8XJhmP4oT7h1oQWePaziRVL/TqChUC/c4R6AMAjsKHBAAAQ2AQgX6jKvFGquWC+PO1cF+rJ3ulYaBvAp0N+1GfEOg3DfR1rBcWTnmmkrWXNDjTili9OQGwu71HN5zwWEMw7YWu9zWoLBZba3fT6z735VJBdrfXpJDPSqmQl+j4lAn3I9Zt1Gjg+MqpsHz2xSmZjgclmkyJP3m+ozDSzatXoTg96A9Vd3sw3O9kQqXVQF/PT168Oqhb2oJIF5g9OEedOtyCqBf6NdHlOAjNwxMSmPLW1STF9H3rd5lNc9+X0N9/vDXZSaAPADgKHxIAAAyBkw70/dWSpObmnwh26yueu0Gg771Av6JXZWzfd4WEg6lkHzT3YrpOGyrd5uMWIXXCsE4rWZ2qe9PffseuvN+shfn9UixYP2d209yq1s84zOG+7uNSqWgmSvSr3nRMqtWqfOnTZ+WzL1vH1FhEAjOt95z3aluWVjjhfjcLzHbLPZnV7cLB7kA/OHvpiXHRvzO7uyfb996V5OS0OUeNYgsiZc5Ra3qOstcXsLbTfQXKcdzj0skkY6cOQnMPBvrmCkDrM04R6AMAhg0fEgAADIGTDvTL6TsS8pWe6Lfv5g5FO0Gg791A322Uw/2jFtPVQMypXm2nz706ieC+FVqxn9/LyN72uvj8ftOOJxQZNzcv0X1sAslCwbpfOgjwNbhv5iDQN9Xdz9jPPikei5qK7kEu2jwIj8/HjxeYbScAboW2yNFjoJcLBytnMe14yCeRoM/6+bVdVKLpuDgtiJ5cJ2P4WhC1wh3uR8eTB+H+Uevg9GJcOnEQmhPot0XH7403fpSsBgDQFB8SAAAMAS8E+qL9823uoLPe/v6+ZFbvHoSirSLQH45A3+G0qel1SHjSnErWzY0NWb35jkgpf2wo7GjU5955fNLh/XG0Yl/D/f29bVPdHZtImar9wNjRVyn0khPc661Y3Le/lqzny/YrWucO9Ivxs4cmVPS+Lhz8wrl5SexdH+lJKuUO900AvLBktvm4K1AczjExDOsP7O2kZXP5tudbEPWCjosuHrx6+wPrA6MisblnpTiWOJHgvhkC/c4Q6AMAjsOHBAAAQ8Brgb7bUWFYrXLyugmSdPHGoxDo1wX6haxUtm7Zj/qn00DfrRYSnm8rJDxpTkh5VAsKE/jooswNAv29XF5W03s963PvJe5wv1+L6WowXK1WTNW90ypHb0dV3R/H5/OZMFhvFxYmZS4Zk3SuLCvbRfsVTzo/HZLnF6Ly6Qu16uZRDoDV6r1aJbuek7Ufu26rMzHbyjHRCSe419ZF8VjM3DdXQ/R5Me1GLYh0m4dtbI8bl/L6x2bi0YsLuxLod8Y6L6Z//Md/fMp+CADAEwj0AQAYAgMJ9BuEyo6jAn3H457Npxv2bD6u3z6B/vAG+m5HXb1xEpwwrJMWFBr45HY2JVMMyt292KHq7umYX/6bX/sfPdumphd0MV0N97U1TyG/21G471Tdt9MupxVjY2Pi8/klFApZ92ttcvSm4XGnNNx/fTEmr5+N2Veg9H4RUq/IpDdl7cFN2Vm9bR7HTr0oRQl3Xd3ttMvx2voD+vnjVO57eWw7aWNEoN8ZAn0AwDAj0AcAYAj8w7/7//hvFlOxr9gP+6LbQN9NA5OjFhZt1G+fQH80An23x9XOjf/+XtPg2GkHMog+915oUzMoGu7vbq9Z25oxrUzqF9PtV3DvVN1rcO/3j5nAWAP8boL7Vry2GJXn5yPywkLUPp9dMu/lRuuHeJkzodWoXU61UpbK2gfmdf7kefFFWl8YuR/tcgalfn0BHVsN9wfZOuyocWkXgX5nCPQBAMOMQB8AgCEwbIG+21EV2+5FSHcLVRlLLtrVnH5T4bm9fEOy6/fsV/cJgX7fAn3HcVdvtKubMMwJ7jWo72W7HCfs7rSSfVjoPs7tZiSX3ZDS/q55Lmi9f3RMetEuxwnuH9/vb3DfCne477SpaTZZeVKcY0KPA53Mco6Po46JVgP9arkgycmpgbbLGZRu1xc4jjMuvW5j5Eag3xkCfQDAMCPQBwBgCAxzoO92VMW2Bh/KXeF5/9q7TVv09AyBft8DfTfn6o1WKmK7DcM0rO91cH8cp02NVu6XCnkJxyYkOj59UMk+TMrlUm0MGvS5r5b3RQoZ8zpfdM58bYUT3Pe6Xc4ghMd88ukL43J+JiRLM+GDcH/Q7aW0FUsnLaTq1Qf60eScNQ61yVRtl6P3t3eysvbwjvh2H9rn7zMj2YLImVxutr5AKzppl9MLBPqdKW7eEb9zDiPQBwAMGQJ9AACGwKgE+o5WK7YJ9Ecv0Hdzrt6YOf2MCb46DSk7aZczCMWCtS3ZTXOrWttR36bGK3QfO8F9q+1yWg30x7TSPhw2wb0T3ns9uG9FMhowC+menw7LQvLx+ayXC646E1rOlSj6tRcBsdMuJx4NSbCctd6Xk6Y6/aiq9PTag4Orqbzcg74XdDF3J9zXW324Xz8u7Vwh1A/DEOj7olPiT561n/WGQ4F+clH80Wlz3wvy+f30T/zE5wj0AQBNEegDADAERi3Qd3Mqtifnzkq5Kk+EJKXdDanq/7tP//8jA/1yQSrrH9mP+udpDfQPaPXm5Hn7QXNeDe5boQvLatX+3va6+Pz+g6r9QS6m6wT3GtY7Ffca3lcqtatj2uEO9P2xeRPUu/vc699bLO5LfnvZPD+qLYjU/MRYbTFd6xYJ+tsO9/sVEDvBvbbIiWibnB61y2nUg163d9jWFziOjkt2JyOPbn8kua0H5rn42e/z3PnGy4G+E5p7MdAvb90++L3Ca4F+Lpe7/fnPf/6C/RAAgCcQ6AMAMARGOdB3+CKTR/6DX9tDaDDgL+1KYTdtP9sDBPqeDPQ3tjKyky8PtF3OoAxiMV0NhqvViqm6r2+X0ymnXY7edCHUgK8iwVD0yJ97lFoQteL8dEieX4iY1jyPr0SqtalxgvtetMup57TIcdrlhEJj9nok/V2k1h3un1QLol44ql1O7Uqta+Z1/tkXxBfwztoJysuBvhOaE+i3h0AfAHAcAn0AAIbA0xroa5CycHrxiYBKWyJoKx4NkQr5PfvVHfL5JTD3sv3gMAL9kwv037nysfz9//G3TFW3VrEPspJ9kHQxXa3e13C/k8V0NXDUwL5WaV8yAX63wb0aGxvreZ/7YWlB1As6Li8vBOWzL0zKTCIsY+Nz4rOOs15V3Y/Ho2ZSRSvu9dbv4P442oNez8nN2tR4hTOp0s7VEF4P9AurH0mgsk+g3yYCfQDAMCPQBwBgCJx0oG/64OZ7WBXfQKNAv7LzUPyF7YNFVBv1a97Zqi1i2HGvfQJ9zwb6f+83/yf7UW3dhX5UsnvFcZXsGjiaMLKNPvetcKru3e1yNMDvd597L7Qg6oXjxuWXPvesvHJu0jq/tRdoejW4b0VtwvWaCfZz2Uxf1hc4Ti+vhhiaQN9jC7sqAv3OEOgDAI5DoA8AwBB4agP97IpUd1ftR4/77WtA1GgBx8ftHx7Zz7SAQH8oAn23TirZh4WGjfu5rGQzq1Iu7JrnguOnpGw934t2OYMO7ltR34JIw30dX23n4xVOcN9uG6P/+MefldfPHx/ox2PRgbfLGYS9nbRsLt82i8yWrX3Wr8WDtcpeg3ttnaP3Ownum/F8y521K9Z/igT6bSpu3BR/MWvuE+gDAIbN8P+WCADAU+Bnf/rzX5iIBz9jP+wLXyhu3RpXx5pFaUt5+1F/+MYi4oscbr1R1UCzWAs1lQZCO5srsnr3Y1P9qY/jyRn7uyKxxKRMzZ81oX8wFDF9949tyePziT8+Zz+oUy1LdW/DftA/Dfd9udD3SRTlC8bEF07Yjw6r6pjbFYx9NRYWf2TSflCzvL4h33n/qv3oMB33Qm7Heg+smMp2NRaMmK/DpFyuVXPncjnZ29uV3d2sue0XCqbqplquHXMVv25ba3U4Gtxru5xAYEyi0ajEYnGJx8dlfDxhvobDERPq6/f1tV6gwX00PiXjkwvi9wdM9f7O5kMT8mtYrmOr7X8GxT0uetvd3THjksvtST6vrVpqbY1aCYy//9lpmUtaP/9YVPZ9MVnP7Mr7tx7J+zcfyR9875ZZFyISGpOxzQ/EXylYYxaRRHLaExMtvRC03m8TMwsyf/4Fc5VVIb8rD65/z1TwFwt5ax+WJRKfsF99NN3nemykMzuS2d6R1fVNebi8Zr5uZbZNoJ/f35fSMZMs7dJzjC+/Ze77YrPis96jXlLdW7f+UzHncf0s8RLzGVbetz5nok98vp+4/Yz52ZQvMmF+Rq8olUrpX//1X/9V+yEAAE+gQh8AgCHw5v/r//5fLc2N/7L9sC+GoUK/mcdVn09Wmh/bb/9pr9BvsN8dXq3Qb8arPdmd6u522uXoe08K9jEXmW0aaPut3+Yj0Ziptnd63Y9CGKxBr1bu7+9lTAjcj6syOhmXVrivhvjEhVkpVnyyvF2U/VLzv3d+YkxeX4yZWyToP5E2NYOUXntgzslaua9XXk0vLB20VTNj0qN2Ob1Q2t8VX/qGuU+Ffnuo0O8MFfoAgONQoQ8AwBD44r/zE29MxkNv2A/7Yhgq9JvRPs3p1fsmuNcgUIWjtUpFbc2jFaK6OKMGRtrSY29703zPeNor9Bvsd8dJVuhvZ3flj955337UGu09n99NmyBYr87QStpAIGh/t/80bCyVSpLP52V/X6u792RnR6u7d8z9QmFfdCFO5z16lIBY7z27Qt8fHDdV95FIRMLhqMTjcRMWq+LuujVOe7XvxxKeqbrvllmQNxw37Xf0plXSGu5vbzxo+6oMZ1x032uFvXM1RDbb/ri4tXI1xOZeRTK5spSPyaF39ytyY21f/u2NrNzZ2Jet9JbEi6uyfPtDs73tVLIPA90WnayYO/e87Bcrsnb3qmnNs76+LuvZsmxspg+q7vcLxZ5X3bfDV9FzMRX6nfB0hX7e+j2gXDR3/dEp81noFflCMf0b//AfUqEPAGiKQB8AgCEwkEBf21o0a73i8UDfUa1UJJteN1WfelPhWEL8di9qDfk13D914SVTFaq0gl8Dfa1qDodCMplMSHIiIXOz05KampD1B7XKzH4i0H8y0N9IZ9oO9B36PtCq7tzORl/atjgBsbZmqW+X4w6ItdK4nRDSCYh1EdRIbFxi40mJJ+dkIjllwmJ3uxzzmoi2qrHGzvp/aAuizPo9065Gean/fLe0DU84OiGxxKyp0i8V963jfFmyW8tPhPvN2hjpuOzv561xab1djpuOTTAYsvZ5WKLRmMTjiYPgXh+HQmE73A+Y13ZDJwA03P+9azuyopX92U0Z21s2gbe2m1LOhOWw0H3erF1Ovuy3PmN2rAOrKNUx633bZGL5xJhzMYF+J7wc6Fdz1pjagb5eqealQL+wn7/9G7/xG3/ffggAwBNouQMAwBAYSMudoxZH9XjLneOMT86aFhYzp5bsZx4rFQtSqfokFHqyklvD/g+//Tv2o/6h5c6TLXc+vnVX/vY/+E37UW900ralFt4XxWnHord2g/pGNPw1VeihkHW/1iqn23Y5xULOXJ1Qu0Kh4tkWRL2g45LbzUg2/Uiq2m4kEBZfeLLrcdEw3mmX47XFg19bjMrz8xF5YSFqJiRTi5dMWx4vhfudtsspb94wk7camDf7HDoptXPxTXOfljvtMeNasMd1wlvj6vxsym99/nhpwmFnZ+edn/qpn/qE/RAAgCdQoQ8AwBAYTIX+EYujDkmFfjPaOz+z/kiWb1856KMfide2Vav3NcCrZypK8znZfDSAUN2jFfrmZ9CFA/utxxX6zRy1mK5Tde+0y9nd3ZWdnW1T3a1tWrTqXr/fSWW3aYfjapeTSEz0pbJb2wtpJft4cl5CkXGzjbq47O72mlTKJTOBEBjzVhh5HGdc9IqHXG7XVNo7bYwKxZJUre2SqnXTOiWt7m6RMy7DtHjwynZJPnyUN5X7u7l92bTOadX0bev9/OQC4YOg58i9XF4yO1nZ3MrIytqGuXXSLsdUS1eKR34OnRh3hX583hxHXuLpCn27Ct6L4+rpCv1CYZkKfQDAUajQBwBgCFCh33vaSz+1eNH01Q/HJ00FaX1FqYZklbUP7T/RP16t0K/mM9bY37Uf9dGAKvSbCVrvew2Nu1Ff2f34/smHf1qxr62H9ve2zftee9Jr5b7X2vJoaF+tVjTMOrgS4rirIaqFHZFyzhqAMeu93HxRyzEdj7BOnozW4sHJaMAspHt+JiRLM2FzPtOqfV0zpFecqvvsbq42sZLfN7d2J7eOUli/LoHynvcr9FMve67lDhX6naFCHwAwzKjQBwBgCFCh33sH/fZX7snmfrBhRalWYpqg3WmxUN6vfe2xhusXeKFCv7Q/UhX6zVQDva/srrXU8UbtjAb30fiUjE8uiPaj1z77Wrnfj/UFWtHsagitvterIdrqc28dJ6ZCX49V6xzmvhpCr4DQx6qYXTaLmwYC/pFaPHi/VJU7mwX53v2cvHt/z6wdUdldk/SDq+a+anUxXd3n2ud+f79gzofrm1uyur51UHWf3d0zFfnafqrb1kZP0Ar4oajQnxvosdIKKvQ7Q4U+AGCYEegDADAECPT7yOczi+IeRRf008A5nFyQaCwuoaCGorXWPb3QcN8T6A8s0PcFm4dgg1oIdVCccF+r9KVaW0x3e+OBCfkrlbKEwr0LBOuDew3st7czB4vUOosH6/+3HYcmVXTx4MSUxJOz1tgkn5hU0THSsdL1BLQFUT67aSYz6lsujQIN93Ux3T+5vSt3NvZlK70l8eKqLN/+8Ilw3wnvdZHabtvl9EJpd1P8VQL9TpR21sQvBPrtKlnnAn3PKQJ9AMCwIdAHAGAIEOj30RGBfrVSlvhYWc6eOy+nF1Iyl5qV6dQps7iuLrKrdne2xSfdtZ4g0PduoF/eWzGV3cGg9qcfH5rg/jhaqa999jXY11u3YbcG8+VySXK5nOzt7ZrQvj641xC5XfpzaoucRldDmEmVcNT8nLp+wFFjo3+Pri+gCyK71xdotJ7CKMjkyibcf/ujjNxY3ZVgMSP+vVVZe3hH1vZ8srq+aYJ8rbrP7+8PLLhvprxHoN+x3RXrP1XxRSet/eetNlpeDvRl31WhH5vx1GLHe7n95d/8zf+BQB8A0NTwN44EAADol2pZdh5elTvf+5as3v1I9nYeB+zhaFwWL70u3/fGz8jFyz9i+vFjNGl1c2b9nizfftf6ete0qhklulDuxPQZ6z38kkwvPGt6hKdXb5vt3d58cGh7tepew/lam5yMbGysyerqsmxursvW1qYJ8fc1IC6115bFqbqPxWIyPj4hU1PTkkrNW7c5mZ6eMSG+ttLRiZVue99roK/bu7D0utlepdu7dv9DyaaXzdUKw0jHRSdPstkdSac3zdisr6/Kd689lI8fbZvX6ORFL3vf90rA572fCSOuzSuDBqlaKfV/Nh8AMNQI9AEAwPH8/b+oTxfD9Cptr7N8+4p89J3flat/+q9l9d41KRVrVb0qMZUy4f4nPvslOffCJyU5e8r+DkZNLrtlwt+Vu++ZsHtYw99mnLB77tyrEksuyN7OZm177101wf3a2ooJ77PZbdnb2+s4uA+Hwya4TyanZHp6VubmFmRmJiWJhLbNiZtWOYNYtFa3Nzl7zoT7usZAsZCTzeUbJtzf3V47qN73kvpJlc3NjdYnVQZwLgcAAEB/EegDAAC0IZfNyIPr35P3/uCfy7XvfkvSaw/t79RoO55nXv1BefWH/qKcufiajE/O2t9pk4/gzct0UeW97XXPh7/HccLhRpXduULF+tdC2LxO20+125JF29zoGgTaHscJ7mdn50xwPzk5bYJ7p+reC7T10NTcBRPuxyZSZrJm7f4Va4yvm/EdtPrgXsem0aSKLiJ8ku1ygGbKZft9yUQSAAA9RaAPAMAQKJWrXH59Eo4J1bPpdbn1/h/Jd//NP5E7V75zKNwfC4Zk7uwlufSJH5WXPvMF05Kn6huzv4tDPNz6oBXlUtH0Yz/J8LcVGhBrcK8BcSaTPgjuu22XowbVLmdQtNe+hvupxRdNFX8uuymPbr8rG9b47ln3e63ZpIo7uNexIbgfvHKFfQ4AALyFQB8AAHjXEFWpby7fMeH+B3/0r+TRrQ/pt/+U0n77Gu6fZL/9Zi1ZtLJbg3sNiPP5XE/a5WiIr5X4xeyyVPYzEvCVBtYuZxB0fQFtxTN7+nnr9pyMhaKm1ZKG++kOxrerdjld8A/LWs4ePOcHulz0/GnG2gidWVtbe8u+CwBAQ1z7BgDAEPhLP/UTn5lOhL9gP+wLXzAmvnDCfnRYtbAjUszZj/pkLCz+yKT9oKZa3BMp9LtHeVX84/P2/TrVqlT32qu21mptrdzfeHhLMusPpVIpSzw5Y3+3Fu5PzCzIqQsvSSgSM8/tF8sSiCYlHArJZDIhyYmEJGIh2V67b77fT76xiPgiSftRndK+VPcHEEgHQuKPTtkPajbSGfmjd963H/WXLxi37zVQst6D1nukE6VCXvK7aev9sHLQjmcsGDFfe0HDYQ1+y+WS5HI52dvbNYGw3nK5PVPxreGxvgfbpSH92FhQorFxiSWmrPfwrIyPa3/7cYlEohKy3qu1cD9S63kfGTfbqJMZ/drekxYIBCUSnZDx5PwT22v2sXW+cLbXGRsdg3x+z4zH9namJ2PTiYsLCbl0yjq/+8fEH3t8PvKKam7D2mkl8YXGzc1TXOdBX3xOfD5vTVZVd1f1v9Z5fMI6l0VrT3pEdc+74+r8bMpnff74rM+hQdJJT50krU2U1mIZncQrFArpn/u5n/vL5gkAAJqgQh8AANQMKFh6mjj99rUlz1H99i9/+g155YWL8tyz5+X0wpykZqYkHquF/RgNzmK62m8/m15uezFdDe2dliy9bJfjVN03bZczMSWRWFKCoeiRVfehSNwspqv95yfnlkxQ3c32el1YF9O1tveUtb3x5ILkdjOyZW3v6v2rh8ZGQ3wvtMsZmgp9j/PRCx4dCgZrLff0PKo3nfRzbsViyXwFAKBVBPoAAAADcFS/fTw9aldwrBxaTNddpV0Ld55sybK+vnYQ3PeqXc7sbErm5hbMIrWJhFbfx3vSLkcnAJzFZbVdTbGQa7q9w6TZ2LgXD9aq/V63ywGOQo//zvR6v+lxXx/aK31eaWivnBAfAIBuEOgDADAE8sXK7WKpwsK4I6K+335mc02yu3uysrYht+89kI9v3JGbD9bFP3VBfB5sj4HecBbTXb37vmyu3jOV3drn3r0QarFYaDsc1uA+GAyZ9jga3E9Pz8rs7JwJ7icnp01wr4vUBgL9X6Q5Oj5twv25c69IbCIl+3uZ2vZ6fPFgDe7z+bwJ7nWR2rW11Z6MDQBvONTfv8u1GzS01/Nuo9BenwcAoNcI9AEAGAL/6X/2X/zWT/x7/+nUuzc3v7iWybNY2ogo5Pdk+fYVuXXtA7l5574J9Ld3diW/v2/CAO057E+clsD8q+KbWJRA9PAaAxgdhf29g0rOVjVrl6PBvWmXM54wwX0wGOy66r5b2pM/PmH9XAsXJbX4ollcdm977UQXD1Ya3DutjDS4d7fLyWS2DtrlDOtVBRh9AV9tUsk3RIvID5Ke+6rFnFRymxKu7MpMzC+BzC2RctF+RXNOpb1zcz/n1svQvsIVFwCAFhDoAwAwRHKVsbcf7Y79cto/95XJ05duRxJUb4+qaqUsE4m4nJpPyfnF0/LSq98nr33mx+XVH/qLcubiazI+OWu/Ek8Dd3CvVfca3PejXc4gBMZCpt9+avElmV541vQl1377/Qz3nar7+nY53a5BMCzCQcJejD5teROPRWU+NWM+Ny89c05evHRBXnjuoswmIlLdW5fVm+/IeHLaOv/o5OJF63wUtP90LayvnQMq5r5Tae/clPt+P/hZ8AIA0AI+LQAAGAJ/52//1z/zmU+9/o1LL39yyX7qwH5uV9buX5fM+kNT8d0pX2RS/Mmz9qPDKjsPrX8Ib9iP+iQ8IYHJ8/aDmsruulSzj+xH/aMV8I1oqF5Z+9B+1D/aVkcr8d1MReHmdZleOC/J2dMymTr8feWM/eqD2+Krtlfd7Thq3Kv5jFQyd+1HfRSMS2D6GftBzce37srf/ge/aT/qL190zr73pGp+Xd8I9qM+CkTEF5qwHxym4VKglDHta8L2ArWjSIN8bcmjCwj7/H5T0R+KjJtbqzRoK5fL5lYs7ttfdcHJ/lbYV0t71jGrC//6xB9N1Z70kC99elE++/K8yFhEAjPP2c96R2HtIwlU9sUXnxf/uPVzekjtPHjH3A/Mv2a+ekl5+Xvmq9/6/PRFkua+V5TXPxYp5cWXOCX+eO+OCw3bQ8GgjMej5gqkaCRsboHA8RNXO5kNWb57XXJby6btWeLMi1KUkJSrvr4G9a3K5XK3P//5z1+wHwIA0BClGgAADIGf/enPf2Hcn/v3tD2LE9pH4gnzdSwYkomZBZk7e0nGJ1Om2mxve9N8rx2+sUjTMKBa2BEp5uxHfTIWFn/kcEuZatHa1oKGZP3VNECqVqW61/8+375gTHzh2ngeqJSkmtuUXDYj6dX7pu++hg86vsFwxLzEGftTSy90PPZHjbuU9qW6P4BWKIGQ+KNT9oOajXRG/uid9+1H/eULxu17DZT0eBtAxbZ/THyB2sKqT7Leh9ZxUMjvSm5nwwTfWkU+FrTGzjc6F9zq9uiCurqQbiAQtLY3K9mtZesYqL2n9Tlt3eMol0tSso6JXC4ne3u7pspeb7mctsnJm4p8DfQHUnFfKVq3gnXHd/T76YS8tDghF+bGzfvM78V1OfLWGFvnPG0zpjdPcZ0HvTbZoKrZFfNVJ2f1fO4lpey6+Ktl8/nmC3V2XETCYQmHQzI9mZTZ6SmZm52ShdSMpGamJDEeNxX5oVDjtmJ6/O8XCpLO7Ehme0dW1zdlPZ2Voi8i5d3aZG1RglIdiw3mPNGCUqmU/vVf//VftR8CANAQgT4AAEPgL/3UT3xmOhH+gt4/KuANR+O1gPfCSxKKxMxz+3utBeJHBvoarBd37Ud9QqBvP7LZgb5DxzqbXpeNh7fM1RhacRxPPg7mOh17An3d/94P9Gs/R02lXJJCbkd2M6sm9FajVrWv2xONT5mFdHXz97ObspNelsJ+TnKFiuzs6MK0u5LP50QXp9Xg7kSrawn0u1LatYNfAv22eTnQF/38rFZaCvQ1kA+HQjKZTEhyIiEzkxOyeHreBPca5o/HYxIJhyQ4Zr2H68J7J7jf28vL5lZaNqzbo9V1WV7dsB5nzKLzezmd5HvcUkvb75ifLWrtt6B3zp8E+gCAVtBDHwCAIeUsqPrRd35Xrn33W7J675r9nZqZU0vyzKs/aHquLyy9KMFo43YeGD46qfPg+vfku//mn8jN9/6tpNce2t+pcY996pxW79Nvf1Rp1X5m/d6JLy7bCxrIa1V9Pp83fe5ri9RuyO6+9Xy1tuiknvc0wB/FPvfwpjKLlHZM18uop2G8Vt2714h54eIFeeWFi/Lcs+fl9MKcCfGTyYmGLXQ0vNeAfm1jS+49WJaPb9yRK9duybWbd+XO/Yeyvpk2i8treH+UcplxBQAMLyr0AQAYAj/1k597YXYi/EX74RM05NrZXDEBf31LHr/1D+LEVErmFp81vdi1ZUWjtixHVugXdvtfoa+Vo3VV2lToH98+R6vw9YqNZmM/MT1nAn7txa92d7bFJ48rmanQ1/0/XBX6zZQKecnvpmV3e81U8Ws7nkaBmhe02y7HXy1KVavgrW3yjXnwagQq9LvjVHJ7sELfV6ZCv1MvvPpJSc4smCsJJ6dm5NT87EG7nMnkhGmXo1X3zYL7+nY5D5fXzNetzLYJ9fO6kLXrPNGWnF2hH5mgQh8AMHQI9AEAGAI//YXPXT4q0HdzWvLoYqnFQl58/oBpx6K0NY/TliUQiorf97gtS6Ng17kE3lfak3J+x362TxqEugT6xwf6bp3023ePu453LBqRZGJcpqeSEh0TyW4um+/1FYG+CVq7DfQPWO/b4v6e9X7Ysm6191B9//lB0ar7Uqlkqu7393Oyu7vbUbscX4VAvxteD/QP2p94MNAv6+dogUD/KPrZUSnsSTWflqAUZemZi3J6ISXB4FitHdzktAnvG7XLUYVCUXL5fRPUr29uyer6lqysbcjGZrphu5xeqO23KoE+AGAoEegDADAE2gn0HdVKxQS2Gu7qTYVjCVO1reITUzI1f/ag57rPPybBaKLhwnOl/Lbp395XBPr2I1sHgb6jnX770XhCZmZmTfiyMDdrxl8XGoxGIlIq5MwEQd8R6Pc20HfR84D229/bXhftt6/vhVC494GzE9xr5b276j6b3TFV94XCvqm61/9/J6plDcwJ9DtFoN8FPfb2t81drwX65XJFZG/V3B9UoO/3+SQWiz7xu8L05IQEKvtS2FmTlVvvS3G/tpB+JP643V+zqnttn6Nh/u5ezvp+sfOq+zZUd3W/EegDAIYTgT4AAEOgk0DfTQNebcmzevdjyabXTBsOpy2LiiUmZWp2vunCc/pnCPT7p9eBvlupsN+0HZOKROMSCmn19pNVk/m9HQL9IQ/03fQ8oOF+Nr0ixULOtOQZC7YfALrb5ehtd3fnoF1OvxapHZqWO+bnqy1K7SVDE+iHJ+S4xVMHrVrKeTbQN6F3nwJ9/UxwL1I7Nzt9aOK3/ncFvQpM2/vNnnlWxqfnJZPekNVbH8jyrQ9lt1CV9Uyu71X37fBqoJ8vFNO/8Q//IYE+AOBILIoLAMBTRoP5W+//kVlQ9c6V7zyxoKpDL4HXf3TrP8C3d/ofqj/VOqxabpdeqdFo7DV8zeXzB+N9+94Ds9DgvYcDaLeDE7G/ty3p1dtHLqbrLFJba5OTkc3NDVldXZb19TXZ2to0Ib4G+FqZf1KhHNrko56rYz7v/dPZ73Mddx221NIwXhep1ZY486kZs0jtpWfOyYuXLhxapFYD/Ga97vXzQ6vsHy6vms+OO4+2JBeYkrLUFrPObqdNv/teTvKNrEo5bd8DAKApfqMDAGAIdFuh34y753rF+rVgO1dseAl8LbCz/iFe3rf/ZB80qtDX/59dGdlPJ16h32D9gl5V6DfjjP362qqs71ZM1WR9ywMdE1Mtq0FRsdY+oS+o0Lf2cf8r9Js5tJhu1W96WbsXqe22XU4vVEvWuaBaMqGqFyv0zRUEZa3Q93m7Qt8ca9P2s97xuOVOwrsV+tbY+uNz9rMeoZ9Ru7XPKJ91DvVZ43uU+qp79yK1za7Qczjtcvb28rK5lZYN6/ZodV2WVzesx5mDqvtD7XKchWejk56qglderdAvFArLv/Ebv/H37YcAADREhT4AADCtWB7duyHrm2kT6NZX0WlP48DkefHPPi8+DTROaOG9fqmeYFB50rR1ylFVkzr2/sRpCcy/Kr6JRQlEJ+3vYNSYdTd2tmR/f5+q+zZV2FXwEKfqXhc5PzWfMlX3Fy+clVdeuHio6l7XSmlWde9csXXvwbKpur9y7ZZcu3lX7tx/aH5X2N7ZNS1zjlIuc2AAANAPBPoAAKAlGhBEYwmZO/e8LL70g3Lx+z4rqcWL9ndHk6/DFgajQiuOZ6cnTSD0zPlFefXyp+S1z/y4vPpDf1EWll6U8clZ+5XA083vs+8AAxQYC8onfuzn5NyLn5L5ubkn2uVcvHDOBPfJiXGJRZ+sQq9vl3Pj9j15/+p1+eCjG3Lzzn0T6OuVW522ywn4vNtip2zPwvloQwUAGEIE+gAA4Fi+/KbMhAuyOJc8qOxLJKdl8dLr8onPfknOvfBJSc6esl+NkVHMycqV35e91RtS2ksfVHLq4oenLrwklz7xo/LSZ75gJnY0WAIA9IdeSVa1zsmV3TWJBYpmklWDezVzakkWTi+a4L5Z1X2jdVKcqvtHK2tNr9ADAADeQ6APAACOVS4VZfn2FfnoO78rV//0X8vqvWv2d2o0THjm1R804f6Zi69RuT1inMV0P/ijf2XGfm/n8Zp94WjcTOy89sN/SS5e/pGRv2oDGEZ+H5cQDJNGi9S+8uJz8sy50zKbjMvOgyty7Y//pTy68Z6k1x7Yf6qmWdW9BvdO1b22y3naF6kNuBcUBgBgyHB9GQAAQ6Bfi+IeMhYWf6Rxf/RqYVekaN0spcK+7GyumIBfe++rSDxhvqp4csYE/NML583j3Z1t8UkLoUGjRXFL+YEsiuuLp8Tna1znUFs4r78aLooruiDvhn2/j44YdyntS3U/Yz+oTezo2G88vCXZ9Jp5rOPt0HB/YmbBVO+HIrWFQff3subrkVgUV05yUdxD/MEjfo4TpAvOenhRXLMgbqVo/XzeXBT3xTMsitupfi6KW79I7dzstJxeSDVdpNZ9jo0mpmVzbVnW7l6VzUe3Za8clNWNjKm2dy9Sq33uT2o9DK8uPKuq2RXz1Wd9/ulnsFfs5faXf/M3/wcWxQUAHIkKfQAAhkCpUn1cEu0hTuX2d//NP5H7196Vna01+zuPK7e/742foXJ7WB2xhkA2vS4Prn/PjP2dK9+R9NpD+zs1zlUb2m8/de4FrtoATpDXK/SdfuZeVOnBz+YsUvtE1X3dIrUa4DdbpNZdda/tcu6vZ2VvrDYRqpPrmfSmqbrHcKtWSp78fQ8A4C0E+gAA4HgtLBq3dv+6XH/n9w7asuznahX9KjGVot/+CHNP7Gi4757Y0X77i8++TL99AE0FPLyqsL/Nn03D++BYwCwovnh6/tAitc8unTWBvtPrvp4T3Ge2sya41173V67dNIvUunvdO+1yAtb/CwAAPH34DQAAAPSUVgpq5faH3/4dufbdbzXtt6/h7sLSixIdr281U1MqlSQQ4FeVYaPhvntip91++04l60Ri3H4GQLfCQW+fS71coe/zj9n3DnPOVVPJCTk1n5LFU3Py8vPPmqr7F5971lTda9ucZovUanjfbJHaO/cfmuBee91ry5xmyixgCwDAU4ke+gAADIGf+snPvTCXjPx79sP+OKqHfnFPpNBCL/Q6Gu4367evldtauT975hmJTsxKKByR+MSUjMeicvrUnJxZmJOgrySZ9Ufm9f3kyR761fLJ99AvF6Sa7+zq/3b67Ufj4zI5NSNzs1MyO5U0FayZbFb+5dv/1n51f9FD34Ue+p3R/vke7qH/2vlJWZyxfi6P9tCXPe1nXvVkD/3U3Lycv/iSee9NTM/L7PSUOVctWOcpbZOj1fbaSicajZiQv54G9/uFgqQzO5LZ3pHV9U15uLxmvm5ltmV3L2d9vygl63Xt9rr3mc+J9dr92Kx17Hrr6qfSzoroBQ66RoqX+tSrgx76sRlrv4XMfS/I5XK3/9E/+ke/Zj8EAKAhyt4AAMBAOG1ZtHL70a0PD1VuT87MyZkLz5uKxoX5VNOKRgyn4/rtT84sHLSgCIc9GCYDeCpUK2WpFnPiK2RkJhmTZ84vmglGc3XRxVcPtctp9Bml7XKaVd077XI0wNd2OU+DgM+7V14AADDMCPQBAEBNpWzf6S+t1NeK/Y++87ty9U//9RMteZTTR3i3UBU5qnoaQ6fhQsqa+Vg398KP8UhEfuwzn5Jo5KQDfn5dBkZRw0VqX3xOTk3HJB4oyurH35ZHH/+pbDy8af+Jx9znKu11f+P2PXn/6nUT3N+8c98E+toux+l1D28plxkTAMBw8+7qQwAA4MDf+dv/9c+8ci75lv2wP4JxCUw/Yz84rLK7LtVsf1vfJOfOi3/ilBQKJROCuFW19cue9TPktrSE0n62d/ypl8Tnb3xFQHnlPfte//gik+JPnrUf1eg2V9Y/sh/1UXhCApPn7QeHVQtZqWzdsh/1TyBqbb/1MzQLvj6+dVfeuXJN/tdvf8d+prd80Tn73pOq+U3rP817WPdMICK+0IT94LCqvufztbYafReImrYnXlMt7FgHY84arDHrePFey5hqcdd6m+xaP59f/JFZ+1nv+Pd/+Lx85pL1c5nz/LP2s95RXn3f2okV8Y2fEn88ZT/bG9oGJxQMmnZuwVBQouGwmSg87iqw/fyurD24KZn1h1LI7cj4zGkJTp03n1GFYtETQb35nFi7au77Zy6JL+itdlTl5e+Zr3p+f6Kt3AnSKzEqqx+Y+37r9x5fyDtrtqxtbLz9s1/84mfthwAANETJEQAA8ITM5spBRWO9QDAiiflnZf75vyDnX/oBiU8t2N/BKND++o3Csdx+UR5tbMvGXkUS06fl05/5rEzMnpVwrHHwDWDINZlYbcXBgtrjcZmfrVXdv/DsBXnl+Yvy3DPnTUu31PSUjMdjTRepNVX3m7Wq+zsP1yVdikoxUAt7s1trVN2j76rlcmcL1wAAnioE+gAAwLP8pZykYlV54dlz8uz5syaQmZ47Lc+9/hfkE298Sc698ElJzp6yX41RolX5/8Wv/gP5xm/+K/mdP74q3/7wjtxe3pTo+LRMzl2Q1LlXJDG5IMEILZmAp42G99ouZ3ZqUk7NzcqlC+fkxYsXTHC/dPZMrdd9YlxCIfcisbXeXk5wn9nJmuBee91fuX5TPvj4hlyzzjum1/1WmuAeAAB4FoE+AADwrHKpIMu33pf3/uCfy7V3viXp9cOLqc4sLMkzr/ygvPSZL0hq8aJEx71zST+6l89uSWb1tqzcfld2Nh9IIZ+1v6OBXkBik/MyvXBRZhdflNjErPj8/GoLjJJa1X2oFtzPz8oz587Iy889I688/6w8e35RTi+kJDUzZbfQ0ePfXpDjILwvSXZ3V1bW1uX2vYfy8c07cuX6LRPc37n/0AT329ldKRYH0FYLAACgR/hXDwAAGArZ9HptMdW3/4ncufqdQ+F+OBKXxYuvywuf+pxcvPwjJtzHaNnbXpet5Ruydv9D2d1eM5M9jsBYSBLTZ2Tu3KsytfCsxMa912MdQHPPf/8X5MzF1yQ5OS3zs9NyfvGUXXW/ZLfLSbXQLmffbpezJjfu3Jf3P7ohH3x8U27efSAr65smuM/vF6i6BwAAQ49AHwCAIVAuVuip6rK5fMeE+x98+1/J6v1rZvFCR2IyZcJ9WvKMpkqpKNnNh7J+/4r1Prhuwn23UGRcErNnZX7pdfrtA/W66FHfK7ogabWYk7CveFB1H4tGZW7xklx45tJBu5xmC9dqcJ/d3ZOVtQ1X1f1tu13Ouqm6393LEdyjNb6TPyYAAGgXgT4AABhahfyePLj+Pfnw279jWvJouO/mtOR59Yf+oiwsvSjjk7P2dzAKivldE+5rS57M+l3J72Xs79S4++3HJ+fptw8MkNMuR3vdu6vuT01GJOHPyt7yFVn9+Nuyt/VA9rJPzlk3q7rX4H6QVfflirbv8aZy2buTFod+Ng9MJLkx2QMAGHYE+gAAYCRoSx4N9xu15BkbC8mppZfk0uUflYuf+LEnW/JUy/adx2phVFgCY+5FFeFVx/XbH59caLnfvs/ns94zYxIOBa3X+exnATRT3+v+/JmFg3Y52uveXXU/d6Y20apXUelEa2ZjRT76zu/K1e/8a3lw/+5B1b22y6Hqfnj5fd6dCPHyzwYAQCsI9AEAwPE8Vl13HKclz/f+4J/Jo9sfyk76cVuWRHLqcUueFz9jWvJEw2FJxGNyaj4l5xdPy8vPPSuvPH/RhFE4GRr8dardfvvBYEji8XFJTCRlanpWZmbnZHomJcmp2YYtP4CnlRPcT4zHa8H94il54dkls0itu9d9ciLRUq/7jT2f7EdOifj8kstmZG310UHVvVcEPBz+HvrZhuxzGo15+aoLAIB3EOgDAICRVS4VZfn2Fbn+zu+Z6s8nWvLMnzGVos9duiQXzi3WgqjE+MBD3GqVf8D3Q6v99qemZyQ+npBoNCbBYNCElsDTTo8Dp13OqbmZQ4vULp09fXC+DIWevIrJCe4zO1kT3GvVvbNIrbvq3mmX4+W2NsAgVSpl1kwCAByLf60AAICnglZ/PtmSR0Okw7daEJU/WHRRH2P4Hddv36HhYrFYlL3dXdnZyViPCRrRjuH751V9uxxdpPbl554xVfdOu5zUzHTTRWr1HNlskdo79x+Z4F6r7oe+XQ4V8AAAwCMI9AEAQE2DPvKjymnJ8923/6kJ99fWN+TewxX5+OZduXL9lr3o4n1ZsZ73RafsP4VR4fTbX737num3v5vdkXR6UzY31mRjfVW2Ntclm92W3N6eVHxafUwffQw3bTN25uJrpo1U/SK1TtW90y5nPB5rqV2Os0itVt13u0itl9vaAAAAeA2BPgAAeKptLt+Vh8vLspXZlvz+/hNBlD9xWgLzr4pvYlEkPGE/i1FQtcZa++3v7malYI19qVSSavVwsOgbi4kvmhIJTYoEIvazwGFeWzs5GgrIubkJ+Xc//4Py5b/278gLz5yTucVL8swLn3hikdpG4b0G982q7lmkFgAA4GQR6AMAAG+oePcKAW1JEZucl7kLr8viKz8qC0svSnQ8aX8Xo87n80kwHLPeAwuSSF00i+qGY0zu4LGT6syk782xsbGDhZ2TySl5aemU/PXPPS//x5++JJ+7GJDPvjwn5+Ybn6+aVd3XrlLqruoeGAq0UgIADCECfQAAgCNEy1uyOBOVS3ZLitnZGRPoP/+pH7duPyapxWftV6JjHm73FKjuy3gsLNMzKUkkkhKLxyU2MSuTcxckde4ViU/OSzASt1+Np9UgKvSd8D4Wi8lEIiHT07PW+WhOZqz35vT0jIyPJyQSichGTuQf/9mW/M1/8VD+8R8/kN/9gz+WD7/9O3LtnW/J6sM7h6ru6xeppeoeAADA+wj0AQAAjpDdeCi33v+2CcSWb1+RXDZtf0ckOj4pZy6+Lpff+Fk598InJTl7yv5OD/ioGvSC0v6ubK/fPei3X8hn7e/olRsBGZ9ckOmFizJ7+nkT9Pv8/HqN7jjBfTQclvHxCVN1n0rNy9zcggnvdWIpGhuXYDBorh6qp4G8Luy8u7srv//BI/l7/7+P5b27Gcmm1+XBnY8PVd17jY/z3sgouyeGPDau5bJ3J62YTwMAtIJ/cQAAMARKlfLjFBknopDfM4H+R9/5X63b78ra/ev2d2qmF87LhVd+wIT7uvjk+OSs/R2P83CrIy9x+u1vLd+wxv5D2d1ek3LpcSAaCEVMK565c6/K1MKzEhuftr8DNBfQdk6udjnuqvuJyWnr+bipuj8quM/n87KzkzELO6+uLsva2ops2gs75/M5szZEpW5tCIyGQ6G5x3h5oWOv/myFQiFdKORv2w8BAGiKQB8AAHiXR3vb5rIZeXD9e/LO2/9U7l79jmTWH9rfqUktXpSLl39EXvrMT5qWPKFIzP4ORkGlVJTs5kNZv39FNpevm3DfLRQZl8TsWZlfel0mrK/02++e3+exVWfrHBesutvlaNX91NS0qbqfnVs41C7nqKr7QmFfstkdE9xvbKzJ+vqqCe4zmS3Z29uT/f39JxZ1xmgLcEXQ0NJz2ljAn75x48Yvv/vuu1/8kz/5k8t/+qd/uvQLv/ALf8N+CQAATXFNIwAAQ+AnP/fZhdMzsV+yH/aHf0z8sRn7wWHVUl5kf9t+1Ce+gPjjdVXt5YJU8/2/OMEX01YpjX8tqu5qWNs8JNNwP71631Tva8W2tmEJ2T3VA2MhmZheMAG/VuwHxoKyt71lvnfIWFj8kUn7ga1alere4aC4LwIh8Uen7Ad1BrT/G733tCXI73/nHftRf/mCR/TAL+Ws/zQPazXcL+R2ZDe9clCxPxaMmK8qGIpKJD4lca3Yt94bvkpFyuWS/V0Xax/4AmH7QT3r/Vfas+/3mT94xM9xcqrlfes/1n7z+cU3FrWf9Y5YPGmNddAE72OhmAQCYxKNRiUWi5vqew3s9Ws4HJFQKGS+ryF/Pf3zWlGvVff7+znTNmdnZ9v6mjXV9sViwSxkq69rxyefmZaFSet92ehc4wHV3RXz1Wf9bL6xx8ePF1QLuyJF63bEZ+SJsY6Laq72meIbn7feUx4K+Ktl6zNs3dz1WfvNFwia+55QKVn7bdPc9Vm/dzT7/O8FnaALW+eGyYmEJJPjMjczJafnU7IwNyupmenI6fn5pXKlvFzM7y9/+Stf+cj+YwAAHIkpfQAAgB5Zu39Drr/z+6bfvrbkcbdkGZ9M9a/fPjwhn92SzOrthv32fWMh029/6vRzMm3dWu23r6FvcMxDQdhJ81Cl/kGv+1hMwtGYTEyfkdSZS2YB5anpGYmPJyQcichYMGjGWqcF3bdCsSj7TarutV2OVt1rgE/V/cnyclsbeEswOCbxWFTmZ6fl/OIpuXThnLx4cUmesxfVT01PyXhcJ/weTyAkk4mlH/j+T/3yX/7iT7/94Xvv3vq7f/fv/oz9LQAAmiLQBwAA6DHtt68ted77g9+W6+/8nmwu37G/U+P029eWPAtLL8r4xJREwiGZmZqUU/OzcuHcGXnh4pL9agybRv32K661CrRqv1G/fQ2H3f3Up6ZnZWZ2TianPVYVfAJOsuWOE9xrla2pto/HJeTbl/LeikgxI/5qQUKh5lc1OL3u90y1fUa2NjdkbXXZ+rou6a1NU32v7XK0Mp/wHvA+rbrXz+xZ+zP7Gesz++XnnpEXL16QZ88vynxqRpKJcYlGwofCe6VX2OTy+7KZ3paHy2ty4859ef+jG/LBxzdlI729NDEx8Yb9UgAAmiLQBwAAx/LUZfxDJptel7tX/6xhv31tzaOB/sWXPymX7Aq+2YMKPvb5KHD67a/dff/ofvtnn3+isrtZP/Wn0aAWddXwPmRX3ScmkgeTKjo2yalZMzax8QmZnFuS1OKLMhaKyp41psu337WO7buS39s2ve537ar7Ta26X1sx4b1W3eeoun9CueztCngvL+6KHvAd3W5HJxPbrbp3aHif3d2TlbUNuX3voXx8845cuX5brt26K/cfrcj6Vlp293KHWmiVy7zfAADH418IAAAMgUrJN4BG5ui3zeW7cuv9b5uWPNpzP5dtPKxOBR9GSzG/a8L9lYPwN2N/pzF3ZffTrtcV+k7VfSwaMYvUTk5Ny2xqXlJzCzI5k5JEIinRaOzIRWorVevvCE9KOHHa+gFD1vG8Jem1ewdV9wW76h5HG5rJy2OCXwwR/9gTi9U3q7p/5YWLXVXd37z7QFbWN826MPn9wqHwHgCATnmnCSUAADjW3/vGr/z8TCL0xVQy8kX7qd4Zi0hg5pL94LBqPiOVzF37UZ/4gxJIvWA/qKkWslLZumU/6h//7PPiC4TsR4eVVz/QHir2o97TxXKTc+elEhyXfH7f9NUuFEsH/+iv7K5LVRck1kUZ+yEYl8D0M/aDwwa1/xu99+49WpH/y999037UX77onH3vSdX8pvWf/oWy2ls9Oj4twWhS/IGgFAsFKZaKUimXTUikldxVff/lN6xXD6ByMxAVXyhhP/AOX9F6L+rCwLpob7jJIs5N6ELVGsDpYrRjY0FrP9cet3L1gx6HOg4la0z0pvd1jOor7CuFHetkkbN+0DHxR2otlLzkP/7xZ+X185Pii0yJP3nWftYbTIX++vvmvj953voZk+a+V1R2HtYWdzXnymftZ73BnKM3b5r7/rmX+7q4a7uq5YJU1q6a+37r/O4Lemcx60gkLM9dOCc7W2tSGYtKKBi0bmNPBPWNOOG9Vtbr1/rP7G7duHHjl3/hF37hb9gPAQBoiAp9AACGyC995Wu/dmOt8AsfrVTfGJ+7kA5GJ+zv9ICrxzcGR1vyPLhzTVabVPD547MmcA/OvSjRqdNS9Y3Z38EocPrtayum+spuJzTWlle+aEokNCkSiJjnnjattNxxL1LrrrqfTc211MqoXC490S5nY33VtMvZ2c6Ydjk6NrTLAY53qJXSCU00OFX3ld01qWw/lIQ/Z6ruNcxXianUsVX3mZ0sVfcAAM+hQh8AgCHw9b/5N89/3ydf+sal51+7PJFMHFotVdu26KKra/dv2M90qEGFvGPkK/SnLzatHux3hb4RnpDA5Hn7wWOxsYrMLpx5onowm16T1Qe3ZXvtnnnclaMq9Is5qWxetx/10VNcoX+gxcp4Da31feCrFMRXLcj+3rb9nR7xaIV+NOiXcmlP9vM58YcnJTAWNBMd3VTda6V9uVKSUtG6lYpdBfVU6HeuWilLZc06z1qo0G+Plyv0S4W8+DY/Nvf91md7s6vgeiVofUbqZ6X2u9eA3v25uZ/bNb8n6WenTqInZ09Zt9Myc6r265S76l4r7muV972rum8HFfoAgFZ45xMfAAA09YXPf3bpzET1G1vLNycL+V0TZumCqioYisjE9IJZXNXpCbu/lzVf2+ILmGrwhkr7Ut0/ut931xr9/8sFqeb7v3yALzpt/e+D9qPDqnsa6Pb5H/VjYfFHJu0HNRpy7S9/KHtbjyQ4NmZa8zh07KfmznQ/5ioQEn+0SQuTSkmqOWv7+80/Jv7YjP2gRisff/8779iP+ssXrB1LDZVy1n8GEOpoK5lA2H5wmLbcCVm/tSenUrVFWePjEo1PSCQ+Zdr1aIjnMyF1DyYejvg5ToJTdR8fn5B4MiWxxLS1/fY+iMYkFAqb75tJjgZ99nUNAt0v+VxO9vZ2ZW83a66CyOX2TDV+yfp+pQdXJ2l7ETPxo1dTjHmntYjjk89My8JkxPxsXgvMrTe4dZ6tLRbts86DvjFvXYVS1cma4p59rvTYZI1+Rua2zF1ffM5McnmFr1I8+PzwWZ/tvZps0Em7cCgoyYmETCbHJTUzJafnUzI3Oy1TkxNmgdpwWCf6xqz/Z21/BIIhGddq/LmzEp8+JZvry7L54LpZy2Zjf0xWN9Kyldkxgb5W3JfKtXZnJ2Fra+vtt95661v2QwAAGiLQBwBgCPzk5z67cHom9kt6P5fNmMVVtdpMRWLj1j9wax/p0fFJmbL+wZpafNYs2FjV6tNCi4urnnSgb/HH6yqlPRHor1v/GXyg74Rc5VJRdjZXDhbR1bGOxB5XUDtjPr1wTgJjIfP6lsdcEeh7PtDX9185ty75Xe2jX6NjrfT9EIqMSzQxI+FY0oTapWLevH86ckKBvhPcjwWDEh4LSGHP2tZSVqLRiAnvnYkr036oQXCvlbTapmg/n5f8fs4sJJzd2TbBfT6fk2KxYKpw+1VxS6DfBQL9jpWtc71vv/YZ6bVA3/350Wmgr1X3Wm0/lZyQmelJSc1My3xqWmZnpiQxHpdYNCqhULMWWmXZy+Wtz5KsbGxlZHVtw7TJSe/s1X4/sidCJJby1H4j0AcAtIJAHwCAIfATb/xY5Ewq9hX7oeEEvat3PzaXkWvVvhP0asg3MT0ns6efMZeW6z9297btf7w2c+IV+j4CfTdXyOXQKvz06n0T7tdfqaEB7/hkyoy5VvPr944dc0WgPwSBftU6Fqyfw/patMY9n92SXLY2LmPByEEYFbDew+GoVrLPm5BfaduLtgwg0NdAPhgMmaAuEo1JPJ44uPIgEoma8H48mTLv4eL+nmS3lg+212edpyqV6hNV99nsjvW4t1X37SDQ7wKBfsd85bz1GVn7bPYnTpmvntFGoN9K1b32wter1erDew3u9wtFE95vbmXM7cHyqlmXJp3Zkezu3pNV9x6+smFjY+vt3/otAn0AwNEI9AEAGAKf/7Efm6wP9N0K+b2mQW/LLXkI9O1Hh3kp0Herv1IjGAqbUF/p2LfcholAf3gCfRddTLeQ25G9zKp1zGdNgB0KP94OfS9EYkkZn1w4eF+Uiy1cudHDQN+puteFaCPhqMTicRlPTMj4eKLWLidcW6C2WbucgHVcjIUT4g+NS2EvY21vRnK725IvVgdSdd8Orwf63//stMwlhyDQt84D/e613i5Pt9zRz2Yn0B+fN1+9IuD3mcVolTvQ77bqXsP7zPbOoar7ja209VxWcvm8+f6x7XJcgb7XJkI2Nwn0AQDHI9AHAGAIHBfou7XSkmfq1DMSjkRF+7TrZIBBoG8/Omwggb4G2vWh+jGBvsO5UkMXRdYrNfRxfOJx6ORuw6STO4fGXBHoD2Wg71axxlzD/d30ijX+BfOcVu47gqGo6bcfT1jvC+tcYBYhbdZvv8NAfyzgNxOJ0WhUYrG4qbZ3qu7DGtyHQhIIjDUM7p12OVpdn7fem9omZ2c7Yyrvtepe++BLxbqZwDzgycDc64H+Jy4MSYW+dS7yWqBfymXEp8cfgX5bdCLv5e/7AfMZFE8kJTU705Oq+810pnHVfRvcrYq8tt/W19fe+mf/7J/9sf0QAICGCPQBABgC7QT6jqNa8phFJiemZXrhvMSnFqzHAdnbychYYq7hZe+xkN9cAdBXT3Og3yhUbzHQd9Og3um3r1dqKHcbJmfMtd++0qr9qk7k2P/v+srJRCwkmdV75nt9RaB/dJB+TKDvpi129nfTsre9dhB0ORX6WiGrrXhiidnm/faPCfSbVd3rQrWtLFKrrXJK1rmp4SK1+7V2ORrmPaG8b/2cBPqdGpoKfQ8G+r5ilgr9Y/h9VakUdsVv7atkPCJnz52XWeszRIP6iC5iHdNzQ5+r7ttwqFWRxwL9jY2N3yHQBwAch0AfAIAh0Emg73ZUSx6t1DftWc4/LzNTyYaXve/v7RDo91OPAn03vVJDx0yv1NDJHR1zrdBXGvDqmM+fe17Gk9MyNTXdsHJSK/Q3Ht4yf6avCPSPDtI1yGox0D9g/ZmO+u3bP4cT3GtVvbvqPpEYl2is9ar7+kVqNcTvqF0OgX5X/sLzKZlJWONKoN82KvQf098HGk36z8+lZCJuve8Lu5J+dEPW7l61frTaOUsDfdXvqvu2ePjKBgJ9AEArCPQBABgC3Qb6bke15Gl22Xt2Z0eymw/tZ/ukUaBfsf5hP4CWL6MY6Ds0zM+m100wn1l/aG1K5VBLnpAuQtqkclIDXgL9IQ30Xer77Sttw+Nw99vXSR+ttnfa5dRX3WtgXU9b4tQvUntQdd+rRWoJ9LvymUszBPod8mm7uVL+qQv02+11HwxHZGJmQebPPy9R6zNmJ70hq3euyNr967JdCsnK+lZfq+7bQqAPABhyT/5GDgAAngpatf/g+vfkvT/4bbn+zu9JZmPFVMitrG3InXsP5drNO3L1+m25fuuurG70v0oe/aeTOTrm77z9T+Xu1e+YgF/pxE0uvy+Znaw8XF4z43/1+i3rPXDXfB+jQ6v2t9fvycrtd63xvyv5vVqo5QhH42ah2kYTPFpNr+G9Vtvv7GRka3ND1laXra/rkt7aNCG+aZtTKp1cUHfSGlytgBFhT3yPGj3W9YqsmalJOTU/KxfOnZGXnntGXrh4QZ45vyjzqRlJ6pU5kXBtUs+l2WfH3dUd2avWrgjTSWV9jRcWrwYAYFQQ6AMAAFPBfeuDP5Fbdx+Yy9+1OlovfXf+Ae4LRiUw/6r4JhZFwhPmOQw3vUrj1vvflnf+8H8+mLi5e/+RqaDU8S8WS2bc/VMXxFdXPY/RoO14Mqu3ZfXue9Y5YFmKhdpVAE5wr9X1u9kdSac3ZXNjTdbXVkx4n81uS25PF6stPL3BPTCEtOo+Houa9mrnFk/JxQvn5IWLS3LpmfNyeiEls9NTpuVafXCvnPB+fXNL7j1cPjTpX//ZAQAA+otAHwAA1FSPb4mhbWHi85dk4sL3S+rcizI+OWt/B8PsqMpJX2hc/InTBxM6geik/R2MCm3Js5tekc2HH8v6o1uysb7asOoe6IcyldsdC7haZ7n1o+r+w49vmvD+0Yp1bsjsHJr0BwAAg0WgDwAAjlUt5mQ65jeBgFbyaSBw5pkX5eLlH5GXPvOTklp8Vkpl/mE/aqqV8qFA6JXXPymvfvrH5NUf+mlZWHpRglGu1hg12h6DqnsMUqBBeye0ZnxiyvoM/oI5H3dbda/h/VNXdd9gTZCTpmMCAMBx+O0JAIAhUA4GT7aJfbUsa7felfd+/7dM7/Vs+vFiraFIXM5cfF0+9eM/J6cvfZ8kZ0/Z30E3fF7o11wuyOrV35e91RtSzqUPAiFdRFUDpJc//Tl5/lM/ZiZ0AKATVOi3RidYdXK9srsmiZCYSdbF0/MSisZl4cJLLVXdu9fJqa+61/D+aam6L1e8O2lZrVZZtAgAcCwCfQAA0BbtvX79nd+XD7/9O7J2/7qUSwX7OyJzZ5bkwis/IJff+Fk5c/E1WvKMCKffvo758u0rkss+zhui45NmQkfHnAkdAO0K+LgipF6jXvcvv3BJFlMTMhEWSd/9njz48N/K5sObUi4+/gxWR1Xdu9fJodc9AADDywOlXwAA4Dif+9znIovT4a/ZD/vD5xN/fM5+UKdckGr+cNGYtubY2VyR1bsfm4r9wFhQIrGE/V2R+MS0TC+ct27nzOPtrQ3x+33mfkON/v+VklRzm/aD/vFFp8UXCNqPDqvurWtppP2oTwIhsz5Bveruqn2vj5r8v426/a9jrgsobzy8ZcZcH+s4O+ITkzI1d9ZU74ciMfP9Qn7P/u4R/GPir1t4VwOn3//OO/aj/vIF4/a9Bkq6UOwAKlb9Qes9GLYf1NEWOOXagrV9d9TPcZLK+9Z+KFmDFRDfWOO+4SfJXylap4miZ3++z1yakZlE2PxsvkjSftYjquXaedbis85FPuuc5CXV/W3rPJAXGQuLP9LbNUS01304FJTkREImk+OSmpmS0/MpE+RPTU6YVjnaCz84Zp0jrddGE9Y5dv6spBYvmisbNh7elkc335NsZlN2imOyvLZuKvA30xlTjZ/L56VUtvbvSbTR0t8bclvmrs/6bPd5qb1Nyfpc0nHV3zvGm/zec0LW1tbe+u3f/u137YcAADREhT4AAOiahrxawf3O2/+UljxPCR3zB9e/dzDmmfWH9ndqdDLHvcaCBvwATpgXWnk9pRpV3Xfa6/7mvUeykR+TYqg2OaOfuV6uuvdECzkAAEYIgT4AAOipjlvy9LsK/ihVFqHrhtOS570/+Ofy4Pq7DSd0dOHGi5d/mH77AEaaVtJrVb17QXFdUP6FixfMgvJPS6/7cplWSgAA9AuBPgAA6AtttaIV3O/9wW/L9Xd+74kKbm0Z4K7g1pY9ThAyMR43Qcip+ZT9agwDbbGzdv9G0wmd8cnUQb/9cy98sunVGvo+OLI9EwB4QLVa6VnV/aj1ug/4Rn9xXQAATgrXvgEAMAS82EO/HRrup1fvmwVVC/ldE95r5bYKjIVkYnpB5s89LzNTSZmdmZLJZEJi0aj4pWz6tffbUX2bq/kt00u+r4akh3473Gss6CK6fn/g0BoLupiu9tufSJ2VYCgsyelZmbbG/8zCnKlg1ZbPb/0v37Jf3V/00Hehh35HKuW8p3++gx76wZj4wo+PQ09w99CPzVq7sPF6Jifl9PmLMjk1bf1wfklMzR3qda+Tzo163btpcL9fKMr+fkG2MtuysZnuWa/7qp6fPNoLXkr71udnxtz1j8+br15xsN8C1njFvVU4sLKy8ta/+Bf/gh76AIAjUaEPAAAG6qiWPE9UMfqoPRgFmfVHh9ZYcF+tEYuPy8K5i6aSVdtQNKpkxQB5aeFK4ARUK2WpFrIHVfdagT+9sCQXXvjEU191j/6rVCqdV08AAJ4a/MYOAACO14dgvVFLHq1U1CDk3sNlE4TcvL8q/tnnxRebIWjslwGvH+D023cmdPSKDTenf7T2iH79hUv2s/2lbTOAUUYHqyc16nV/4fSMzIT3pbJ1U1Y/+kPJrtyQcn7b/hOPNep1r59Zw9jrHgAADB9KoAAAGAIn3nKni9YrrXBa8mTK0YMw12k/4PMHTIsI/dkC4biEg0Ep7e/Zf7I3jmy5o9s9yi13/GPi1wmTRvo47k5LHu25n93OSDov8nBlzYRg6cyOec3/5tUX5ac/+0Nm8chSqSQb6SeDtZ4Yi1lv/yaJ51PXcifU9Fg4UR5vuVP1+M/36YtD0nInOmPtwt633NHwPhaNyFRyQmamJyU1My3zqWnT4i0xHjct3kIhbQUXNS3gFpZeMq3A9rY35dHND2Rz+Y6UZUy290qytrEly6sbB+eq3b2caamjn1mDVrY+C30F63xJy522HOw36/cLD7bc+Uf/8l/+y4/shwAANESpGwAA8CxtfTAzmThYbPDFl1+T57/vh82iqmcuvibjk7P2KzHMstubJhRrVMma2y/KM0vPyg98+gflU5/6CxKbmJWAn5oUoB1PS4V+o6r7l557Rl5+/ll55vyiWZ9DW3vpJGF9y5z6qvudYkhKsTMi4Qkz6bxy/5YJ8Zudq04U58S2+FmwFwAw5Aj0AQBAjRfbjlTLsvrRv5W1G38uhezGoQAmtXhRLl7+EXnpMz9p3X/WLLSL0XHv0Yr8n/7Ob8jf/Ae/LW/+qz+R3/njq3JvPSuJ6TMye+4VmVp41oT7AJ5O1UrF9Ld3et3rpO8LF5fk0jPn2+51f/PO/Ya97vVqMS8jmAYA4OlEoA8AwBD42te+Vrtu/SmVTa8fWlQ1m16zvyMSisTlzMXX5dUf+oty9sVPS3L2lP0dDLuN1fuy+fBj2Xj4kexuPx5zFYqMm3B/ful1mZg9K+HYhP0dAPXCweGt4Haq7hPx2KGq+9defv7YqnvVSq97T1bdD7lypVq7w/o3bTmBzk0AgCHEpysAABgquqjq9Xd+v+GiqjPzZ+TCKz9gWvKce+GTtOQZEaVCXrKbD2Xl9ruSWb8r+T2d39KwqBYYRcenZXLugswuvijxyXkZC0XM8wC8LxSJmfO1TsbquinNqu6Xzp1pu+r+g49uDF3VPQAAwHEI9AEAwFDSnsYPrn9PPvz2/yzX3/k9s2ih2/TC+eFpyVOlJK9V+eyWZFZvy8rt78nO5kPrfaAL6NbCfR3j8cl5mTn9nEwtPENLHsCjdH0Up9f9VDJpna+X5MIrPyivv/46VfcjgnZAnSqn7TsAADRFoA8AAIaetuS5e/XPjm3Jc/HyD9OSZ4Tsba/L1vJNWbt/xbTkKZceV97WWvKclvml12RidpGWPMAJqe91Px2tSGX9iuQfvivV7EOJB5tPaFJ1j77yDW8rKgDA041AHwAAjJSjWvKMT6aObMlTKpVM1ag7fAoFWWzX6yqlomQ3H8n6/avW+N+Q3cyaU7RvbrWWPEsyf+5lGZ8+JcFI3Py54/h8PvsegOO02uv+zNLzcvlH/7KcufiaOT/rFVYffvtfWefra5LJZA5V3TsL1Z5k1T1V/qPnoL8/AABDikAfAACMpHZa8pw6fUbOnZ6X1156zvRqdodPgQC/Lg2TYn5XsluPZOXO9ySzcU/yOdd60v6AxCdS1tg/K7OLL5iWPD6/X/w+v4yNjUkwGJJ4fFySyUmZmU1Jam5exoJj9h+GNzDJ4gUa3nfb674SSkp49pIkFjXYr52v79y5c6jqnjAd/RDwEegDAIYb/0IFAACeoX2V++G4ljyp1JwkkxMNwycMr1q//TumJU82vSLFQs7+jkhgLGRa8syde0VmrPGfnpmVqelpiY+PSzgS4b0AWJpV3b/8/LMd97pvVHUPAACA1hHoAwCAp0qzljzNejXrc08t/2iE2tqSZze9IpsPr8nGw4+faMmjoeUB+zmtDC4UtEJYnwBaNbxXEPSi6r6VXvfDVnXvNycFb6J1DAAATycCfQAA8FRyt+T5+OOPmvZq9k+eF19sRsTHr02DFItE7Hu9VSrkH7fkWb8n+b2MFItF2dvdlZ3tbdna2pS1tRVZX1uVtHVfqgRmXuCn005Xpk4/W1szxBcYWNX9yLXLGZEJzoFjv7VF1/IBAOA4/MsUAAAcb8T/QZ7f3WkaPvkCIfEnTktg7mXxT12QQHTS/g56pk+tlo6T392SzNod2dxYk2x2R3K5PSkWC1J1hfjVkDXeegtE7WdwEihE7sx4LCKfeOGCPHPxRbl4+Uflle/7AW9X3RP+tuWgF7zPe/utUuag7VDa/goAQFME+gAAAEeIhMZMC4rFU/Ny6fmX5KVP/ahcfuNn5dwLn6xVvGLk6aSOL5QQf2xexqLTEo5O2N/BoFChfzSfz2cWdo5EovLy+Vn53/9vn5Nv/PUflF//P//v5G/9Z39VTqWmzOs0uKfqHoPgDwzBQcsEEgBgSBHoAwAwJIqlSt+rtvq1KO0w2310RXYefCDV/NahFhTTC+fl4uUfkZc+85OSWnxWQpGYeb6naPNz4oLWcCeTkzIzk5JUal5m5hZlcm5JUmdflnhyXoLhuP1KYDA0vA8GQxKPj1vvzSmZmp6VmVld2DklE9Z7dS0flN/88x353fdX5Q//+E/NeiHX3/mWrN2/NtK97uEx/D4BAEDf8K9EAADgXV5oI2D9DNn0uty9+mfyztv/1Pr6Hevxmv1NkVAkLmcuvi4vfeYLcvHyD8v0wjn7OxgFhd1NSS9/LNmth6bfvsPvD8j45Lw13s/K9KlLEktwtUY/PY0td9xV9+PjEzI5NS2zqXlJzS3I1PSMxMcTEo5EJBgMHl7Y2fYH19Ly//m9h/J//WfXZXVl2awZ8v6f/xFV93jqlcu85wEAw41AHwAAoA2by3fl+ju/b6pe1+5fl0J+1/6OyPhkSs698Cla8owgp9/+2v0rsru9JuVSwf6OSDAUlcT0aZk//5okU+dpydMHo95y57iq+1g8LqFQuGFwr4H8wcLOOxnZ2tyQtdVl6+u6Wdj54XpGNrOP36/A0+5g7QGPKBQK6Z2dnXfu3r37Det4poc+AOBYBPoAAAAdKOT3TMXrh9/+n+X6/5+9P4FuJb/vA99fYd93ECQvL8m79V161WJL1mbtkuUlbTvx8UTjRJ7JOfZzPGPP8/Eczcs7E+f5vHOU5EwiJ2/xnDeZkeOT9zyJx5Y3pS3JasmSk5bUknq9fW/33e/lChALiR0o1KvfH1UgAAIgAKKIAvn92GiiAFIXQKEK5Ld+9fu99Nci3G93LC154Ng15BrlMxuUWrtB6c3bItxv5/IERUseDvcD0SW05Dklhm0Xrlfde9yusaruObivVitUyO9RNpsWA513UtsivM/nd6lUPDjYGQDMoV6vk8vpIK/HLWbzWKTG17/zne8885GPfCT8qU996m2f/vSn/7vf/M3fvK99OwAAQF8I9AEAAACOiFvycLivt+TJpda1ew625AnEz2r3wKyrVQoi3N+6/4q6zh92tORhbl9EtOSJnbkiWvJYrHbtHhiV2dvCOFw+7dq+zqr7UEfVvS8QJo/XQw6Hgyw9Tj84rOq+UMhTtVIRASHCewDz4QNyHN5HwyFaSMTo3PIZeuraY3Tp/AqdX1miRDxKj1+5/MH/+u9/+qXXXv7e81/8oz/8Ne1HAQAADoVAHwAAAGCCuCXP3dde6NuS5/zjP9RqyePyR7V7OulBgD6AF8xPb8mz/eA1yme3qFYtafcQWW0O0ZInvnSVwonz6Ld/wnBw7/CGaX71KQrFzmhV93MUn0tQOBIhr8+nVd3btPCeA/j9EP44qu7N3LJINvnBGvk0DnCAkfC2rVfdLy8t0MVzy3Tl4qoI7xfn4xSLhMnn9fT8TOch1aFQ+INXr179/Ms/+L7yuc99LqjdBQAA0BcCfQAAAAADDNOS58o7frTZkmfxXM8gAGaPojSokNui9MZbtLP+5oGWPFzJrffb55Y8vfrt621Z3G4P+Xx+CgSQ75gFrxtJkUmpFUiSi+Rx2Skai6vryi3ud3n8WtX9wT+zOqvudymTTlNye0tU3xtddW/mTNra47UyE+tJH+BgkJN4IKRX1f21x86rn9nnWlX3Qb+P3C7ngfBelmUR3qfSGVrfTNKd+4/o9Zu3xZDquw/WaDuVpt18gX8upP0IAABAXwj0AQAAZoQsKxiUNqMObclz/urAIABmU71WPrQlD/fbn1u6Sv5QvNmWJRylaDROkUiM/P4AeTw8DNWh/QQcF/2gisvlFgdVQqH9qvv4/BkKxxLkdLrU9bsmzsrYTa9TtZzXfroZ3lWrVSrk85TNZii9k6KdVFKE9/n83rH3ukeF/vjMHEzLsvbaWcz3mdE6ECKZ+PNswGPj8H7cqvtqtUb5QpG2kjt0/+E6vXXnPt24dU+E9xtb6r4gk6VCsWT6VmIAAGBeCPQBAABmxCc//d+ce/l25oMb6dIXtZtgBg1qycM4CNSDANnarPqF2ae35NHD/fbwV7LayeMLiYC43zBUMM6BXvdtB1X47Aj9oIpFUtcLZ7vqxeH0USCySHNnnyBPcJ6Ke2l1275D24/eElX3HN6bqde9027eUNUqmTcwZ1bJvKGrmV87Mx8ICcYW1cuCuK5X3Qd8XlF1z+E9V90/fvnC0FX3mexuR9X9zdv3Oqruy5UqwnsAAJgoEx8uBwAAgG7PffVr93/ovR9+Ll22/kE4Ep0PBnxXuLXLpEjeOEkcWnXjFhPFHW3BOAf+fUVR/93OliVGkFxBkmwubamTUsoQNWra0uTI9Rrtpbco+eg25XdzlC0TrW8lRQCQze2J6j2LK0SSO6z/gPpgDAgELDayeHr38j+u9c5VkhZvZ195Dkm+9sKL2pLBbB4R6vZU5174k33duXKfA/5SPi2WrVYO8Zu/lnPow+FvpaJ+T7lMxWKBCoVdUuqT284HsjjU1WHCMwJkdQNR34/8Xum3rR5Gr7p3OJyi8t7j8Ynqe75wyxwO7fl+Du16vR84vON1Uy6XxHpprps81WV1PyVXm9sLWdSHON7jM9KHHp8jj9NGksMnLqaivnZKWd3PqiRPjCSTVZsrJXUf2Kirr5vfdK+dUtkjqqn7BnWbtbgj2q3mINXyRNXC4M+YY8bhvdNhp0gsTgvLFyk+f5Zi0Yh6CVMo6CePuh/gcL/XQVXe/ivVGuV292gnk6Pt5A5tqZ/XXG3PoX1J3V/Xakc/cPfo0aPPf+UrX+k8nQsAAKALyn8AAABmxJ/9h9/7395649UffOYX/ot7f+/v/txLP/zeDz178ZkPNHuwL12gun7q/SzjwO4Uyu+m+55+z+GqLbhEgZW30fyld4p1DSdDQ66JljyptRuUST6iVCqpXrYpk9HaspS0tiz8K7vdp/7mbtd+Eg4zdNV9j+Cu1eu+qPW6z6QpmdyinZ2kGForqu6r06+6B4D+OJjnljkhn4vkzD2SU29S1FGhhbCHwkG/+B6ruo/oV3Xf3jLnxq27dP3NO62WOXzQHVX3AAAwTajQBwAAmBH/1c9+9AuFnYerjXpFlH/y8EVmtTkoEJmnxfPXyOHyiNsqxf12HqPoW6GvOpZK+e7qzBNcod+hTwWjz1al5aUztLgwT+FQgHyBoFjX86tXj7yuW1Chf+wV+r2I43EDAntJvU+yudUNXn+f8g8YECabtEJfUtRtsFEX75X2bbVVdW+3k8vtmVjVPR9M4R749XqNGo3DDzQqEziDwEio0B/ffoW++V47M1foK1ydfwwV+nrVfTDgp1DQR/FomBYTcVF1z5+bwWCQ5s9eEPuCfDZJG3dep/Tm/ebPqr8/1dVdKVfdZ3N5Su5kaHN7R1Td62fKcVX+cQb3qNAHAIBhINAHAACYEZ/+6R/7ZZvNEirlc5TdftT6g9TucIpQn7l9IQrPnRVV3A1FIqVRp3q1Iu4bRv+WO8cUrCPQ71DavEE7a7dFCMEteryB/cBGX9eR+WWxzOuZv2dkCPRNEehzmC9ZndrCQc1Q2kZuj5c8/jB5AnFyeQKiVU+tOsF2PCYN9IORBLm9QbKor4HTpb4GbpcI77kCn6vtnS63qMjvF9z3amWUz++Krxzm85kQHO6PG9wh0D+C9kDfm+j9GTRFCPTHY0SgrygNMYg2HAxQNBKieDRCiXizZY7fx/sFPojXew6J1eklV3COnOElyqc3Kbf9sDnroiyJavxJtcw5qlu3bn3++eefR6APAAADIdAHAACYEf/lz37q1znQ1xY7e7B3Bb4c8gUicxRbPC8Gv/Eft8XdZmAyiOSJ9K6ORKCvLRmkT+ChFPi5K8RzEnhdb957ozVEt/sMjfjSRfKFYuqyfah1vU86EKa3INA3RaCvNGSy1HbJ6XKS1x9uVZzzune6/ep6T4j1zuT68AfwejJBoM+hHSl1EaL6A2ER3POwYJvdKcL8ZtW93fCq+1Eg0D+CjkB/DoH+CE5qoK9X3ft8HlFlr1fdL6gXcbaa1yNa6tjVfWF3eN/e616vuuf5NKl0plV136jk1X27us3anOrr1vq1yhTW1tZ+66tf/eoRd+QAAHDSIdAHAACYEd2BfrvuwJfDPYfLK+6zO1xDt2np2+4Agb62ZJTeoboe6LcbdIYGr/ORW/L0CNNbEOibo0Jf3Q4a1T11285TIbdFcr0qbrbZ99+zdoebXN4QuX1hsQ3xQYBGo67dO4JjDvT5defKem6Po1fdu10ukuQK1cs5qhTS4n3I39f+fJnRVfejQKB/BAj0x3YSAv1WeO91UywSprl4tFV1H/T7Blbd8/ZdLJUpk9ulnXSWkjvp1qDaQVX3SmXXtIH+w4cPP4dAHwAADoNAHwAAYEYMCvTbceCb3nzQCnxdHp/6h3DzI7+9TQuHwFzV396SB4H+QccS6PcJ1XsF+rpBZ2iwoVvyINCfiUCfZH4cTfVamSrFnAj3Objnx64f1OFt3eHykccfJacnIMLRkVryGBToi0DeZhOV9e6+ve6bVffcWojPPPAG58RBqob6vuXhwcXdpBj+Xa40B9YaXXU/ipkJ9J3qe8LRPNhrGgj0x2bmQN/lsFGjvCuGenOgrwf3TqeDAl4PxWMRmo/HaCERo2g4JHrgu13OgVX3HN6nM+rvOOplbXObtlPpjl73dfX7hmmZg0AfAABmHQJ9AACAGTFsoK/TA9/tB29SKZ8VQV97mxZfKC5a8rS3aeFAna93D5hLxMKUfPSW+FkjTSvQJ6efJLtbW+hk1kC/3ZFa8iDQn7lAvx2H9eVCRt3G02KZq9j1QNRqVbflUVvyTCDQ59dSVN27nKK6tr3XvWvEXvcc0lVldT8gq9ugUm8G95L9WKruRzE7Ffrqvg6B/kgQ6I+OA/n4XILOXXlGfO6EwxFamIu1BtX6/T7RMof3A926W+ZsbqdaVfe53byouuf7j9LrXg/0JYe673cFtVvNAYE+AAAMA4E+AADAjBg10G/HbVe4TQsHvtyuo1nF2wx12tu0BHw+Smh/dLcPmONAkw8MGK070OdgRylsa0vGEVWrMxzotxu5JU+pKP5tvXqy/UBOLBygnfU74vsMhUB/7EBfx33nuSUPV7HzV8ZteHR6Sx4O9yV1XXMY1uCQvNsIgX531b1Xvfj8gbaqe2er6r7X68vB3dC97k0emCPQPwIE+mOrl3Ik8T7K5p5apblF3badDhtVcxvUKKQo7HfT+QuXRJ975nD1b5nD+/lKpdrRMmdjO0XpbK7VMmfYqvtRtAJ99XMfgT4AAMwiBPoAAAAz4iiBfjuuzuaWPLnUOimNRkebFh482etUd/6jOn0MwW6vlj8I9McLMoZuyZNYIr/fT0uLCdH2oP1AjtKoi583HAL9Iwf67Tior5R2+/bbdzi96vqPiH77jFv4tN5nfQJ9fn0Orbq32Xq+jhPpdY9A/0gQ6I+vXkiRRV23Zgz0pWq+WaF/DK1jeh305UG1XAQQjYQpEomSVWpQPr1Ba2+9LM4cYy6v/0DVvT6olqvuu1vmHId6MSvmdCDQBwCAWdXnLxcAAAAwm+f+3b++63JaV7XFieI+68HYIjl8UfGHN/9xXS5XqFqrqZe6CIMbyevadxvHErt8IEyUt17VrhlHCiyRxd0MN7vJ2ftEXM1nJIudrPEr2sI+eft1ImWyYbK+rvkyiDiQU8jTre//lXaLgXo8/51Mjv7Rv/xdbclgrljfEFEp81DWMYbLjsrqFmFrL9wnnypHa31ksdrJE4gR99dvr9zXcVV/pZClUqVKNlegeRaPw0F27mlvd/Ssru1FD+85pK+p+w+usOf30lErbJVKVv0fr6pPxEGSczqVyIM02h6fxYSP75/8nSco6neS5Fsgizeu3WoOSjVPjUzzgLEl/viBg7rTVk3eJGujQpI3QRZfQrvVHBq5h82Dzs4AWcOT+/WAt3c+eOf1uMmlfnXY7erF1rNFTjfe3tOpbdq8/RLJlSKRw0v22KXBB+yOmZy5Jz7XJfVz3xI8q91qDu9///uR0QAAwKHwYQEAADAjjAz0db0C9Xa1vSRZatyzt9mnfdIQ6HcyItDXccsd7qsfjC2o/75DHLyZ1oEcBPoqgwP9dnanVwzM9QbGD3Y5nOPgTq+u5xCfW+RMujWGDoH+0Zg50K+X90jK3RXXzRjoy8k31HVbO5GBPgf3HNRzYO/1ukX7HK7AHza4588J/szgM6rKleZXPbhv7K6TUkyJQN8auSBuMwsE+gAAMOvMdT4jAAAAmJrdH1f/MD9P9rmr5IstabfCLOJ2CGu3XqHr3/ka3bx9j+4+WKPtVJp28wUqV6oilOFgTRxk8c4RmbCNCIynVilQPrNBW/dfoVzqIZWLOe2e3vi9wD3tub99NpuhdDpFOztJymR2KJ/fEz3vOdg3KswHMAWTtQIaFYf3PIiWW6stJGJ08dwyXbm4SpfOr9DK2UWKcdsc9b5+g2o5rE+lM/RwfZPeunOfbty6R7fuPqBHG1uidQ4fEDZTFT4AAMBJhkAfAAAAhuKx1ujc8hm69th5evzaVbr4xA/TMx/8GVq+8o5mlTecSHzGBFelWqOXyB69SO7w4FY9MFvKhQzlkvdp+8FrlM9uUbnEQ2lLtLe3S5lMmpLJLUqltimbTYtAv1qtiGp8hPd9zHjoOw3W45hRcULpw827cXDP7XLmYhFaXloQ4f3jly+I8H5xPi7Ce26p0yu85+CeB9JuJXfo/sN1unHrLl1/844I7ze2UqLnvX7QFwAAAKYDv3ECAADMiJrcyGpXjx23/Nhbv0EPXv1rSm/cpWp5v+VOZH6Fzj3xI/Tk+36C5levkttnrgFzM02abusJXu8hn6sVCF259jhdfvrdOJBzAilKQwzRzaW3aG8vh6p7gBkwv3qNrr37kzS/dE5U3esH3Tm4P7+yRIl4lIJ+nwjvu7VX3a9vJunO/Uf0+s3bIrhvP2OrVjuGlmMAAAAwEgT6AAAAcCi9p3GrTcsLf0m3XvpryqXWxe3ManOIQP/yOz+iXj5M8SVz9cyFMSgy7dz+LiVvf5/yqYcd1Zz6gZxr7/4EDuTAqWeVzN32mnujw2xT5KoYICyV0xQPucVB1oDfSw63l+aXL4qqe5/X07PqvlqtdVTdt7fM4ap7Q1vmTPnA9EBmfmwAAAADINAHAACAseSzKbr72gv00tf/iNZuvawuJ7V7iNy+EJ25+PToldw8/BPMQws7eF3zgRxe1w9uvNhxIMfh8rYO5Fx85v04kAOnkmzyMxkaM3KmhdkG4k6D3us+FPR3VN0/9cTjtDQXJq9Nps0b36YHr36T0ut3SK5VtZ/sX3Xfb07KaYV2QQAAMOvwGxMAAMCM+Ls//WO/7LRb57VFQ0iuMElWu7bUSSlsa9cOKu5mKL35QL3cF8veQER8ZRzuh+fOUmR+WSzXqxWS6zVxvZvkjhz49wf9u5MiOQMk2d3aUielnCOSK9qSQSQrWbwxbWGfUkyp/zE4eOjzbwuKoj6G/QM1rJTPUXb7UWtd2x1OcXYG43A/EJkXAb/e27lSzIuvA/V4DBxKfe2FF7Ulg9k8JPWrYK6X1P8cQ/hjsasvw8G2GAKHsTI/jmNgcaiPo7k+TUUuq6+DLN4rkgkHNCv647PY+q/HKfrIEwlyO9TXzuFXL17tVpOoV0ipNAcz87wOs9H3w0a8dhzeOx128nndIsCfn4tTIh6hWDQsWuV43G5yqPfz9zG3X/08TfDn6QrVa3VKrt2hzXvXKV8s0U6+RluptKi252r8Urks2uVMq21WvZQjifefNidZ3CHtVpMop9V9Sk393Ff3/U6/duP0yXKDvvCFL/wTbREAAKAvVOgDAADAxOgtefpVcnPVPvf7RSX37Otuv5R8dEu7pwktecAIZq0zN3vLHacdf/ZNk151z+F9NBQQc0kurC61BtWePbNA8Wik56BaveqeQ3quuhctcx5sUrrmpIateSA6n0ubrureKs3GWSFmIsv1qc1KAgCA2YLf7AAAAMAQXLHPLXle/daf0ea9N6iU3/871ReKd7Tk8YU6q7P18CMaNllVH/SEljxw2pm95Q4cn/bPL26Zs3xmnq5cXBXB/WMXVmlxIdGqvu/W3TKnvdc9t8zh6ntumaMH91zRzdCqCAAA4HRBoA8AAACG4vY6HOjffPFr6uWvelZyX3zmA6KSe2V5SQz608OPxfm49l0wK/QDOddfeE6s62q5oN1z8EBOv9kKHIjZ7TZtCcD8zF6hD8bg4N7rcdNcLCKq7vnz6+Lq2dbnFw+qDQb8PQfV6lX37YNqr795p2NQ7WnvdQ8AAAC9IdAHAACAY8P91wdVcgdDvVsOwOwZqSXPymNdgdgSnV9Z0r4TQP2jRQvMEZvDcTv31PvFWUb8+aRX3euDajm4531VIh4VVff8+eV0ds6g6DeoVq+6bx9UOyoL2toAAACcSgj0AQAAYCr6VXJXq7WOqkXJt0BkN9kQRxjJoS15Vi53BWLmGyoK09UweUsb2ejh1XBslIZMlkaldZDR5w/Q/Oo1Wr14pVV17/N6eh545vC+u+peb5mjV90XiiVU3ZsFWhUBAMCMQqAPAAAAU9Veyf369Tfo5u17HVWLFm+MrJHzpIQukOSJaj8Fs2pQSx6mB2KVSpWevnJJuxVAI+HPF5gMvde9x+1sVd2fibjIr6SplrxJO7e/Q9XcBpEiaz+xT6+6z+3lO6ruuWVOd9U9wnsAAACYNJy1CgAAMCP+7N/+zg/8Hvsz2qIhLJGLJNkPDupj8tar2jXj9Pr3uZe6w24XfYpdLqe4XspuiirvXGpD+66j4bMA+MBBL3L2PlFlV1syiMVO1vgVbWGfnLxB1KhpSwbp828zrlRtJK9rS8bxRRbJElwSAVl3+LWTydF/fulVeumNt+jR5rZ264S5YiT1CYqVclr9T11bMpDVTZLDry104vVAlR1tyWA2r7oNmu+MGKmao4ZcUV8nl/o6BbRbzaNRyTS3VfXxWUz4+P7Zp58mj9Om7evMNZtEKavrNqfuZ1XWxFPi66RxeO9QP0u8Ho96XRJ97Xm5X3s3uV4VBxzz2aQ4w4gHt/sSF6im2Kis7qeqtbopgno5c098PknusLoPPavdag6N3ENSSup24QyQNbyq3WoO1eQtsspFdXtIkEW9mEWpVLr38Y9//Jy2CAAA0BdKXAAAAGaErChZ7eqp0ti5RX5rmWJhf6sli95//bEf+rjobez2BbXvhlnEoVm/NhTxaJj+9ic/TP/yH/139M8/+9/Sz33qo9o9cJqYveXOzDgFLUa6B9VevrBKj1++0BpUOz8X6zurRR9Um8rsUcUaorpvWZwVwqH+1sYaZXN7qLofkiw3XyMJbW0AAAAmDoE+AAAAmBq3ZOGWPK9+688P9F/3eH0i0L/8zo/QxWfeT/GlC9o9M6ZHS4fTTpGrFLRX6fzSXCuIe887nqJf+8Wfp7/5D/8L/aNf+UV6/w8ZesIKmIg+FBdOHrkx3sEavWXOYYNqHQ679hP7hh1UW6sdw9k5J5TVat6owSrhgAwAAMw2HC4HAACYET//05/8jMthNfS8dckdIcl6MPxgSsGgdidtev37SiHJ/xXXS/kcZbcf0ea9N0RLBLvDJS6Mh6sGIvMi4He4POK2SjEvvh6GW51IjubPdON2EMStPowkSWTxzmkL+5RiSv2PwcGDZO3bbogURX0M/PobrNdjUGQqbt6knfU7ooJfrtfIG4hodxJdOrdMH33vD9OnPvgeMaByr1ikdHbM1kg2j7oK+gTG9ZL6n2MIfyx29WXoMwyYq9NlfhzHwOJQH4dDWzAPSd0GG+p7QrLY+r9OU6TI5ea2atLH97Gn5slus5DkDPRtqzYtvG6VirqfVfVrf8Kt17iqPhwMUDQSong0Qol4hGLRMPl9XvK43SK455C/Gw9a5/A+k9ulnXSWkjtp2kqlxYBarsYvlcsiuFf6nAXS/OxTTPnaKeWs+HzixyW5zHWmWr2YFevWjI9NKe6ou/W6+rnvExezqNfr2d///d//HW0RAACgLwT6AAAAM2LqgT6Hy1qwbpTDAv12xd0M7azfFRX7SqPREfa6fSEKz52lyPyyWK5XKyIQ7mdQoE+VPfV/oKwtGASBfs9AX4QuKh6cvJfeEgdy9CG6Lk+z37zf66G3P36ZfvrjH6R3PHGZfB4Pvf7WHXHf0BDo7zNpoN/gbZDPZEGgPxYzB/qBYEjdjt3qPj1NtsACOR120eM+FPSJlluLibhonxMOBcTBO67Kt9tsB8J7rrqvVGuUzxcpk92l5E6G1reSogqfW+VwWy++v65+X7/wvhcE+mMy8WNDoA8AALMOgT4AAMCMOJZAX/2ju1+Y1y9Yn6RRAn0dh/X9wl6rzSGq9uNLF8VQw0qlSrXywar9gRX6PBAXgb6xDgn02+lnaaQ3m0M07Q6nWM9sPh6jd7/tCfqvf+6naCEeFbc9WN8UXwdCoL/PpIG+pVFRXwYE+uMyY6DPgbzH7aJQMEhziys0v3qNouHgUFX3enif290Tg7O3kzutqntulXNY1f0ozBzoy8U0SY1qM5h29h6qPS1mPtiAQB8AAGYdeugDAACAeXBgdwTpzQd097UX6PoLz4mAv5TfnyPsC8Xp0tPvoWc++DO0fOUdIuAfRO/PbLf3PmMBpour9nm2wvUX/pJuvfTXlHx0S7un6VMfei997r//VXruC/+K/qu/81N0cfWsdg8AHCd9XxrweWkuGiQ3FUjefo2cpUfkt5ZE5b2ue1Ct3uueW+NsJXfo/sN1unHrLl1/847od7+xlTrVg2otkrEH2U88CXEIAADMJlToAwAAzIjjabkT7ludezwV+gf//XH+XW6vk8+mREueXv3XuSVPZH5lvyVPQyG3P9yzP3NpNymqwg2FCv2hK/R7GdSSh9t36C15PvBDz5DDbj/YkgcV+vtM23JHff4mroBHhX4Th/ftLXPm52KtfWko6Cef10uR+LzY9/J2y2fa8IE5vs4U9f3HVffZXF60zNnc3hFV9+0tc447uDd1y51SRt031NTHpe7DUKE/tFaFvvqaSQ6vduv0oUIfAACGhUAfAABgRiDQH8+gsLfVkidxpm9/Zu7Rj0DfeAee/wiBfrtBLXm4nUfPljw2j+jhvbwQpxX18qn3v4P+zifeS7/8c5+g779+ffxhu6NAoD+Q2QNzsz++Tz69QDbrZAN93lc61Uv7gdDF+bi6nYVaLXN69bpn1bpCDm+YbP4ElUtFKqTXKZtULzXnUINqjxMC/fGYemBvPkUW9TPGbIF+uVy+9+/+3b/7n7VFAACAvvqUIgEAAIDZfPH3Pv98yOv4oLZoCEv4XN9+svL2683AykC9/n0j/l2HyyP66gdjC+r1g3/MV6s1qtZqoiI0u3aDStkt7R6DSBayzj2uLeyTkzeIGv2H+U5En3+bKQ2ZGsnr2pKBejwGRa5SI3VTWzoabq8UjC2Kdd5tr1CkzVSW5mNhEep3+/u/+U/o1r2H2pKBrG71vd87kOP1QJXRD26MxeYlyW6egEvXqGSa24LVRRbHfosWszD74/tnn36aPE4bSYElsrj3z1YaBgfyDruNvB4PORw2cjmd5HY5D7TH6YVb5lRrdXVfWlT3q3UqVyqihU57lX2jlCZl95G2H3hCu9U8qpuvklVSxnrtjCanb6sPsECSJ0aWwKJ2qznImXvqfmtXHKi3BM3V8qy6fZOsjQpJ/gWyeOPardO3t7f30qc+9am3aYsAAAB9oWkcAAAAnDoH+q8nt2l9M0l37j+i12/eppu379HdB2u0nUpTuYEe+rOO2y/x+n7p639ED268KM660Pm9Hrq0stgzzOcwEuAksPZrKdVFaTTI63HTXCxCy0sLdPHcMl25uEqXzq+I6vtYJCzOZOoV5vP20t7r/q079+nGrXutXvfcOocPkp7GXvenmmS+pgBWCe9BAACYbQj0AQAA4FTjsHf9/u2+YZPFHSZr4klRnUlO81XenlgGhUC9BifrgzdT6UzHgR0evFlWbweYdXOL6v6rjT6o1uN20kIiRueWz9C1x87TU49fpvMrS5SIRyno9/WsxNe3l9xeXmwvHN7r24t+IHQ3Xzgxg2q5Oh9GhwM3AAAAxkGgDwAAMCNq9UZWuwpT4AzEKbB4hRau/AjNr14lt89cPYFhNHyWBgf6N1/8Gt1463bfKuL/8y/+F/QTH3ovLc0fnHEAxwd9Qsfn87jo3BPvoSff95N0dnm1o+r+wuryoVX37Qe72qvuHzzaENsLh/enIbyVTFhpbmYWHAgBAAAwDAJ9AAAAgAGcSpHORNx05eK5ZuXq/III9C+/8yN08Zn3U3zpgvadBrAgQDoOstw/jPS4XfQTH3of/V9/5RfpH/2fPkMfe+8Pa/cA9DK9Qw8c3F9cXqBL8z761NsW6B/++JP0e//jZ+i53/0fxf08HDoSS/Ttf8/BfXfLHK66bz/YdVKq7gEAAABmGYpdAAAAZsR/+Df/4o/jQdez2qIhTDkU9xgGw0o+HowX05Y6NXIPSSlnyWqztwbpun0h7d596c37tL12j8p7Ywwv7TcUd+ctonpZWzKIWYfiHte/rbLEr6kPoffBE7tFoXAkSi6Xkxx2uxgOymHol57/G/rr7/6Avvndl7TvPCIMxR1IqWTU12EWhuK61cfXez1OEof3PMj5bVfO0UI8TJeWF0SYr8+CSG/eE7MicqmNtiHgi2IIOFfdHzao9jiZfSiuvPWK+GoJrpDkMteZWaYeimvmx5Z8Q/1PjaSguQYdZ7K7L/3UT/44huICAMChEOgDAADMCAT6xhkm0G/nC8VEOMYhWbdquUDJR7dEr3a5PuTjRqBv2kBfTt8hn9fdd33vFYr07//iqyLcv3XvoXbrGBDoD3SaA/35WIgWOLy/el6E9gvqMof5vQY5d6tWyrR2703Kbaj7EpVn/irVJKepquzrhR2S8mvafgCB/iiqyVtklYvqZ1iCLOrFTBDojy6dTn/9b/2tv/UhbREAAKAvBPoAAAAzAoG+cUYN9NtF5pdF2MuXbvlsUoT7XCU7EAJ9Uwf6VCtoS4PX91t3H9CXvv6f6N9/6avaLSNAoD+Q2QN9qmaoIR8t0D+s6n4QveqehzhztX131b0eSvNwbzMFmAwV+uNDoD8eMwT61Wo1W6lU7mUyma+XSqV7hULhJfXrS5/97Gdz2rcAAAD0hUAfAABgRhxLoB9c7htYHEewPrVA3zvXNww5LNDX7be1WBBtLbpt3H+LCpkNymdT2i1tEOjPTKCv4/UdmV8R67tXC6aRW/Ig0B/opFXoc3jPgf04VfftLXNEeK9eeHlQ1b2ZA31U6I9PTr0pPiMQ6I+munmdrFQ/tkDfYrGIdm0up0O0b/N5vWJ5Y3Pz67du3/3isz/zt39H+1YAAIChINAHAACYEQj0jTOJQL/dMC15ko9ua7eoEOjPXKDfbtD65pY8f/glbsnzEr1594F2aw8I9Aea1Qp9veqeA3sO7/UK/FGCe/5aKJaa1feVCtXU20aFQH98CPTH0wr0zfjYtl7jHashgT6H9jxnxetxi/De7XSSw2HX7u3v1dde/8Irr9/4wj/8h//wG9pNAAAAfSHQBwAAmBEI9I0z6UC/Hbdo4UpuXyiu3bKPB+mKwZU7WyLQ1qv4vB4PORw22rjxbZKrRe27DYJA/8iBfruxW/Ig0B+IA33eDygmDfT/n/+Xf0CPNjbom9+/TguJBToTD9HTV5oB/qhV90YMqjVzKN0oJEnJbyDQH4OZA31TtwOaQKDf/XntcjrJ7XKKMP8wvL3z9q0fqKvWamL7T6VS6KEPAABDQaAPAAAwI77w//pn/3h1zvdb2qIhEOgfdNRAX6e35OHA12pzaLc2yfUqVeuKCAfaw4CbL/4VlfIGt9NFoD/RQF83ckueHoG+Xt196ewcfemrX9FuNRgC/aGcibjJ47DS+3/kXaJlzrBV96xa5fCudiDMM3JQ7UwE+hY7WeNXtVvNA4H+eE5SoM/hvdUiUTgUFFX3Drv9wOd1Pxzct59lk1e/9tvWMRQXAACGhUAfAABghvzz3/7tlXjE9evzIdezLqd1Vbt5YqYe6Pf4909KoN9uUBV3OwT6sxvotxumJc/NB1tUqFBHT/VLK833x8Z2iv72P/ysuG44tNzp0GtQ7ZmIh2p7W6J1FuMDN73OwjG66n4UCPTHI8vqukq9Jq4j0B+NqR9bn0C/Xq+Tz+sZq2XOJLb35M7O13/m2WcR6AMAwKEQ6AMAAMyYz33uc0GPx7P61JVzv+W11p4tZDa1e44Ogf5BRgT6OqvNLsJ9DgOtDu+Bqt1KPi36S1NlV/sJAyDQNzzQbzfswZx2CPTV7bA1dNa4QD/gcdKF5cWRBtWmN+8122alNsRZGcGFS1S3eMT2a3TV/SgQ6I8Hgf74zPzYLi7PU3r9Du1WJQpGFybWMueo2/v29vYXf/Znf/antUUAAIC+EOgDAADMiP/v//r/+MdXrj7x7OLyuVX1D8+OHh4b99+iQmaD8tmUdst4EOgf1NhbJ6VocP/yAaE6U+Sq+hhSpJR3J/9aINA/1kBfd1hLnvbAaG1zm/6b/9v/pN1jsFMQ6LdaGS0v0KUV9aJ+5QB/lF734uBboUQ19Su30KjxforDS0+MLP7hD9YcFwT642nuh14X1y3h8wdawk0bAv3h8Hp02CQKR2Ki6j7oH2496ts7fx2mZc5RIdAHAIBhIdAHAACYEX/w//mf/rf5sPszbl9QBIE923fkMrSbfEDJR7e1W0aDQP+gYwn0VdbEk9q1fe1D97hykIMIubwrKoLHXccHINCfSqDfTrTkmVuhmsXTCojbA6NiqUy/+//7I3rz3kPtFgOdsEBfD+/fcfWcCO4vqJfDqu51epint9AQX/tU4co7WniJQH9kCPTHh0D/IJfT0dEyp5rPUD71UJxF0/r96ewl7bv3dW/v02iRhUAfAACGhUAfAABgRuiBvrYoDGrfkd6832oFMSwE+gdNM9C3FtYoEkv0reLmdcyXI52ZccjZAfLWq9o1A53yQJ9JnuihQTBX6v/N91+lr73wonaLAWY00NeDe7/69e1Xz4nWOZdX5ikRO3zgJePgrr0Klyvwy5Wqdu/hzBzom71tDAL98bVCc/8CWbydMxymzehAv/2A9zAtc+RaVcy9yGeT4jOTD6T6Fx6jck0R23u/g3XHCYE+AAAMC4E+AADAjOgV6Ou4fQdX7HPw63B1hnHVckH8EcvBfrVc1G7tDYH+QdMM9OWdt0QgwgYNVtXXcXrzAcn1EV8rBPozE+gzu91GDrudfvDGm/TdV67TN7/7knbPhJg00P87H30HrW9u0De/f4MCoTkR3rcPqh21Zc6kq3BRoT8+BPrjq27fJGujcuIDfQ7vOazXq+55H8hh/mH97vXtnb/u7hX2W2StN/eblpC5tgcE+gAAMCwE+gAAADNiUKDfjoPfZrh/MFTiyjQ93O8Fgf5BZgn02030zAwE+qYP9HmGgt8u0/LFx3sGWP/7X3yFvvmdl+gH129qtxyByQL9xViIErEw/bef/nG6tLJIe4UiWSRJBHuH4RDPiMGVvaBCf3wI9McnJ99Q/1Mzd6A/wmPTq+4VRaFgwC/Ce5+6rQ87qHbYg3XypnaAC4E+AADMKAT6AAAAM2LYQL9dfOmC6Bfbq11LM9hf72jXgkD/IDMG+jr9zAwO+K02h3brPl7H22v3qFba1W7pAYH+TAT6jVQzrB90MGdjO0X//i++Sv/+S1/VbhnDlAJ9vWUOV91H/U5yFtfoTMRNSyvNfZgv1D8Q1IM8Du05wJtG72sE+uNDoD++WQ70R22Z0+6oB+vMGuhvbGx+8ed+7u8g0AcAgEMh0AcAAJgR4wT6umEH6eqBut7Wo/309lvf+yrJtYr2U8boGegfEmpPwqwG+u0GnZlRymdF5X7PQboI9Gcq0NfxwRzepvvNV/jS839Df/3dH4zeksfuI8nm0RaMweE9t8l529XzolXOQizUc1BtevNe62wT/eCVLzyvbiwOUYUrwnsR5k2/97WZA/2OUNqEgX5tb5ssxU31wSHQH5WZA/2Ix0J7qUdUUexk8yeO1DKHA/tCodRzaPg4EOgDAMCsQ6APAAAwI44S6LcbVOFbKhbJ4exdIXfzxb+iUj6nLRkDgX6ncZ87n5nB67dXVfOBljx9An29erLw4HvaLQZCoD9yoN9u0HwFNlJLngkG+nrVPQf2HN5z+5ynr5wfqtc948CeA73d3V3afus74kwdyRVW9xNnte8wDwT640OF/vjMFujrnxsc2C8tJg4N7NuN0jLnqFqBfsRc63Rtbe0LP//zP/+L2iIAAEBfCPQBAABmxKQCfd2gQbrd+I/qB699C4G+gSYZ6Ov0ddwr6OVBujxEN7ezRXXfWdGX3Od1qxevVkHZrJ586et/pP2EgRDoHynQb3fkljxjBvrtLXPOxJvBfa+q+16GCfLk9G2xHhDoj87sgT4q9Mc3zUC/vWUOqfuojVs/IIdVokhiqXlAOdz/8Ry1Zc5RIdAHAIBZh0AfAABgRkw60G/Hob7oUx1O9A3WjiNYR6DfaZLPfVDQOwgC/dkK9HVjt+QZItDnNjl+j6ujZQ4PrB1GtcrBXW3kIA+B/vgQ6I+vXq+RtPOGuH6aA31FaYiDvYe1zElvHGyT5Q7Pk6xIE22ZcxRipkRSmymBQB8AAGYUAn0AAIAZYWSgr5MCS2Rxh7WlgxqFFCnljGEBOwL9TkY8d6vN3jozo1fQy9orph+98rx2q4EQ6E880G83UkuetkC/vep+IR4Wfe9FmD9C1f2kBtUi0B+f2QP9Rn6LlMKW+uAQ6I9q0oF+e8scr7qdjzqotr0gYPvGt/jNZ7r+/gj0AQDgJECgDwAAMCPMEOjrLI0K2ep5KmXWtVsmA4F+J6Ofux70usOLHRXT5UpV+w71MSRvqC9CTVsyCAJ9QwP9doe15Pnmi6/SfCLRd1BtL8fRPgOB/vgQ6I+vue2p+0DVSQv021vmOBza1x5V970Ms82brb+/TmwP29r2gEAfAABm1OGf1gAAAGAKz37q4x8MeO3v1hYNITkDJNl7B3g2pUKJ+Xman4tRIpGg+MIyza9eFafVs0oxL74eBQdNks2lLTUppTRRo64tGUNyePv+Ua9U94hqJW3JOL0OKCjlnKFherVcpL1MknJ1lwhmKtUa1WVZu7fJ4o2J16del8nS2A/6J0qS1H9nTlvQKAopxaS2YCzJG1cfgkVb6qSUMsYf0FBJdo+6/fm1pS6KPLGDSjwHI7v9SAxHlus1ccaG3dHc5vxeDz1+6RytLMYpGvKT02EXt+s4xOP3SKVSpVQ6S+lMjtY2t2k7laZsbq/jPaSo62+S9PXA22nf12mKlJK6ftT91MD1OC1t25LkCh3Yx06bUi00D5pZHWTxRLVbTUJseylxlQ/WSNbObWLaxGPjKnj1Pcf76X6aLXM8FA4GKBoJUTwaoUQ8QrFomPw+L3ncbrLbbCLkb6dv88VSWWzvyZ0MrW8lh9rmh31sx463h4K2PbjD6jp1iOtmkMvtvfR//B9/+CfaIgAAQF+9/3IBAAAA6FJJP6DtN79N+dRD9Q/i/dCX+3Sfe+JH6Nq7P0HxpQutgH8cHDpMRdvzgYM4RHXFz5N3+R0UX31CVPbDbOODOZv33qCbL36Nbr3015R8dEu7p0mvwE2lM7S+maS37tynG7fu0a27D+jugzXayWRpN1+Yai9sU5JMXi/V50wUmE3ugLYv1tYrB/Iup4M8bictJGJ0bvkMXXvsPD117TKdX1miRDxKQb+vZxud7m3+zv1HrW3+waMNsc1zgD/yNo/33NC6jqcAAAD0hU9XAACAGfEzP/HxT06zQp8r5eVqifbSW7T94E2qlpttSFyeZjWq1eagQGRe9OnmwJerf0et2u/17x9Lhf6AqtqpVugfR3V4r+r4Nj5blZZXzrWqOQOhqDiIw61bWHFXfYxHhQr9Y6vQ70WcqaFu1xzwF6oK7eSKov1OOpujfKFIpXLZkKr7UdQLabIoNXNWwKtaFfp8BoGJWngI7RX6JqtIZq0KfYvN3BX67qipKvQ5vF+9eIUWVy+Tze6g+fn51n46EgqKqnuHw36g6p5xeM9V95ncLu2ks5TcSdNWKi1Ce32br9XqR9rmWxX6rv6/V0yFiSv0s9ns1//oj/7oL7VFAACAvnAMGAAAAMaS3nxAd197gV791p+JILCUz2r3cG/2uKjaf+aDP0NnLj5Fbp+5ejZDm0POisit3aSbL/wFrb31A8pn9wN2h8urrtunxTpevvIOMWQXZl9+N9cxQ8EsrBaM/oLTy263kVLNi3kD1tI2xf02urh6tllpb3dQPLEwsOo+t5dvVd2/fvM2XX/zjjjThlvn8Jk2vM1P+mwbWZ7eAcChmf2MGgAAgD4Q6AMAAMCRcCX+oNYdXLF/+Z0fUS8fFi15YDbxAZxbL32Trr/w3IF1rLddevJ9PyHmKuAADgDA6PSWOaGgv6NlzpWL5+ipp99GZ5eWyG2XaPOt79Pt7/8Vbd69TqW95sH0QW2yjtQyZ0xWKw7CAQAAGAWHpAEAAGaEGVruHNb6pr11B7fk4YGbXMnNePAmt+QZNEjXlC13asVmOwiDTa3ljqrXv61TCtvatSY+gNO+jpnedslisYqzM2KL50XFPodTQ7XkmXbLHU+EpD59nk9Dy512koMHWI4/B8MoaLlzBGi5Mz4DW+7w/pEHTwcDfgoFfc2B81rLHO5z36tljtsfonDiLEXOXKKq3KDkg5u0s36HditE25l8R8ucabfJUvJb/F/TtdxpqK8L6etUfb+ZqY1SLpd7AS13AABgGKjQBwAAAEMMU9GtD9JVJJt2TyeuVATzGtR2ye0LoSUPTAxa7sAss0gSeT1umotFaHlpgS6eW6bHL1+gS+dXaHE+TrFIeKSWOTdv36Ncdf9zs1Tcw4DqIVmkGWgFBAAAcAgE+gAAAGAortpfu/UKvfT1P6IHN16kXGpdu2e/D/vbfvSnKHHhbRSLxzvaDHDYwSEHmFt726WbL/7VwAM4fIaGxUwDEmEmyA2EcGB+/VrmPH7lIp1fWaJEPCqq73t9rpmtZQ4AAACYFwJ9AAAA2NeQtSs9TGB43KCK7oWz5+iMeuFKRZ/Xc6BSEWZDKZ8beACHA/2n3vtjdPGZ9/edqcChmM+D0B9mBw44jE82cUDNbeP60cP7aDhESwsJUXV/5eKqOBB9dnF+4GdZtVoTrXG2kjt0/+F6R3i/sZUS4b0Rg2rB3GZikDAAAJgCAn0AAAA4dj0H6bb9HdteqdhwBLRbYdboB3C47ZI4gMPDG3k9qxdfME5nLjxNz/wot+R5Jy3MtVWzPnaBVpbQogf2mb3lDloCjc/a1iPebDjQv/auT1L8zEUKBAKdLXPU/dSlcyu0mIhTOBgYuWXO3QdrtJ1K026+gPAehEajvl/lAAAAMAACfQAAAJiqfDbVrOj+xh/R7bduHqhUrNtDZE08SVJgich5csN9ZdDZETOO2y6JAzjfazuA0yYyt9SsZvV4yNpnOC2cbmavgDfz4zNzBTwz0+Pj/bBSK5FNqYqDjFx5r7eGW11ZpUQsSkGfj9zOHi1z6jKVShVK7aBlDgAAABgLgT4AAMCMqCuNE1+5ld/L9axU5NYGnlCC5s49TWeuvY/iZy6Q1dq/FQKYVz6XorXbzQM43JInn01q91CrmjVfLFIqu3eiD+AAwHQdaJmzukxLUS/5pTxVtm/Q9psvUCm9RnK9qv3EvmqtJvZTW6kduv9ond66e59u3L5Ht+49oI3t42uZox9IkibQEm/SzPzYWnAAGQAAZhQ+wQAAAGbEsz/+sQ+GvI4PaouGkBx+9eLRljoppQxRo6YtGUNyBkjqGpjqlPcoEQnS0tIy+X1e8nq9FIjMU2L5MlkcbuJOF5VSXvvu8Uh2j/pv+7WlTkq1QFRTLwaTvHGSpM5ai+N4zZnFl9CuHaQUtrVrk1cq5Ci99YDS249oT3bSZnJHBGHZ3J6oZLW4Qs3HxoGQohj2WkieGEl9gp3jWgeD3oOkyKQUd7QFI+jV5dLAfcBUlVLqeqgPfp2mSFbXj0VdT5LDJy5mIon3j/r68XV3WN2cHOK6WUjVPXUfW1R3RDayeKLarZPFwb1TvXBrHA7w49GIaJXD1/lzhdvl2G02cvuCFJ47KwZ5s6y6b+IDkHzgsUwuSqaztL6VFO3g9P1UpVqjuqy+xryPOm6FLfFFUveVks0lrpuFnN8Wn8+me2zt24O3/75/GjKZzNe/+MUvfkNbBAAA6AsV+gAAAGBqxVySHtz4zn4f9rZBunOLq3TuiR+hq+/+cYqdvUxub1C7B2ZJtVzo24pCnJ0RWaS5C2+n5Sc/IM7OgElD//ejshLaqJhBe9V9ay7HpfOi1/355aVmyxy/TwT43dpnt6RyRdpTvFT3zIv7+Myi1M4OWuaMwCpN4QDHEGQZ6w8AAGYfAn0AAACYCdVKkTbv9+7D7nQ6aen843T5nR+h1SeaLXlgtnEva5+ySytzgdbgyUgkJnpZi0G6l99BwSgG5wKcGCO2ZunVMufKhdXW/qI1l6NrUC0btmUOwl84TjhWBAAAw0KgDwAAAOYx5GDYQX3YQ9E5hL4nRG77Pt16+Zvi7IwDg3TnV8TZGU++9ydofuUqzs44MlTpg3lxcO/1uGkuFqHlMwt0+cIqPf7YhVZ4z610uOq+O7zXq+4zuV3RKufOg0f0+pu36ebte3T3wRptp9K0my8cS797MAeznjkAAAAwCgT6AAAAMNO4B/thoe+1d30Cg3RnGJ+d0X4AJ5da1+4hstocNL96FWdnAMyoSGKldeB12JY5DvvBfXl7yxwO79ur7h9tbImqe7TMATNrNOr7PQUBAAAGQKAPAAAAJ8Kg0Nfh8oqq/Sff95Oo2p9xfADn7usv0Kvf+rMDMxVwdgbA7NDD+0A4RueeeA89855PHqllzvW37hxomYPwHgAAAE4iBPoAAABw4uihrz5Il4eu6ga1auGAqb2tA/dkjkVC2r1gGGX00E2Wa31nKrDuszMcTo92DwAcN71lTsjnImt5m+TkG+RvZGjObxcV97qjtMwBAAAAOC1GmzwEAAAAU/Psj3/sgyGv44PaoiEkh1+99A4+lVKGqFHTlozR698/yr/LoS/320+u3RZ99uV6jbyBiLjPYrGSLxSn2OJ5CgZDNJ+Yp0Q8Knoxc1UoB1B2m42KuR3xv2E0yRsnSeqstTiO15xZfAnt2kFKkZ+78T2HDzwGRVH/7f3ZCIPw2Rl7mS0R8OsHb1wev/jKLXkCkXmKL11U13eM6g2FKsVdcZ9O8sRIUt8PvRzXOpDsHpKczcd8gCKrr8WOtmCsQfuAaVJK6vNv1Ae/TlMkthOlob52PnExFfH+ae7DxHvdwNZjfFDU6bBTMOCnUMBH8WiYFuea1fa8bw0GghSfXyZfMKJuq82zqvhgXL1aJovVQTJZKLe7R9ndPG0mU7SVSotqew7tS+Uy1Wp1dddwjD3Q1fecUkqLq4P2E9Oi5LfEV8kVIsnmEtfNovXYPFH1PecQ102hfZ2qnzvdn7vTtLOz89yf/umffltbBAAA6AsV+gAAALBPGTCU1mRBxqgGDdJ1+0I92zpwdSi3doDZ0X52BgeF7Wdn8AGc89d+qNWSxxeMafc0tffvXlpIiDM0eNAmABzE24td3W+2n9E0bMschzdEwcVLtPD4B3mBkmu36Nbr30HLnBNClrHeAAAAjIRAHwAAAE6d7kG6/do6cE9mvg1mjz5T4fq3/1K05GmfqcC4Jc/FZz4gWvKsnF2ic0uL9PhjF1phJFcTc5hvteDXZTjd6vV6q2WOHt5fvrAqtpcrl863BtWK7WWMljkNyaZ9t/nIJj6g0BGam+yAu9Vq3v2mmdcpAADAsPAXCgAAwIyoy8r+9E+YCD30fe3Fb4jK0EcbW6IytFAstSpDuRWMFFgicgbE8rGa8bMizILPzuCq/V5nZ/DAZG4D4vN5tVv2cRgJcJq0n6WyMBejc8tn6Kmrj4kDXeeXl1rhvcN+sG2PHt6n0hl6uLEpBtXeuH2v7751Fpj5gJ5FOsbWQyNSGubdd1pN/LrhMwcAAIaFQB8AAADMzQShtsUdJmtohSzxa2QLzJPVhD3GTxqjelV3n52h49ZK+WKRtlI7dP/ReiuMzBdL2ncAzCarzU7WHn3zew0BH7ZlDgf33dsLn9Gkt8zJ5vZORsucQW3oAAAAAKYEgT4AAADAAIpcbQVeVy5doCfe9h568kc+SReffj/Fz1zQvgtmjX52Blftv37zzY4WIDyAUw8jLcElMdQRYFZxoP/k+35K3Wd9gBJzcbEvu3bpvGiZ0151P0rLHA7uu7eXcaHfOkCTouBMTAAAGA4CfQAAAIABlPIubbz+Dcpv3aZqYf9vbR6weubi030HrMLskOv9Bx9LVgdZ/ItkTTw5vdZLAEPiqnulVqJGIUm2ala0zLm0uizu431WIrEgwvt+Q8Cn0TLHzP3WO0jTP1sMAAAAgCHQBwAAABhCcu22aNVy88W/6mjVwtoHrKJq/2ThfuKhoF/0E79w+Ql68oc+JNbz/MpVcnuD2ncBaKTj+/OqX8scPpMoFvSSUkzRre/+R1p76wcHhkKbqWUOKvRhWoxq7QYAAGA0fIIBAADMiJ/61MfeHfE7P6ktGkJyeNWLT1vqpJRzRHJFWzKG5PCrl87+9Mfy79pcJLl6h7NKrUhUzWtLRPVahfYyW7R5/w2qlgviNpfHL75abQ4KROZpfvUqOVzN51Ep7f/sIJI3TlJXGHgcz53x4N9+lAIPkDV+iGCvx6AUtrVrxpI8sb7BTiX5FrktdfK43RQIRkSIyuuZq51ji+fVrzHR0qS4l9F+YjyS3UOSs/k+OkCRSSnuaAvG6rUNmoFSUp9/oz74dZoiDs9JaWiv38EBy0fB7zmng/vgW2guGqGgz0tnF+cpEY9QOBggn8ctDjzZbVb1eyXxfgxEEhRfukhuf4T2cju0/eANsc8qkpfWt3dEtT2H9lxxX6nWqD7FYZxSRd3P1cvqDtRBFndEu9Uk5Kq6H25u25J37sA+eqoURds/q4/NHRZnE5mGmR8br9NSc50O+uw7LtVqNVssFm+kUqnndnZ2vvjlL395S7sLAACgLwT6AAAAMwKBvnFGCfTblQo5yiYf0c7mfbFsczhF2MvcvhCF5s5SfOmCCIu5rQsfDOgHgb45A30Ofkq7KbGe09p6tretZ4fLO/ZBnHYI9Ac7LYG+Ht4HAz4KBfwUj4ZpIR4VA2qj4RB53C5yqxcO7rtxyxwO53O7edrJ5kR/+0y+QqW6RFK5+f6pWdXHZrGJ62ahVHabgb7dTRZXSLvVJBDoj6f9sfH+tcdQ5mmRqxWSKs32eccd6Ldv326nI/vW7VufvX79jc/84i/+4u/84R/+4Z8gzAcAgGEh0AcAAJgRpyLQ57Cu6983c6Cva8g1UbWfWrtN+WxSVMjqVfsWi3Woam4E+uYN9KnR7LEva+uZ2y/xeuaDNN7AfkUxH8QJz52lyHyzZ3m9WhE/MwwE+oOdxECfwz0O6LnKPhoOivA+EYuI8N7v84r7HHa7+L5u3DKHw/tMbo920llK7mRoY3uH0tldyheKol0OV90riqLun9TXTQv0JXfUVOEqawX6NicC/VGYONBv8BkfvE2oeKi4md5zklI7lgr9w7bvgN/nunT+3CdXzp755Ec+8hHXM297+42vfvWrxn/gAwDAiYBAHwAAYEacjgr9g//+LAT67WqVoqjm3rr/Bsn1KtkdLnFh3dXcHAjz97PuQJ/DgEYpi0D/GAwb6LerquutvfUSH6ixq+uXXyu+7tdanvhDcbGeD6van16g375uJXX7Q6A/jkGBvl6Vy+FeJBTUWuYkKBGPdrXMsR0I79ur7rO7e5RMZ2l9K0U7mdzQLXMk9f2rlNLN6wj0R2PiQJ/fG5Iempss0JfEPsucgT7VSs3fK1STCvR5+3Wql1Z4HwnS4vzcUNu3+nkxHw6HP3nu/LnPXrly9evPPfdc81QwAACAARDoAwAAzIiPfPBDLq/L9ozTbp3Xbpo4BPoHjRrot+NK/J2Nu2IgpdJoHKjm5mG6ejW3xemncCgo2mrEohFRyVfeTY7VvmVUItDuE1Qh0O8d6Lfj1kvprQetljwuj4/4zAzGB25Cc0viII5odaI0Wgdx2pmjQh+B/rjOrl4Q1fSVeoNc3mDPljm8vN8y5+D21qtlzlZK3YdkcqLqnqvya7W6qLofifq6IdAfk4kDfW66ZNa2Ns19lkkD/Xpl7EBfPzjXvn0vzsXE9t0R3qv7gm7VWo1KlerAs2q2t7e/+KUvfemm9iMAAAB9HWy+CAAAAKb2O//0//6j0YDz2aW459e1myaG//C2+Be1pU5y9j4RBy8G4sCk+w/sY/l3XSGyBM9qS50ahRQp+Q1t6ejCiWUKxhbF5TB3X/vPtLszuX+7H0v8Wt9AW95+nTiENpo18aR2bZ+89ap2zViW2OW+1a1y+g5RrTn8eBSB6II4WNNrPXNFf/LRbdGiSddv2+MAyUp1Km+o68EQXRX6vgWyeGPasnnIO2+K0JeDy377qOPGB+l8Pi95PW6KhYNktQ5fK8XhvKz+PFfYl9XrpUozrDeCUitRI/2WuG6JXCLJ7hbXzaKRe9gMzZ0BsoZWtVvNoV7eIyl3V1y3xB/vu5+cBkWuUiN5Q1y3RM21Xk392Mo5avDvFSrr/FPiay+873XYbWL7druc5HI6xfJh2zkfmKuq2zIH+GL7rlTF9t5Qt/fDvPzyy8/+6q/+6p9oiwAAAH2Z5zcSAAAAONTnPve5oMPjczXsnnuRhfPZxOLSu/tV/I5jUPUrKvQno6wN0u0csNpZzcdhQLlSoWxqg+rl0cPkUfXq369Dhf7hFfq98JkV2eQabd2/IVruiHBItORRfwG3OSgQSXQM0q3WZbK6g63qz0g4SHOx5pkaQb+nI/yfrPb6HlTo96JX5XJlfTQUJLe1TvXMfaqpF7tSUddXgNy+3vuPYVvmDBP2jQ0V+mMT7YpM20PfxFXwJn5sbpebbI2ymHGif+4o6u9RPq+nb797DvSHbYm1mdwR23duLz/yWTVbW1t/gAp9AAAYBir0AQAAZsTv/ut/8fff+86nPr908YkDicdeLkO7yQdHDv0GVeg3qyiz2pIxTkOFfi9cze2KrVK5Kh+o5FOqeRF4GdlyBRX6k6/Q74VbsXDVPvfW7yZ6Kfep/OSK/je+/WVtyQh62IQK/faqXG6bwV/7VeXyYGRup6Xvd/nsm9D8Bao1JBHUc4UuH5wzNKwfAir0x4cK/fGY9bHx9h3we+nsQoKy6W1qWJwU9PsOrbpneuX9br4gzqoxYvtGhT4AAAzLPL+RAAAAwEA/8YkPPeOV8j/Pw1Y54GMuT7NS1elydwxbrVarVK+WxH2jGFihr1dRGmhaFfpkdfStDJ10hX4vXM1dkrxUk5UDlXwcNPM6sQUWyOX2ksNundgZGTpU6E++Qr+Xeq1Ce5ltUbVfLTfXob4Nd1d+slb1Zy5H+dQj7VYjna4KfbvdJipv9arcWDQsKvD5zAiuyuV+972qchkfeCOLnWSrR2yb5ew6lfNZyhUqVKhJYr3xoNqR+90bARX6Y5PUx6VUmv3WUaE/AhM8Nt5u+cya6u6m+D3C77bR2TNnKBppzrLhz1O3q/c8C96+eRvW+91z1f1WMi363bcPop709o0KfQAAGBYCfQAAgBnxE5/86DOxgPNZvj6obQu3fogt8LDVFbHMg1mHdWoD/QFB0nEE+qxXqGxTKrS0tESJuSjNz8UoGp/vGKQ7yrodBIH+8QT67Zrb8Jq6DT8QLXlIslKtQaINSyqdpdROhrZTGUpnciJAUorN4ZfGOpmBvh7scaV9NBJuDqpVt6d4NCLCfK7Cd/IgS5uNbLbO90F7S43cbnPdbGylxHrRW+ZUOdzLp8hCDe31a7ZWMg0E+uPjAapaoG/xL4ivpoFAv0Xfxn1etzgg194yZ37xLDnUzbqY2aSNO6+JM2t4n8tD6vXtm4fSZnK702mJ1WZ9fesPnnsOgT4AABwOgT4AAMCMaA/0dQ25RnuZLdHyoZTPiT9q9YpfDvi7+3RzJfggCPQPmmagX8utUfbRGyRXm6/7/ro92IP9sHU7CAL94w/0dbwNF3IpynJgrK7mVkDcVv3J60Zyh9XbFLIodfVBGRUuzUCgLx5f5z6inR7s8RyCYMBPiXi0FeyFQ0FRde+w23tW5erhXia7e+CgCgd+A/thF7fU/yja40OgP4qZCfR77KOmalYCfd9c3/3rOCwSkcfjbp1ZEwn5aWkhIa5z+xyXdnCufRt3+0IUjC+RN7JIO9vrlNu6T5v3b1Km5hLhPbfRGbXfvRE2NhDoAwDAcBDoAwAAzIhegX47fQhn8tFtUhqyCPTtDpe4j/+YDc8ttSq7a9WKCBK7IdA/aJqBvv7c26u5mcvjI4v2ve3rltc5Vx5ya5dRINCfXqCvO6zynB+f1RUQ/e1FYMyPtzZ6W63BzBvoe50WqhZ3xf5B30cctWUOHzjRz4jY0lpqcJjf66DKYZrv1RkI9LltTJ/3+rTUS1mSeB+PQH80Jg70+XNI4oNwKon3WWO85/SDcw6HTRyQ46r7xbkYJeIxsc37PG4R3jscB+ef8MG5orqN6y1zkjsZ2kplKLtXpIb6+5GYyyOp+zv1s89MNjbWf/e5555rnnoJAAAwgLl+mwMAAIC+Dgv0dYrSEBW/Oxv3KJ9NtU4tZ3plNw/l9IVi4r72ym4zBvpU2TP83zV7oK9rnpGxTdsP3zrQg53XrS8Up9jiObFuOdwftiUPAn3zB/rt9LkK4jXjYb4cUE3oMZox0Odgb/ncJYqfvUxuj4disfjEW+YctaXGzAT6A97r0yJVtX08Av3RmDjQl6ix/9iGCPT18J7PrAkF/M22WPGoCPIjh5xZ06/ffXvLnPaDc0q91Ar0Lb45cZtZbGxsfAGBPgAADMNcv80BAABAX8MG+u14eGr7EE4OeR2uZtjEX7mym9u2yA2FGnKdZLKIoLBX5WutmKFKUf0j2EA9K/SP4UDCrAT67fSq/V5nZPC6bW/JwwduBg3SRaA/W4F+O8nuJos7LFryCHV+v4yyvtq/lyv0uQJ+eoE0v5dFiFrOUkPd9hPREC0vr5DDYRdhvdvjG9gyh8M9vep+pJY5R4RAf3yo0B+TiQN9q6T+TiE+O9TH1hXo87bLAb3++wWH93xWDYf3+pk1zh7b+KT63SPQBwCAkwCBPgAAwIwYJ9BvxwFwZutBq22LXrXPAuFmZbcnEKbF+bmela97O5vif8NICPSHD/R1g87IYNyS57BBugj0ZzfQ1/HjF1X73jmSLS51farr7JD3zkHH23KnXimS1KiI17hRTIn1reQ3muEzb3PqtpfPbKr7rYfifd1+0Kpfy5z2qvtRWuYcFQL9I6hkm+9VBPqjMXGg73S56OLVJ8V1xeYVw6hFcUAkKH7HaP/9wtajLRaH92XevrUza0TVfSozkX73CPQBAOAkQKAPAAAwI44a6Ov0ti161T7T27Y4nc6+p7TvpTdPZ4U+B038GAw2bqDfbtAZGYMG6XYH+tyXmIMWDl2KO2vioIHREOgfLdBvZ7W7xPtZvKaS+rw49BrqORgT6Leq7qt76ns6Qw0O7vfWSSrviGWqFZrv80Zd+4lO+uDgnY27tFes0lamOPGWOUeFQH98fDYGAv3R8UGuVp/6CQ+eHZW+jbscVorH4xQOBcjt9qifOfMizG8VB9gPHnQY5syaSR6cawX6VhtZTNdDH4E+AAAMx1y/zQEAAEBfkwr02x0YtuoN9u03XdlNGR6smzLQ5397RgL9dt1nZAwapOsJRCmo9y2ei4nWB3oF5faDNxHoz1ig347D+Y6WPAMH6R490G9vmcMhcqOwpa5H9cLBI29HfMaLeD3HC+fqkoPIbrLAXGXmQF+uV0niAycqMwf6YhtwBbVbTcLEgb6kbketAzVjDp4dBx/01/vd8+dGIh4lt0V9LMUU5bfuUDm3JdpitX/m6LrPrFnfTIqBtcd5Zk0r0Fcfm9kC/YcPH37hy1/+MgJ9AAA4lLl+mwMAAIC+jAj0dXrVfjKVomxJ6dlvWgQtPICTjRkyHwaBfuevZkcJ9HXDDNLV+xb36k2OQH+2A30dPz/Rkodf577b8XiBviJXqbH7UKyvjpY5vO2IqvvJhXPNHv+d+wgzMHOgL3Frlhmo0JdsbgT6o2g/88KgQJ8/D9r73fM8nURXv3tuyef2BSg8d5biSxdIaTQou/2I1m+9SvlskirkpFQ613MY9XG1xGpn5kB/a2sLFfoAADCU3s1SAQAAwHTqDSWrXZ0arvS1hlbIErtM7vAiKZJNu2dCFFm7Akbgiv17r3+bXv3Wn9PmvTeolO98S+mtD5pnZiTp7oM1anDFNZwore04fo0kb4LI1uxL3w9X3YvK+0GO48AbjEWecjuiWcYD408L0WrNYadIKEDLZ+bp6qVzdO2x83Ru+YwYWhvw+8SwfKu188BBx+dGMkN5xUuyZ17cV8imKLWTFgH+tNtizYJ6vT713/MAAGA2INAHAACAfQNCOxvVaX4uJv64v3blMj321LvomQ/8JJ29/HYKRBe074JZwFX73Gf/ze89T7de+ibdf/iIbt19QDdv36fb9x7S5nZKDB/kEKbVqgVOHK7o5apja/QxsoTPEw/W1NXrzX72jdxDaqTeED3vAWD2cdU9h/dcca9/pnN4f/HcMl06vyKG1nJ43x3cs2qtJj4XtlNpuv9oQ3xuvPHW3dbnBlfflytV9ft6z8MwBRykBgCAEwCBPgAAAAylurdNa68+T9n1t6ha2tNuJYrMr9C5J95NT7z3xymxckX04YfJaB9UaxQeNrq7VxAhTK8KSot/kayJJ0kKLBE5A9qtcNJwGxte1xZvTCzbbM2zb7idDh1DyyUAM7JI6nt/hov09fA+6PfRfDxCF1bP0uULKyK8X0jEKRYJiVkp/arud/fyrbO1rr95h968fV9c50B/L9/83OjF2t66jQdzAwAAwEQh0AcAAICRpNZutyq7k49uabc2+7HPr16ly+/8MF14+n0UO3NBuwdmnd1uI390kRYuvo1Wn/6gWLd25/iDUwHg+Fil09M2xjDHcHB1VA6Xh2JL+5+zvJ/mcJ7b43DLHA7vuWUOh/dn1eVYNHJ4yxwtvNfP1nqwttk6W2uUljlo8wQAAGAsBPoAAAAwFq7sXr/9Kr38jT+mBze+J4bf6XjQ6pmLT9HTP/rTlDj3BNndqOyeVT4lR/NBR6uPcjAUFuv22rs/IQ7cOIMmGxQJAHCC6VX3gUBA3Rc/TU9/8Gfo2uWLdPnC6oF+99308L69ZU6vVmtH7XePg0gAAADGQqAPAAAAR8bDVm+//C26/sJfdlTts/nlS3Tthz9Cj73jQ6jan0G55KO+g3T5wM2VZ94jDtwsXniSvMFmuxY4gSxomzEUvE4wQe397j2WKsnp2yRlblPQXhUtc3R8hly3Qf3u21vmnNphtWgFBAAAMwyfYgAAADPiU5/46JW5oOvntUVDSDYXSa7ePfCV6h5RraQt9cbDVvcy22LgarVcFLe5PH7x1e5wUSCSEG15uFWAXK9RrdL8Hp1k95DkbH6/TqnsEtXL2pJBbE6yuELaQieF/21+DAaTPDExpLTdsTx3leSN9+3XrxT4zAuFFKUhzsrY2bhH+WxKrD9vINL8JhVf53kKkfllsVzcy4ivw+LhrN2UwrZ2zVi9XnudUlKfR6OmLRmn13vfDPTnP/DxKTIpxZS2YCzu9c8Xs2m+VxX1NQqor5W7eaNZyFVSys3tcdB7fVrkYpqkRlX9/HH3/fyZFqWufuaJ/b+k7qPmmjcahMN7p8NOkXBQBPixaJgSsQjFImHy+7wUjsYpEl9Q970VSm8+oPVbr6ifswXxs4rFQflCkbK5Xa11Tkp85SG1HOpXqzWqy8c4DJbfc7zvUEneuWOZBzMspab+3lHNqy+4jSxtg8DNYG1t7Xe//OUvb2mLAAAAfaFCHwAAAAzBVftc2a1X7cv1/eF5HPxefOb9dPVdHx9Ytc8Bx7FoHGPQMWt6VDEOarfkcHlb7ZbOXn47BaIL2j0AAAcd237eRLjqvr3f/WMXVlr97ttb5nT3u7faXRRZukJzj72bnLHzlNlUP2dfe4Fu3blHaxvbE2uZc5LJDfO2A1LX2/4pcAAAAAMg0AcAAABDcRU+h7+v/c1fiPA3l1rX7ukR/oZiojLxzMKcGOh3+cIKhYLov29mg9ot8YGbc0+8u3XgBoN0AaDbSQ6f9ZY5oaCf5udiosf91UvnRHDf3u/eYbdrP7GP+913t8xp73dfQ2YPAABwaiHQBwAAgGOjV+336sfO4e/qpWuiL3A4GGhVJ1ptB4OOE2nGzxLQD9zoVfu9Dtzog3S94XntHgCAk6G93z2H9/pBaQ7vlxYSFIuERFV+d9U940G17eH9zdv3RL/7uw/W0O9+wjCwFwAATgIE+gAAAHDsuNc+99l/83vP062XvknpzfvaPfv06sSaYtNugVnR3m6JD9zofZ4ZD9K9+NSP9B2k2x6KAcCEmXAQqIXMG7DywcheeD/V3jKnPbzng9Ic3vdqmcOfaxzeZ3K7tLGVFIH99TfviKr79vC+VqtrPzH7zDazAQAA4CTApysAAMCM+MSHPzw/H3F/Rls0xFGH4o6DK7t3dzZEwF9rSJQt1Gh9M0nJnYwY6FdVrGJgKve9lahB1DAg6LA6yOIOawudjm0orjtCkrXzbARTDMXlYafKeFWhfOCG++2n1m4PHKTLFfvBYJASc1FR2cpDIXkIJL8njgOG4vaHobjDmZmhuCYbUMpa7zETDsUNhMJ04erTZHN61P1VWBxoXJyPUyIeFWeScajvdDrIbrMdmAXA4X2lWqPcbl697NFWcoe2UxlKZ3IitOdgn4N7RRnzgIaJB8/K1QpJleYZeL0Gnk+TUi0Q8cWEQ3EfPXr0+a985Ss5bREAAKAvVOgDAACAaWR2tkXQ0autgDO0SN7Fxyl+/m0DB+mCOQ0apOsPhvv2kQaAU2LKlTH8GywAAIfrSURBVNxKQyalVqJGIUkeS1X0uF+Yi5HV5qD4mXOtfve9WuYc1u+eh9WiZQ4AAABMCgJ9AAAAaFHGrMQ2kk0u0nzI3WpnsHh2tWOQbnfLFjC/foN0u/tIS1w9aUHID+bHZxDB7Ghv7aUPYb92+SKdOztPIa+d9tZv0J3vf5WSD9/smPXCuvdT3DIH/e47WaUZeO5oBQQAADMMn2IAAAAz4sc+9pFVo1vukM1JFldIW+ik1IpEtf1e6Ebo1dajXkjS7uYtymw9FMvtLVvcvpBo2RKZXxbLxb1m+4GRoeWOIS13DsMtefYy26K1TrrqFK0ouM0Sh2XVak28FyzeGEkOb/Ngk1zRfnKy0HKnP7TcGVKRzzhBy51xDPUeOwIO7z1ul2iRwwF+LBqmaCgoKu65tRf3utdb5nDP/GBskeZXr5JF/VxIb96j7fs3aTeTot2ajTa2Ugf2U2O3zDkqE7fcoXpFfc81O8eYtuWO+Nzf/33CDG7duvX5559/Hi13AADgUKjQBwAAAPNoyNqVg7jXfnvLllxqXbunObiwvWo/EF3Q7jk6s4VfhlD6v+7HpVc1q15FG0ucoTOPvYMu/tAnxSBduzugfQcYDZXnw8HrNH36/oJDep7FsZiI09VL5+jaY+dF+xy9ZQ4H+Nz3vp0+rDaVztKjjS3RMidZUKhmbR484ip9DvDNVHUvy3jPnTR2u73zdBAAAIA+EOgDAADAzOGWLfde/3arZUu1vH/mAFfsn3vi3XT1XR8XvfYtXVXvMDts+YcU99toIRGnWCQkBlDGly7StR/+CD32jg9hlsIxsFok7RoMYpUQrh6n9pY5HN5zYK+3ZVtZWhD7Cx6uPU6/e66+n4WWOVbr/rbZ7wwjOEiWzb1eAQAAhoFAHwAAAGaWXrX/xre/3Ldq/8n3/cTEq/Zh8nggZbfSXlocuOGzMtZuvdIxSJfbLRl1VgYAmIce3gf9Plo+My/63evhffvBvu7wXq+65/B+YyspetyfpH73qNAfDw6+AQDASYBAHwAAAE4EvWr/1W/9OW3ee6NjkKFetX/pnR+jxMoVcnmD2j0wK1Jrt3sO0mXdZ2XYnR7tHgAwezsg7levH5DjE0I4nOf2OBzery4tiJY5HN6fVZf1ljn9wntumaOH93rVPV/fyeRM1zLnqGZi8CwAAAAYAoE+AAAAnCg8aJWHrL75vefp1kvf7Ah/PV6fCI8uv/PDdOHp95E3PK/ds6+7D3M00ntIMEzHMLMUrr37E2L9omofwJxtk9r3s+H4Ap174kfoqR/6AF27fLGj371Pvb9be3jfq2XOxMN7dJ0a32mYQQMAADAF+IQFAACAE6uQS3WEv+0tW3yhOF186kdEy5bFc1dEeN/eykHvw8zVomBOg2Yp8Prlqn2xfjFId2wY9jr7pr0O2/vdRwIeor1HVNt8hRyVbQq5FHLY+885qdZqB/rdc8scPbw/lpY52ARGhv0GAACAsTA9BwAAYEb82Mc+sjofcX9GWzSGzUkWV++KdKVaIKrtB6ZGkGwuklyd7XCU6p7675a0pfGVCzkRAOdSG6JfuzcQ0e4h8vqD5HG7yG6zifCpXaW4R9nkmrZkHMkdIalrgK9S2SWql7Ul40ieWN+hikoxpf7H+NYOkjdOUlc1p1LY1q4Nxmdl7GW2RVuefDZFVpudXB6/dq+6ftV1HT9znoKxBfE8i3sZ7Z6mgc+/pH5vo6YtGUeye0hy7j9m0yg3n//Ax6fIzffJMZAcPnExG6WwJb5KzoD6WpnrIKCk7kOUSq553Tt3YDubJN5/8r40HAyIAD8WDVMiFqFYJCyq8f1+P82dWSVfMErVcvNsGz4YV6+qj1GyUbXeoHQ2p7XOSYmvPKSWQ/1qtUZ1+eCsDSMptSJRNa8+MStZ1H2UqdQrpJSb69XiS4ivZtGolUni95wkqY9tTrvVHJQK/06hrlebmyxuc52B9+lPf/p/0K4CAAAMhAp9AACAGVFvyPtN4WFsHOz3a9nS3srh0caWqAZ9tDFcqAzmwGdltA/SbZ+lcNggXQ4jbVYLBf3e1vBN7td9mqHSFvrhqvv2fvcXVs6IfvftLXP69bu3ugLkjKzQ3JX3U0OyiYNx929dpwdrmyey3/1pY0F/fwAAAEMh0AcAAABzk4w7oVBv2fLG975BN2/f62jlwFWhopWD1U2SJ6r9BMwSDgl5lsLNF782cJDuytkz9NiFFRFGXrl0ns6eWWiFkd1nbACcNnrLHL/XLVqTcWB/9dI50ZqsI7x3HzwzQT9I2t4yp7vfvaygST0AAADAKPAXCgAAAJx61UqFarW6ttSJW7FY/ItkTTxJUmCJyHmMvdj7tIGB0Qw6K4MH6QYCwZ59vDmMPO3MOFAVjKOH99wuJx4Jdc4VOXumNVeku+qecXDf3u++/SAp33Ys/e4nDGeoAAAAgBkh0AcAAIB9jVMaYCr9n3d7wLW4cokuPvUeeuydH6XYmQtkd3q07wJDGNDru98g3X7DN/m20wyB5uyzu3rvp3jf1tEyZ/UsXVhZEuH9QiJOiblY35Y5HN5ncru0sZWkuw/W6Pqbd0Rwz9f18L7fQdJuVhO3Z8EBrRNowOc9AADArECgDwAAADCAXMwQ5e6Tx1prVae6vX7Ri/3auz9BF55+34Fe7GB+tUpzIOcb3/4yXb/5Fr15+35HGMmVxMwSXELLJZhpPDvi6R/9GTp7+R0UjYRpMREXLXN69bt3Oh3aTzW1zxXh8L69Zc7axvZk+90b2F5tXDigBQAAAGaEQB8AAADgEO2DVjfvvdExaNUXiote7E+898cpsXKFXN6gdg/MCrle064dJFkd02u5ZAL9Ak2lIZNSK5FSzmm3gBno66VRSJKtmhWB/dLCnLiP50Yszs9RJBzs2TKHw/vus1S6+93PWsuco7JK2vvfhAcbWgw4k2li0DZuaLKMQcIAADA8BPoAAAAwHDMHGsdo6/4NMWj11kvf7Bi0arU5aH71Kl1+54dF1T635IGTxeIOkzW0QpbY5WbVvpmDtAlxRC80D2TYXNotTfXdDWqk36JGMaXdAsetvR3YfDwiWuZcu3yRLp47S9GghyqZB3Tru/+R1t76QcfcCNbd755b5nCLqe6zVE5TeD9rcPbAyVKtVu5pVwEAAA6Fv8wBAABmxCc++qH5xajnl7VFY3A1sjusLXRSakX1L868tmQQ/vddIW2hSakWiGrNPueGsdjI0q+tSr1CSuVgFTK3bNnLbIuAv1ouktVmFwNWmRi0GkmIgN/h8ogKcP7+QSR3hCRr52BWpbqn/kPG93CXPDEx/LcXhQNbxfhQT/LGSeoKyJVCkv/bXDDQoOffC3+v5PSTxTtHsmRXH7dEJFe0e8cj2T3if3Oa6vW6CInbWSyS+tjc4tJOqqn7At4nqNus5Ao23yfHQHL4xMVslMKW+Co5Awdeq0mw222iJU44GBABfjjopzMLCVFt7/d5yeNxk92m7sfU9Wd3uNT9z7zY/1jtLhHm76zfofTmfco33LSxlaJ0JkfZ3J4I9avVGinK9MJhpbRD1Kibct2Kzx++DPqMmJa6uv1VdtU3nUQWX/MsDLNQ6urnFj82dV9pUfftZqLw46qX1feaus9V913TwNvpzs7O19fX17/w8OHDzz948OBzv/ALv/A/aHcDAAAcChX6AAAAAEfEg1Zvv/yt1qDVdtzm4uIz76er7/r44Kp9DOqbSXZvRFTtK9Gr1HDHD1SyzxKbzaZdO9zU2kOY/KwI6YhnMulV9xzSz8/FRMsc7nd/+cJqR797n3p/t/Z+9482tkTLnGRBobojIu7ng4oT63cPMEBDxtkDOt6eefZOJBSgxfn9+RUfeM8Pf/DS+dVVv99Pv/Ebv/Gy9u0AAABDQaAPAAAAMCH6oFXutf/gxvc62lxw1T4P0n36R3+azl5+OwbpnjAchtsD82SNXqJGcNV0g3S5+n6SrNa2PyM4xD5lswUmoaNljhbeX76wQhfPLdPK0kJrCPc4/e65+h4tc2BaLNLpe9+1DsZ53R0H43h75utifkWoc37FtauXP/NTn/r4F9cf3lP+9E+/+C+1mwEAAA51tBISAAAAODYf/tgnyiTLLofNMm+zWTr70kzKtFvu2Jwz03LnMOVCjrLJNUpvPhDLLo9P/YO/+auX2xei8NwSReaXxfJudoesnohoj+F02CkY8KkXv2hrUlH/d4yGljujtdw5jFV9H4uWPL6E2KaEQ1ryGN1yh8OmSaqXciTJpeY+Q912eLuV9H2HXDPsPSM51O3CcbA6fdpaLXf4dehxlga//rxtc4scDvBj0TAlYhGKRcLNljluFzns9p7riavuuS3OTjpL6ewurW8mKbmT6WiZU5fl/m1z2vZh4j1pMmi5M55WWxszttzRf18wYcudejGr7rsqzVZiY7bc0bdn/bM6EY+2tudQMNB3e+YDcRV1e80Xiur2uyvOptFbYFmttiv/9t/+23+qfSsAAMBAkvYVAAAAZsjvfv5zfz/qdzwbD7qe1W6aDLuXrJHz2kKnRiFFSn5DWzKIMyDal7Rr5LdIKWxrSwaxuURldS9KOUeNXDOUP6pwYpmCsQX1sqjdsq9UKpLD4eyo3lu79Qql1m5rS8YRQ1714LmLnLyhroSatmQcS/zagVBd3n5dXQHGH0wY9PwnRZGr4uCIUsr0fE5c0W/xH3xfHIYr70dplTMptewjslTS2j7jYCsppZpvDszlwHGCJN+C6QJCbj90NuoUPepL5CV3MC62Y66u54pdl8spwr3DcNhXrdVFSF+r1USFPYf5R62yb+7D7ovr1sRT4quZyDtvqm/kMknehOkOOIjPH/UiPiNij2m3mkOjlCYl90jdKCzqen1Cu9UcGoUkKXvq7wtWO1njV7VbzaGWvk+Wak4cgLQEz2q39sehvMNuE62ueHu2q9syL/c6c6Zd9/YsDr6py/2252q1mv3IRz7Su6ICAACgCwJ9AACAGfG5z30u6PF4VpeXFj8Y8PtXY/HYMyGv+5nM9oNQPr156NDVoSDQP0AEk5m72tJk2J0eUZ3PF32Qbi8I9E9OoN+uUco0BzO2hd3jBvrT0thbb5690SfQZ3wQo5FS3z8TZKZAXw/6OLBfWhgtiG4P+8qVCpW5Cn9A2HcUCPTHh0B/PGYO9OXMPbHv7RXo8zbNw6f1g3Ec3vPyYfTteS9fEAfhOMAfdXtW9wHZj33sowj0AQBgKAj0AQAAZsQ//+3fXnnPM2fvxZcuUHzponbrvnw2SclHt2l35wihOwL9A4wI9Nt5gzF1fV4ghy8q/vjngE8PBEpF9d/mUGTCVc7dEOgfb6CvUxpys2qfwyWHtyPQb1a476gvQpUs4fMHXptpO6xCn3UH+nVZIZv1aH9+TCvQ53XF64LXC28P4qu6HFs8J8648YX6P6aqui3XtPBe37a5+v64INAfHwL98Zg50D+TiFK9sCO2R8UVEeG9zWaloN93aNU94/Cet99Jb8+lUunexz/+8XPaIgAAwEAI9AEAAGYEB/o/dDV6T1sU7Vu4wrs7SJLrVRHs51Iboo/7SBDoH2B0oK+zhM8N7B8tXv9yRgRfk4ZAfzqBfjsOv9sfQ3urp16vzbSd5Ap9Ed7XS+q2X2j2KVefh7gMeC/yWTd8oNUXOysCvmbl/WRa5hwVAv3xzUSgb8LQ3EyBvn4wLhCKkNfrpYDfO1QLLKZvv3p4z1+N2p4R6AMAwCgmOx0LAAAAjk1m6wHdfvlbdP2Fv6Tko1varerfzzYHza9epcvv/DBdePp95A3Pa/fArOHT//m0fx6iuXjuCj32jg+rlw9R7EzvANUQJguST6ppH1AYFfeNnySu3p8GpcbBfV4Et3L2Hsnbr1Ej+To1Mneag2757Bg+iHbIgSVuebZ++xW6deM1erC2STuZnKHh3yjkxnRe22GZ+fHJJlh//TSmtM0Mo7VOpeP9/Gj/zJyfi9Hq0jxFnDVq7LxFu/e/T5X0faoWstp37+Oqew7sM7ld2thK0t0Ha3T9zTt0+95DcX07lRbtdMywPQMAADD8hQYAADAjPv7hD4fOxD2/ri22NOQa7WW2aev+DaqWm330XR6/+Mr92SOJsyLgt9rsVKtWqF6riPt6sljJ4olqC52Umvq/zW0mjGRzksUV0haauEqWaurFSBZb3+ct2myUDwYAk8b9fLtDXXl3jbzWGoVCQQqFo2S32cjucFEgkhDr1OHykFyvHXl+guSJ9a0AV0pp9U1W15aMI3njJEmdtSZKIcn/bS4YaNDzn5p6hZRK8wybXq/NtEk1dV/A+wT1PWtxR7RbuyjNlkLDsFiGO3FYcvhFe6JRNavu1ddU3Zb5dW0UtknhswxKO80zX3gfI/O+8WjvN0ndf0k2l7ZkDo1amaRq871ktgp4odzcx/AZSoPOUpoGqbLXfJ/zZ1O/9/m0yOXmASf+3DbJXAmdVNd+Xxj02XpEHN47HXbyet2UiEUoFg03v0bC5Pd5yeN2kcPhUD8v58TnJX92FnfTtHnndTHAukFW2ivVaSu5Q9upDKUzubYe+HVSlOM9YFKv17O///u//zvaIgAAwECo0AcAADhBuGr/3uvfPlC1z7gdhF61f6wV3kd1zBV+ZtPvTAwWmV+hi8+8n66+6+OztU5h5k26Qt9IouVM6g1qpN8SbcPEQQYO8I+hnRMczuxnEJgWH6QyqUmvUw7vudf9XCxCy2fmafXsAl177DxdPLdMZxfnKeD3ieG13T3w9cp7UWFfd5DsPUPkDFKtXKSt9YfiTBpujYXKewAAmDUI9AEAAE6gZvuHV+nlb/wxPbjxPcql1rV7SPTcP3PxKXr6R3+a5s49QXZ3QLtnMKsVvzZM06B1ymdi6Ov07OW3UyC6oN0DcLLVqxXRMof79fejKPKpDu8tkrmfu5UQpp40Vmn8QJ9b5ujh/eJ8nK5eOifC+3PLZ8RtHN77vAfP0uHwnttccXh//9EG3br7gN54665om6O3zGkOr8UBJAAAmH34yxwAAOCEG1S1v7B8ia798Ec6+rJ396DlP6L5D+qFeRO2ajilutdptbzfkoir9s898e5W1T4P6wSYtKMEdkdRL+fFQF45fVv0u5cyN0W/e6qVtO+AmWWytlJgLP13jVDQ3/G7Blfd6+F9JBQ8UHXP9AG1enjP/e45vG/vd98M73vgA3wmVMeZKgAAMAL81gQAAHBKDKrwdvtCzQrv9/4YXb6wIv6gXkjEKRYJiUq5Xn9Qw/Tp6/SNb3+5b9X+tXd/gubOP4OqfTgRrPU9tMwBMDlfKEYuX1BbOlgocHYx0fpdY2kh0fd3jdM0rNY25BwRAAAAhkAfAADgFBpU4d3vD2quhjPctHoCm7gX8bD0dfrqt/6cNu+9QaX8/iDfhbPnRNX+E+/9cUqsXCGXdz9oAQAAmBQO73lw++V3foQee9v76cLq2QOFAsGAv+/vGql0thXe37x9X4T3axvbot89/x5yUvvd81Bc7SoAAMChEOgDAADMCNlun/gfewcqvHe2+vagze7uh/5gXg25Rlv3b9Cb33uebr30zY42S1abg+ZXrx4cjtyQWxWUHpezo/2By+lsfg8AAEAbpdEQlfWN/BbJmXvkozydW4yI0J65vf6Bw2o5vH+0sSV+19DD+83t1IkP7wEAAI4KgT4AAAAIosL7xvf79qCVXEGyxC6T5Ilqt4DZFXKpVpultVuvUD6b1O7pHI588eKFVgXl+dWzaLUEAAAd9GG1kVCAls/MiwO+T157TBz8feqd76Wz5y6RUi/Rmy9+jW6++Fetg8mDhtVyeJ/N7YnfNY49vLfg8w0AAGYXAn0AAAAYmmR1kMW/SPaFp8kTP4++7EaTJhc4pNZu0+2Xv0U3X/zageHIbrenbwXlqXACWi4BHApDZ2EIhw2rXZyfo4Dfd+Azgweyz198Oy0/9QGq1Ru0fusVevk//eXww2oBAABgaPitDgAAAIZiaVQoHnS3+uFeuva06Mt+9V0f32/dAqZXLuQ6hiNz1X537+L29gflyikJ9QEAZtERDvwaMax2bTtLNcmlfScAAAAYAYE+AAAADKVeKdLmm9+htRvfoXxmS7uVyOHytlq3nL38dlTtzxBus8RV+9evX+/oXdze/sASWkGbJQA4lWQT93CXG4p2bTh6eB/0+0TLHCOH1Vql0R7bcZJlcz62ukkfFwAAmBMCfQAAABgJ92W/9/q3RYX35r03qJTfn9XLp9y3V+1brHbtHphVepsla+JJkgJLZHU3hx0CAJx0Vot5/1weFJrrw2rnYpFWeH/tsfMivD+rLnPLnNM6rNYqmfOx26ySdg0AAOBwCPQBAABgbFv3b9Cb33uebr30zY6+7HrV/pPv+wlU7c84l8PaCoUuXX2KnvjhD4kDNuGF82R3erTvAgA4eVoV+hOcZzIp86tX6eyVd1AwmugI79uH1fJtenjfjcN7Dufbh9W2h/dTG1Z7StVqtf3qCAAAgEMg0AcAAIB9Yw4H5ap9vS/72q1XBlbtIwSeLYWNG7T76HVSKrutUIgP2Cw/9jRde/cn6MLT78MBGwA4kczUOkZRP5+VWqk1rNbv84rP19Wr7+gI77ur7hlX3beH99zvvtewWoT3AAAAswGBPgAAAExUau32wKp9DoEXLr1tdkLg46rMHPNgynHQ2yy9+q0/P9BmyReKiwM2PENh8cKT5PIGtXsAAA43ai/406B7WO3yYpwizhpZC2u0c/NvqLh9i6r5He279+ktc3b38geG1baH9wjuAQAAZpv5zh0EAACAnj760Y+6liLOz2qLxpCsZPHGtIUucpWUSk5bOFytUqS9zLZoy1MtF8lqs4tQn3n9IQrPLVF86QJJFiuVigVSGnX1NxMHWdxh8T06S6NMjcqetmSQQc9bfVxKKa0tGEdyBUmyubSlJqVaUF9I9WIwyR1RX4Le8w7Ec+d1w9eVhgj3dzbuUT6bIrleI28gIu5jfD22eI5c/ijZ7Q4q7mW0ew4neeMkSZ21Jkohyf9tLhho0POfmnqltb31em2mjc/YoHpZ22b33wM6riYmWX0O5eHfA0chuUIHth+dUi8R8eM9BjxAmudOmEnr+UuSup+b0241kVKK3zAkOfzqpfkZYRat97nNqb7PjZkfwuG902EXbXMScXUfGg1TIqZ+jYRFFb7H7SKn00WByJz6mXmRfKGY+Exdv/WqOGher9WoUJNE3/vN5A6lMznK7eVFsF+rqZ9fyvEfMFH4M7tW7Lt/mCaluCM+0yRnwFTvt1KpdO8P/uAPfk9bBAAAGAgV+gAAAGC4zNYDuv3yt+jmi1/rqNq32hyiD/CT7/mkaN0SjM61KhK5hQD3Al6YT2jfDWbS3mbpwY3vUT7L4XtTSF2PfDYGV+3zDAVvsM/BEphZkk/dLp0BbekguZSlRuaOtgTQ32mq0Ofw/qjDarOlBpWsYbIFFqhRr1Fq44F5h9WacPYAAADASYBAHwAAAI5NuZDrGwJz65bVy8/QQiJOsUhIhB69egGD+egHbK6/8JcdB2wY93i++Mz7WzMU4GTgKnRraJWsEaxTOBqrpIXQlpO1v+eWOd3Dajm8n9Sw2tbAXgAAADh1EOgDAADMiM9+9rPD97uZAYNCYKZXJBYq5u0tD524zVL7AZtcal27Z3+Ggl61j0G6s6deb7ZeGobFImnXYNoa6FFvKL3fvT6sVj+7jKvuDxtWW+V2OW3h/c3b907EsFozH2ww6xkh8hRaIwEAwOxCoA8AAABT1R4C37v50oGKxFypQdbEkyT5Foj69MgG8+EDNjxIt1/VPg/S1av2Fckmbu+uaLWcsIpdszsssLfZmutpGAiR4STwhmJkd3m0pf3wvr013OULKyK8X1pI9D27rN+w2jfVz7n28J573g9Llk/mmQ1Ga50RYjKKLO9PmwcAADgEAn0AAAAwjVxqo29Fos0/R97Fx8l35nG0bpkhw1TtP/OBn6Rrly8eqGgF47WH+KME9odpVehLFpI8Maor+LMDZguH93zw8dq7P0kXrr1d9LvXw/tBreHa+93r4b1+gPrB2ubE+t1brebdpqwSDugBAAAYCb9ZAwAAgKlZGhWKeKRWkHLh4mMYuDqj2qv2N++9QdVyQbuHwylUmRphklX3o2iv0Lf4F8k5/wQ1/MsDB+mCMSxk3vYnZqEPq23kt0jO3KOgrUKXzy9RONh8v/qCkUOH1XJ4393v3tBhtQ20owMAADitEOgDAACAqdUrRUrefYVufverfQeunn/mg0er2lcQjBwnrtrfun+D3vj2l+nWS98UVfvdFa3cjoICSyR5otpPwTiMCuwP06uHvt0TEoN0LfHHtVsAjt+gYbWPP/NDlFg4Q8XsJr32rT9X909/3TqrSA/v+w2r5fB+FvvdAwAAwOxBoA8AAAAzYVDrFn8wjKr9GVXIpUTV/q3btw9UtEoOn6ju5hkKDc88kd2r/dQpYHVoV/oT1cTpO9QopLRbzAM99GHaxhlWa7U5aH71Kp17+gM0/9g7qVwq0r3XXqCX//NXxbBaDu9neVgttMHsAQAAmGEI9AEAAGDfjFSqdw9cletV7Z79qn194CqcDHZ/nKyR82SJXDwVVfuS3U1K+DGSvHMk9QmelEqOqJbHGSZw6o07rJb1G1ab3K1STbGL7+m3DQIAAABMAwJ9AAAAmFl61f5rf/MXfQeu6lX7Lj9at5wEHHTrVftSYOlE9WTv7ndvczjJ4ktoSwfJJq6CR992E5JORijdEd7HI0caVsvh/aBhtRYMdz0SMx4IkWVzrlNZxj4TAACGh0AfAAAAToTuqv32gatctX/57R9A1f4JY3GHyRpaIUvs8kxX7etB/qj97q09+tQDnCT6sFq93z2H99zvvhXeR004rBZMzWrFfhMAAGYfAn0AAAA4UfSqfR64eljVfiC6oN3TSa8A9fu8FI2EtFvBrCSrY6ar9scdXGvmCn0j1E1aWQtHs/rk+8SBVrfT2XdYrd7vnsP7bhhWC6Mwa4V+oyFntasAAACHQqAPAAAAw5nBHsJ61f6r3/pz2rz3xoGq/XNPvLtZtb90sdV7+exiotW+YWVpgcJBv/YTMAsOVO1bmj2wT6KZqNCfYJsXGyprTwSlIZNdXZf6sNpgOEZnLj5Nl6493XdYra5aq4nK+vbwHsNqzcfM7WOsEt4bAAAw+xDoAwAAzJBavYEKrjE05Bpt3b8hqvZvvfTNg1X75x9v9V4OBvw9gySYLa2q/fgVsoTPnahe+7rTVqHfD1fuK4pMSq1EjVKaGnvrJKdvk7z9mrgNpqd7WO18xEvueorK6y9TYU1dP8WU9p0HcdU9h/fdw2r5ent4f+qZcDYCZg8AAAAYC4E+AAAAnCqFXKqjar+U7zxG0t57mStAH21sa/fArJIcPlG1L1ry+BaIbC7tnsNxIGzWUBg99Ju4cl/ZfUSN9FviqwiJawUuBde+A45De3h/ZmGu57Da2NwCXXzqvXT1XZ8gXygm9sEvf+OP6MGNFymV3D4wrJavo999bzJeDwAAgFMLgT4AAACYmiQZ8+uKXrX/5veep1uv/KcD7Ru497KoAK3WT2R199BMWP15FBZvjKzRS9QIrPYcpKsPqGWNQooa6VvUyN7XbjEXVOjDtPQaVnthZakV3oeDgYHDaneLNXEGjfvM0+J2bo+2/ugewns4NtIJ+2wDAIDTBYE+AAAAnHqFbLJv+wZu3aL3ZJedEfW3p2PsyY7AwTB2t781SJfUdawbd0DtNKBCH44DV90PM6zWqX5fu2GH1eoQsI7GirY2AAAApxYCfQAAAIBDcDWq2+Oj6NJjdObx99HqE++hQHRBuxdmnTSDA58ZKvSHY3FHqBE8R5Inpt1yugz7PtFb5nhcTtHvngN7Du+56v6wYbUc3nNlPYbVAowHmwYAAIwCgT4AAADAAIpcJXd9h87EA7SytNAcnBtN0Lkn3k1PvPfHKbFyhVzeoPbdM0qRtSswS1ChPzy7Sz8j4ymSAkskWz3aPScfH4zs1j2s9uxiotXv/vzqWbGf46r8XuG9PqxWD++53z2H9xhWCweY8KwLsx4IVRS5c6APAADAAAj0AQAAwDwa5gyWd5OPRK/9my9+jZKPbmm3ElltDppfvUqX3/lhuvD0+1C1D8cKFfrj4Yp9R+wiSa6wWK7LJ/t19EXm6ekf/Rk6+9jbaD4e6TmsNhjwHwjv9ZY5mdxuz2G1enh/kqvucUbByYNWRQAAcBIg0AcAAAAYUrmQo/Xbr9LL3/hjenDje5TPJrV7iHyhuKjaf/pHf5piZy+PXLWvKAiOYDSo0J8Mm/XkvI5KQyalmqdGfovcSl6E9/FISNwXSSxRLBoZOKw2lc6K8L693/3axvapHVbLZzII6O8/EhwIAQAAMBYCfQAAANiHUHloma0HdPvlb9H1F/6yo2qfnTl/rVW1HztzQbsVYLJQoX+6KbVSK7yXs/dI3n6NGsnXqZG5Q0phi/Lbd+jNb/8Fbd19hXKpde2nOsP7QcNqEcqq0I5sLBZUwR+qWq1m0+n012/fvv1bL7/88rPr6+uf1+4CAAA4FEoNAAAAZsjf+9uf+qzVIrm0RUNYfAntWhe5SkrZ4BavkpUs3q7BlfUKKZWctmAQSVL/3TltoYsik1Lc0RYOasg12sts09b9G1QtF8lqs5PD5RX38ddAJCHa8pDFRnKtQnX10ovkDJBkd2tLTUqtqP7Vn9eWjCO5w+pL79CWOimljPoka9qScXhgqdmG07Ze/17vSzMop9V1UyfJ4RMXM+l87eLarRpFUbep/bNbjCS5o+pDsGtLnZTKrrp/KWtLkzFoWxoXV93zfrBe3iWpkqVGYZuUvXV129xR98nq9lkrqPtn3q/0DlH5zKJs8hFlkhuUq1ppc3uHMtldyheKVK3WqC6r+zh1nUwLH3xgkitEks3Qj7eRif2fuo+X7B51H+3XbjWH1vvX5iSLu3kWhlmY+nXLa+83D+8bJrut9sMnU3k8bgoHA2JuRSwSpPze3h+sb2594TOf+cz//KUvfenmV77yFYN/0QEAgJMEFfoAAAAAEzozYVDV/vzyJVG1/9g7PoSqfZgIVOifPKJlTq1EjUKSGnvrJKdvUyP1BjXSb5Elv0ZKMdUM8MfYZ1XLGFYLYDQeNu102CkSCtC55TN09dI5unb5org+F4tQwO8jt9tN165e/sxPferjX9x4dC/zpT//03/8r/7Vv3pa+58AAAA4FAJ9AACAGfK9e/nVe9v539or1l7SbgITqlWKHb3229tduH0hOnPxKdFr/+zlt5M3eLDym/s2cyjg9XRW7AO0Qw99Exqj13qjlKZq+i7JO2+2wnslv3Gk8B5OD7Od2XRa6J/ToaCf5udirfCeh01fOr9Ci/Nz4jP8sGHTG1upUDAc/a1QKPIZ7VsAAAAOhUAfAABghnz2s5/NfeZX/vt/8pN/79fe9tpa/lly+O5pdxkPQwHHwlX7917/ds+q/cj8Cl185v109V0fp8UzS7R8Zp4eu7BC1x47L0KBgL/ZugegF1Toz7Z6vS6+cnBvre0126cgvIchyTLeK8dFD++5XY4e3l9WP6v5c3ppIUGxSGhgeK8Pm777YK3vsOlGo25wT0MAADhJEOgDAADMkN//X//fv/bdb/+nP37z+is/+PTf/YUvPv0jH1t94r0/TomVK+TyBrXvAjMaVLXPvfZjcwviVHyHvXe/bwCYDd3DaqupzgN5OpvN1rzCPfIBwHDDHATpDu8vrJ5thfcLifjQ4X2vYdN6eA8AAHBUCPQBAABmSNxZ//Xq9pvPUiX3jHYTWW0OMXSV+7NfePp9FIguaPeAWXVX7cv1Zl9rPRDY3cuLQCCbn+zAToDjwmefJFauihZT3BmIAzDuH81noZw7O69918nD7XLEJXOnOey1sktWCQFeP6gyH59FmoEzdEzWDshut1FsaX+GTUd4H4/0DO/dLufA8P7+o42e4T3Pq0B4DwAARsG58wAAADPkv/zZT/26heTQXmabtu7foGq5KG53efziK1d6h+eWKK7+wcp9dUvFAimNZluHYVl8Ce1aF/V/RymltQWDSFayeLt6ytcrpFRy2oJx+j5vRSaluKMtTFZDrhGvy+2Hb9FehWg7k6d0Jke5vbwIC2SyNR+X1dH8AVn9JgNI7rD60mv/RhellFEfaE1bMo7kiZmuF7RSU7evar73+9IEZPV9aVHfn5LDJy7TxgNd3S4Xud0uikbCFIkvUHRhheKxCIWDARHqO53q+0x9zKm129pPGUtyR9XV1/usl0ZZfW8btE11sKjbsSeqLRwkeuUfR6sddRsf9DimQVEUouK2uC65QiTZXOK6WYj9n7qfluwekpzNz1mzUMpZ8f6V7G71tTPXGXqt180k+ybG4b3dZqXVC5dFEUQgEKBEPEoxdV/l93nJo+6f7DZ1W1W/r50e3mdzeyLAT+1kaDuVEZ/V+UKRqtUa1dXvEe/lI8hkMl//4he/+A1tEQAAYCBU6AMAAMywfv3Z9ar9J9/zydmv2j8lA/9KxXzfaj6bN0rexCWKX3oXxc7sVxcCTEt3W4qIRxIDXQsPXiRbeVu0nOmFw7FqHb3/oWkmqsxhZLI83fXK+yc+gOh3WUjO3CPK3qW4p0Hnl/d/F3K7PT0r77ktznYq3aq8f+Otu6L3Pd+2ly+g8h4AAEwBFfoAAAAzhCv0bTZLSFts0Su9h6na5/v5+/sxXYW+XG1WIhpsGhX67SRnQFRatrNRnaI+Oy0vrzSrCP1+CkQS4mCNw+UR31Mp9Q5OR4EK/d5Qod/E4ZjTYadgwEeRcFC0zkmol1Zlq9tF/mCE5leuiPflXnpL7It4ToSiSFSqS5TbbVa3biZ3KJPbE+85gV9jAw2q0NcrnA1nlgr9Qx7HVCiK+vyT4qqkPrZ++6FpqefT6jaGCv1RyUXtdTuGCn0+sMhn/vBZQHyAcXE+LirveTkU4jOFEiSRQtntR7R+61X1d6CC+DnF4hDV9Xrl/fpmkpI7GbHMob5eeX9cdnYyX/+TP0GFPgAADAeBPgAAwAzpF+i3KxdylE2uUXrzgVj2BiLiq8ViJV8oTvGli+rXGMn1Ws8wGIF+lykG+vVCmvJbtyiz9VCsLw5L+ewLxr3J+UBNZH5ZLJeLeVLGDAUR6Pd2GgN9Du85oNfDsVg0TNFQM8Tn8J77SfdrS1Gp1qjaUNehK0SNhkSV3W3ay+5QkbyiZUWtpu5DtLYUvK45IOXtzmp3kdPhoHpl8uE+Av02Zg/0B+yHpqaitY5R36tGB9OjMnOgTyX1Pa3+zjDpQJ/De6vVQvFoRL2EaWEuJg4strf06t438Wem1RUgf2yJyrKF9jbviHA/UyLK5kut8P6oLXOOKp1GoA8AAMNDoA8AADBDhgn0dd1V+1abXVTrs0FV+93Bdr1eFwGfTf0bubbXDF4Mg0BfW2rSA2VeN4VcSvQdz2dTYl3qZ2BwWMFV+4nlx8au2keg39tJD/QHVbbq4RiH9zZb53o5rKc0t6Sol/faXru49pNN3Gs/HPDRHPevjoYpsbBI8cXV1sGpWrXS2h8dFQL9Ngj0R9aq0J9wMD0JZg70xWfmEQJ9/awgn89DIXV/1B7eR8Mh8TuJw27ve2CR90PZ3K7YP21spcS+ifdX9YZESqH9jJDe+4ZpSKWSX/zTP/3Tb2uLAAAAAyHQBwAAmCGjBPrtuGqf++0PU7VvdYdEa41gwC/+iD4zPyf+iPY4rbSzcU/8nJEs3jntmgaBvrbUVKsUxRkYyUe3RTDK4b7d0Rwk2V21P2wwikC/t5MS6A8KxwZVtjIO7odpS9Fd3cqvnbWSpYBcpPlKkhYz12khe5NctTxVrC7a3bhOkvq+4gMGbl8zjGwenJoX+yO+raG+v4/aUgqBfhsE+qMzqNJ8EritjdSoznygr++f2n/vmNeG1Qb8vkPD+9xuvqOlF4f33Ou++6wg1lB/hnh7U5kt0N/Z2XkOgT4AAAxL0r4CAADADHju3/3ruy6ndVVbPJJwYlkEvxzoD6OUz9Kb33teWzKIZCHr3OPaQhMP12xk7mpLxrEmntSudeLQvJG8ri0ZRwoskcWt9RXXNAopUvIb2lJ/3mBMnG0RjC1qt+xLb96nXGqDdnf6/+9Ywuf6hi5y+g5Rrdlz2EiW2GXThXmt199iJ2v8inareViLm1Td2ybJm2gdkOLQy2G3iZDebreT3WYln/fg8MduHI5Va3UqVypULquXSlUEYsMOf/SWd8jWqFJQfUzeSlp85eV+sjYfPXImaMceIovVLkL8YGxBHJRqV1EfR2bjtujHzwcmR2WJXDpwoEwnZ++p/8CutmQgm4us0ce0hYPk5Bvqm834g2aHPY5paO5fXxfXLeHz5gvNU28S1cskqdtX34O+UyKGvarvXz4Yagkc3PdPU7/XrXv/xF95edj9Ex9ErNVqzYOJ6vKow2kVuaq+326I65Zo/33DNNy8efPX/8E/+Ae/oy0CAAAMhEAfAABghkwy0NfZnR4RBnOg1k3/I5qr3fK5NO09elW7xyAI9LWlpmED/XaxMxfEgZruYLRYyNNu8iEl1+9To1bSbm1CoN+b2QP91eUz5LA0aDebIYc3JAKyccKxUcJ7q1wRVfYc2vPFV25+HRTeH+aRc442HVEqWD3i4BQfmOq1P8qmt6mQ3hCtp4aFQL8NAv2RmTnQr+3cIYu6LZox0L+wepZK2U3aLZTI6Yu2AvxR90/6Pmqc8L4XBPoAAHBSINAHAACYIX/2b3/nB36P/RltceK4at8ZWaZytVmpy6er68QfwhzuGhk8IdDXlprGCfR1zWB0oWcwms8mRcsevWq/O9Bvr6LMPniVqsXRK6NHhUB/sHq1QlaqkaVRpUAwTLGFZTGg9jDt4ZhefT9sOKaH91xt76w3v/LyUcL7QfJWtwj215zN4LR5FtFKz7OI+MwTvvBsiUEssSt931cI9KcPgf745PRtomrBFIE+r0eqlyixuCxmc/Bnx2HBPeP9Ex9Q5P1Ts0XO5ML7XhDoAwDASYFAHwAAYIYYHegzS/zawF7mtUKaLLU9Y4IwBPraUtNRAv12/ar2K5UKZTbuUIWc4j4OYriKsj0ovvXSNw8NTScBgX4TD6HmFjnc9zkcCop1weuFw7Fm+6R1cSCmeWbNRbFeufc86xWO8fIw9PA+mn8gKu6d6nUjw/vDcLCfsodESx79ufY6OFUtFyj56Fbfqn0E+m0Q6I9M3nlT/dBDoN+OD/jyfolDe943KY065ZP3KfWouQ2G1X1SrwNxR9k/TQoCfQAAOCkQ6AMAAMwQMwT6evW2x2kTwxy5PzsPap0IBPraUtOkAn2dyxsUAXCvYLQfBPrGBfrd/aTbw/tBOMR+ePs6FTObYuixb/4SVSTv0FWtHN77tD73enjPy2ZUtjhaLXlkySaq9rklT/95Ec0DHrp+gb6ivlZS/hHJJeMHbiPQ7w8V+uM7jkBf3x/p4f1hlfetbVD9vcDu8lDo7ONUU2wixDeq6n4UZg70r1+//uu/9Eu/hEAfAACGgkAfAABghkwz0Oc/hENOhRbPXTnwB33zj/jBg1eHgkBfW2pqlDKk7D7Sliar31BkvZe6XkW5t/Y6yeU97V7jnPRA/6jDIHsNq9WD4PahuN1GHVZrZr2q9rmtlMPl1b6jSa/a532S7F8mt8fXM5S8+9p/Pvo+axgI9PtCoD++SQb6+plB+r5p2IOLTN8f7e7lW/un8uYbZG1USPIvkMU73OD949AR6Kv7dDN95rz++uuf+eVf/uXf0xYBAAAGQqAPAAAwQ6Yd6DdSN8X1fmFwM0i7PX7V/hQD/b7P+4QG+jqu2vcvXqFKXWkFM+0mfZZAPycp0O9uSTHOMEhuR8FfB/WTbg/07e6QaJFTV1/Dit1P83f+My1nXiGHz1yv6STUJauo2udwnwfpDqral+vVVkuibgj0p69eV9+/O+rzVyHQH824gb5+cNElQnvn0OH9oIOL3cR7WlbXLQL9oSHQBwCAUSDQBwAAmCFmCfR1zSrZCz1buIxVtY9AX1tqOo5An3UPxe2FH0s9nxRVl0aY1UBfUn+b9rjdrfCeQzKH3a7d258eju3lCyIUG2UYpN7v3p98mVxyiUJykVyNaqvyPueep8Zenrw3vi+WLdEQWUIB9f3lEssnSdbmE8E+D9K1WO2tqv3ueRG69lBy89b3qZo/hlZDCPT7QoX++IYJ9LvPDLLbrKISf9SDi4PC+14Q6I8OgT4AAIwCgT4AAMAMMVug324iVfunOdD3cfAR05aazBLo66GQaMfg4Dmiyb5DSMdlxkDf77aTrZaj1MYDsieu7b8GI7akqNZqVNPCMT28H3YY5FGH1cqZHDWyu6QUSiSpj5mDfWus88DRScEtefiSs/nJG4yJin1f7GzfUBJDcacPFfrj81lKlFt/qxXoH7Wt17BnBg3DrIF+vaquy7S6TlUI9AEAYJYh0AcAAJghZg70dUeq2kegry01mSHQd8h7FIvFKZJY0m7Zx+szvflgIkNzzRTo68HYXCxCAX/zdeHQa5jwXg+M2/tJDxuMOWt7Iqw3YlitUq2RvJOhxk5zCKyo2A+rF69HLM86HnJLdfWivuZZq49eWXybuL3fUFxdo5QmhUN9I4N9u5eskQvawkGnukJffK5oFdMmDPSr2zdN2Que91ErSwsitM/v5chqd40c3usB/lHD+15MW6FfK6n7wLfEdQT6AAAwyw7/qwQAAABM4+/+9I/9stNundcWDSGpf3xLkkVbaqPIpBR3tIX+Guof8XuZbdq6f4Oq5SJZbfbW0EpugxGeWxKV/KxWrYjvb5Ek9Y//OW1BI1dJKTdDSCP1f96K+ryT2oJxJIdfvXSGq0q9fCwVxJI73DfYqGbXaHf7ngjumTcQEV8Zr8/I/EprfRb3MuLrOLjKtNcBFaNxMOZ02CkY8JFVLlIpeVtU5UdCAYrE9zc1/r52HIxVqjXK7ebVyx6l0lna2EpROpOjbG5Pq8Svq28fRfuJTjys1lPN0WLmOp3deZXOb3+HzqZfpcTuLQqWNsV9DrmkfffRSVYrWfxess5Fiew2dZtSt72tHVHBzywet/g6C0R4r772VCyTsldSL0WiXfVSUF+vSo3qioU2I8335GHvK8nuJosrRDZvVLwPyoVddV1PuOZJ3bYs7v3tpptSTPGT0pYMZLGp61ld/2YiPleaBwTFurIe3q7qOMmFHbKoj1Fy8v65c/jyceF9j8ftokpmTbQBC/vddHb5HLm1FloOp0vdpNV122cflcnuiv1TaidD26mM2EflC0WqqvfV1e/pt486Cv09Pc3XraeGuk8uNQ+SSt7pfOb0k0wmv/jnf/7nL2uLAAAAA6FCHwAAYIbMQoV+Lzx4lUPfQ6v2uyr0OaCwNKpU2Wq2ZDASKvR7V8bK2fsHDio0h5Au9BxCOm7V/nFU6PP7qXtYLWe3TqdT+479FlF6SyH9uTp80bFaUugtc7jq3lnPk6+cFtX3w7bMMVKraj+jrl/1uYiq/YBPXMxCqdZFMMhBvbiuvu4kD37d8y4//eDie8X1QRX6NqpRbG7hQPuk5j5pfXIDc81SoX/I45iGjgr9yCVxgMVMjrvSvHsf1T6To7lvutVsX1cuUlj9TNWHQXN4z2cE8b5p1LZeRmi9bkGeDdP/YNZxM3OF/quvvvqZX/mVX0GFPgAADAWBPgAAwAw5lkC/T7B6lEC/3cBe++v3RIV+e//fammP3vze89p3GQeB/vCBvm5Qe6XuYPwwkw709YBWD8b46zAtc9qDseT962IQcPeBpn66w3v+Okq/+2kSvfZ386TsFUQFvzUaFsG+5DieiulWyxyuGK7UmsG9CPNHrx5uD/Qd4fPkalRabYz4UnBGaMe3TElZITvVxftXHLTRziTSyfWqNv9jncqF5pkMY0Gg39dpDvTb91E29as4S2iIfRQH9rvpLdp86/u84Ziyvz8C/dEh0AcAgFEg0AcAAJghX/y9zz8f8jo+qC0awuhAXzeoar9dKZ9FoG8wS3CZJFdQW+o0KNBvd1jV/sDZCapxA32uaOUDP1zJ6nI6jzSstlxptsnRcXsLJX/wzBFmrZbI1SiOPazWrLhqn4foilY86mthRNV+e797havtjxDed5DUP20cNpLdHsqF4+r6qYqLTZG1b+hUl6z0yDlHKXuIClaPGKTbDPcPvofz2aQI9scaBn1YoL/9Gr8o2pKBEOiPbBKBvr6PGmegtj6Do9dMDjMP7K1uXicr1c0d6Kv7dDO13Hn55Zef/dVf/dU/0RYBAAAGQqAPAAAwQ05SoN+Ow2Cu9Oae7Dq9UjqXzVDy1ncND7wQ6B8t0NfpVfu9Kp4HVe0PE+jrwRiHYhyO2W1W8nk9hwZj/F7iFjl6u5zuYKwfPdB3KXXyBOZbVd5bgYuUtwTomb/6F8deyX6cGoUiySn1PchV++prb42FSfJ7yaL17h7GgfBe/SqWjxreWy1E6vqXnOrrrr4n+CKpy+PK2nwi2F9zNoPR2JkLYj5E+z5J12wrdX/4tlII9Ps6aYF+K7xX34ter3fo8F7fR/FBxbI4uHj4PgqB/ugQ6AMAwEmBQB8AAGCGnNRAX8dV+675qyJ07Q4yRLjNwfII4fIoEOhPJtBvN0rVfvf7Tg/GAn6fCMQ4wOflYYMxfg/pfaSHCe+Z3jKHq+15MK23lCQf97vvUeFdtzhI2txotqlR//clr7sV7p9EHOxz5b7+XC3qeuGAv10rvFe/R/S7V9fFRMJ7u7rO1feD5FLfHw4tvFeXjbLpiIpLzuYXVfv8/u3fVurW4VX7CPT7muVA/6gHGMfZR7Uzc6AvbzXf02YL9OuVIkmZW+I6An0AAJhlCPQBAABmyEkP9Jk18aR2rZMenrjsEknlDG0+eItsXKU7IQj0Jx/o64ap2q9Y/eTzB1vhPVe2HqY9GNMrW3l5lPB+EsNquZKdg/3GTpbfqGNVss+KRqksgn3xXFXWWIQkm51XBlGtd2uboXHLHJu6TXNgr16OI7wfpGxxiJY8etV+c/7HyoH5H2zgIF0E+n2ZPdA/mwhRfmeNsvkKOYPzIrzX23uNc4CRvw67jzoMAv3RIdAHAICTAoE+AADADJlqoH9MwXZ3oM+BT8ip0OK5KwfCk2F6sw8Lgb5xgX67QHRBzE7oVbU/CAdjXMnKgRhXs3I4Nm54b+Sw2mEq2WeNqLbnwLlSa15Xv8r5PVLUdSDZ7WT1jnFWgh7eOx3q/qb5lZenFd4fhiv2uSXPjnppHqC6OLBqP7l+nyRFfa1YnyC9Xq+Liu7Cw+ZwU8Mh0B9K+9lB0XDw0NBe1x7e6wH+pML7XhDoj06p5qmRviOumy3Q//73X372134NgT4AAAwHgT4AAMAMOZWBPve8TTcr6pp9rZcP9LXWq7yPUrXfL9Bn8tar2jXjnJZAX2ex2ltV+93rU28/oYf3/HXYUIzDe26To/e7n9aw2u5Kdks01Bwwa+Kq/VbLnFpd3e7qA4fVyoX88IF+e3jPPe85IDVxeD+IXrXP4X7F4tTaSi32PEC18egulbObtLu7S/bYJRES9+qt/uq3/owack37KQMh0D+Aw3teF1x5b1HqlNu6T/nUQ/KG+rdaYkc5wDgpCPRHZ+ZAHxX6AAAwCgT6AAAAM+S0B/q6Zl/rhZ5hy7hV+wj0jzfQb8fr0zt/icpVeaRe0s7aXqvynsN7bzlNrnpeu9c85EyuWbVfKKmvs1ME+9Ou2j8wrHZAeN9L30Cfw3tulcPV/Oo+g/vfWxcOHyY6i1L2IG06Yh1V+73aSsn1qvq6qK9Dn0pvBPrHE+hb1Lem2+1uts1xOsTBFV7u1pqN8Kg5GyHMZxTNX6BKXWmF9xzmTxsC/dGZu0L/+x/8tV/7tW9oiwAAAAOZ5xMMAAAADvXzP/3Jz7gc1lVt0RCSJ9b7j1xFIaWY1BaMcyCYaNRJKaW1haZapUh7mW3aun+D5HqN7A6nemlWPnO1d3huSVTys+JeRnw9jOSNkyT1rhhWCtvaNeNIDr968WhLTUq9bHiYzjjMl2y9K8eVco5IrmhLxuD1WVJcVGvw2+xgoMxV955qjvylJM3nbtLZnVfp/PZ36Gz6VUrs3hIDbPn+467CHxZX5VvDQRHkK/U6NZJpkrd3SKnW1CdnUde7XftOY4jwnvvbF8vioIKyWyDaLRKp1zl4F0E+h/ojUGpV8bh5UK0lqL53fW6Swj71ulfdltT3kke9qKtSTqnPdSvVfK4qiVvrnBCeRoXmahlaqmyr67VCmWyK1tcfUD6bJKvNTi6PX3yfRd2fciV4O67wrqivSW43T7tbd9Vbjjg4eBhWdV2ZKFwVFFn9XEmJq5I7SpJ1MtsCB/ZO9eL3emh+LkYL6iURj1E4GBCBPt/Hszq6cWDPm4Js9ZAtsEDlzDqV81nKFSpUrFuoqq6zurruzEAp7ojPR8kZULfFzoNI09b8zFTU91u472fLVMhV9feJ5u8EFv+C+GoWGxsbX3juuefua4sAAAADoUIfAABghqBCv7+jVu2jQn96FfrMErl4oDr3zK1vUMRRHHtYrZmJqv3dPCl7BeLBr9ZoeCJV+83wvt6skBdBvdysxB+y8r4nvWWO1dpsmTPisNpez9US8Bl+IGMasjafaMejD9LlNmHB+FmyOr2iPUuv4c0Yijt+hb7e796ivkcDAX9HK6PD6GcD7e7lRcV9r7OD5OQb6n9qJPl5/2yuM02q2zfJ2qiY8rHpFfqW0Erfz5ZpaK/Qt84/Jb6aBSr0AQBgFKjQBwAAmCGo0O/vqFX7qNCfXoU+k9yRA9W557/9v5Pr/k2SuGWJzUqS3abdM/tE1T731Fcv1Gh0Vu2rhqlkF4F9Xb1w5f1eiZScVnlfVNcXV97XZfV/e8Qgn8N7u7r9e1zqOnGSFPCQFPSSxa9+5ducdvW9oq4L/r4htZ5rNESS+nAauT1Rtd8oFNV1zgcJTk7VvlPdZiPFHVpJ36W81U07lSpldpKUrVgprz5fDo65wrv9TBTJpc2QqKnrzkgmrNDnfbVU3hHXD6vQ5/De6bBTMOBTL36KR8M0H49SLBKmcChIHvV95rDb+54Nwa9/NrdLqXSWNtT3XzqTU5f3tDY66udMj4Ne9b0kWaihPjb1vWuCgb3t5MIOWRRZ3X74s8NcFfr1vS3R4ojf26at0DdZmyJU6AMAwCgQ6AMAAMwQBPrD4cB+Z+Me5bMpERh5A80Qy2pzUCCSoPnVq+RwNcPzSqnZc7070OdQyGqRKBYNUz5p/N/YCPQPBvrzt/6GbLWyuv7L1OAq70JRfSwNsnjMFawdBQfaFr+XrHNRUb2ucJUwh/vq82X8XFstc6o1Ugoc3hdJyarvW26Z0x7ej1qF3x3eB33qxdMM713NAbajhveDcEW/xeshaySkbm/qOqzWRbAvpzLNx67eP0sHbRR+zflsiD4HVNKuEBU8oUODdN7fcigr9n3qNsAV53JVXbeTZsJAn99b+udKe6DfHd4n4lFKxCIUC4fJ7/Xuh/ddB2Hlxn4ro9zungjvN5M7IrzfyxcGhve9yHkt0HcFTBfoE79u3KfehIE+FbbEF7MF+nK1QlJFG1SOQB8AAGYYAn0AAIAZ8rM/+fFnvS7bFW3RECch0NcdqNq396jaTzSr9i12D4VDYYpGghQO+unMfEJUfnK/Zf55oyHQ7x/ot3AQly8ea//548SV7NyKxuLzitBeVLKrz9VSV+/k8L6krocx+t0LWngvet3zhUP77vCeX88JhfeH4fXGz1UcyFD/TX6ufCDDrAdtOs6G2NUOqOQHH1DJ+WK0N0Sg73W7KRoOiYrzxcWzNHfmfGu/VKtWJjcw14SBvtvlomtPv5scTg853D4K+jm8jzXDe3X/q4f3dhu31eldeS/C+7092kru0HYqI8J7rsYfNbzvSQTTiikDfTF7wKSBvpI3Z6Avyer2y59pKgT6AAAwyxDoAwAAzJCf+1uf+HnDA31X+ECwKsxgoN/usKr9cLgZ3jsdDnKol3YI9E0S6LcRlezZXdGbndvKzGLVfsew2lKFlJz6XLjCu9ScF6DUmkGuxTViIMahPAf0XlcrvLeEfc3rToeogj/O8P4wvO5E1b7fK4Lx4x4a3K61TspVdX/X52yIIQ+oJH3xVoW+3eEVg5vDhTWa271FC9mb5KiXqGpzU37zOtmkuqg4d/ua/cab+6V5MRPEF4yJfZZ+NtHYTBDo8ywWqlfIrpRpaWmFQsGACOv5AKvf7yeP+l4Q4X2ftjkc3ifTGUqpl+2dDKWzOcoXm+F9dyujSdCHuyLQH41ZA31+7yHQBwCAkwCBPgAAwAw5lkC/R7AqTCvQJ/53mz2WJ6G9ap9ZbfZW1T7Tg6NSqUzpXI5SO1mqZNe0e42DQH+0QL+lLs9E1X4rKC6Umu1Z9orN8J6DYg6JuQK8rd89B5/7gf6AIJFb5nBAr4f3YR9Zgt7mclt4Pwv4sXa0HyqWqLHd2X5okg4cUOF1wm1zeJ2Uq0c/G8LloIClQsvFB3Qu/SqdyV6naP4BBcrJZrhfXKMzmesUqu/SXrFAG+mUGOAty7WO/ZLD5aXw3FmaX7lKVnUbqVXLVK+NsU0ec6DPobzH5aJwMEDRcPPMp0QkoL7WO7S3dYeym7epUa+I58rPUafvgzPZXUplsgfC+6p6nxHhfS8I9MeDQH90Dx8+/MKXv/xlBPoAADAUc5TlAAAAwFD+w7/5F38cD7qe1RYNYYlc7BlccMDYSF7XloxjTTypXWtS5Co1Uje1JWN4gzHyJi5RuSpTqVKhBgd9beSs+je2wcG65FsgizemLTVx8NDIPdCWjGMJLotQv5fjeO6s1/vu6f/4T8lZbPY7HondRtZomKyxsHbD8RK91WX1Uqk1W7XwdQ6OR9Coqe/7QkFct4XU58Ehsc3SDO857OaDAOUq1fN7ZI0ERXU7t+w5afggjbyTocaO1veah+tyWyL1MgoR3tfVS6Wq7lOaX8XyUUNhfb1oB094/fAyzwsYxyPnHG06olSwesR+KRhdFFX63Ur5LKW37lNq7bZ2yxDsXvW9ckFbmCyuquczDPgsJ5f6WvBXq3Vw7RgfvODnUMilyO5Un+/iE+pm0hCDg81C3nqN3zwkBZdM165ITr6h/qembvv82RHXbjUHefMV8dUSWun72TIN4jOVP9NU1vmnxFez+M53vvPMb/zGb7ysLQIAAAyECn0AAIAZchoq9EUP//ZeyYo80Qr9XrhqvyR5qSarz7FHwGfhKkO3Fg7XSs2vE9arQl9UE1aa1YRGmukK/V4ajWOr2u/orc6V95kevdXbKu+HIkJiq7otuMgS9JMlrL43gt5mv3seXsvtdHiQbcArvre9/zwP2eXK/JPisKHB4iyErvB81LMhhqZX3vebQ+A4eiujgFygxWqKYrUs1ct5Wt8r0Nb9N6haLnRUsnP1Prfk4ap97j9frVapftgg3QlV6HNgz63J9L7/C3Mx9WtEVOKLtmXq/d0tcxi3xeHq+qz6fuXK+0yhStWGVbRU4zkBVZt/rBMijIQK/fGYvkJf/R3D4pvTbjSHtbW13/3yl7/cfOEAAAAOgUAfAABghpyKQN8bp+MO9FnfYcAaDtNc/giFFy6Qzx8iq9Vy9J7WbRDoTzDQb6P32j9q25aheqtzeD8qLSQmDui9bhHSi5CYq9C56l59vBKH+31CYov6c6L/vPqznIbKm8nmgQw+K4B/jivGTwg+A8HKFfrqhQ/aiBkKW9pBG0X9/7wW3ou2OdyuaswDKoxf7ynOIXAodYrUd2m1vEGuRpX2innaSG5SLrUu3ov6DBDG/edjC6utQbo8L6Qnu1scnBwWh/JOh518Xg+FAoFWeM/Dajm852G1XJU/KLzf4ZY5O1na2E6JljnZ3T11kymJ+8TB07YZKYftg6cBgf54WoG+J6puJyY6wNgK9CUE+gAAMNMQ6AMAAMyQaQb6HLI3ww1jmTHQ91GeFhIJmp+fJ7/XS75ghMJzS4cHaCOQ7B6SHF1tRBDoHznQb+mu2lf1q2Q3tLd6V0g8qQpvPgOho5Jdfa4cdnPVPj/WWRwa3K11NkSlRhLx62RVtw91HZUrJCnqa8DB/TjhvcnnEPjkEs1Xd8Slrm4P7VX7zOXxi6/6IF29ap91HHS0OfsG+np4Hwz4KOj3i/B+Ph4V4X3A7+sb3uv97vPq+yy7u3sgvOdgv6aus7797hHoj20mAn03D9lHoD8MBPoAADAKBPoAAAAzZKoV+qrTGuiXtm5SZus+5bOpZqV+R4CWGK3tRR8cyCDQNzDQbyOq9nN7+21b1HUqwntu0bJbONieZZzwngNgDuj1kJhb5oR8B0JiIyq8RSV7uNlXnyvURYsakw8N7ibCe67iLvQ/G6LeUEiqNt+bFqdT3X4PCd35tebwXn3+Yj0EPCSp60QcUGlfLwask0mwqfvC9qr9UiHXGqTLXB71uWj7MK7a50G6gfhZstsdJNdrYmQAB/rd4X0iHqVELCLCez5geVh4n9vNU25vT4T3m6kdEd7v5QuHh/e9mDzQr+9tkUV9O5gx0K/vJclCDXXfGTLVY5N5f1ls/q6AQH94CPQBAGAUCPQBAABmCAJ94wwKk/Tnzb32s8k1Sj66TYr6uDjc517WrNn2YmXsqn0E+scX6LdoVfuSCI/lZlX+USq8ObjXQ2JundMeEh8WNhuA/92Oqv1iiRrb+/3nzVC1P7CVUUl93w04oMJhplLpE+i3hfLcfkisl1iwGd5zeyM+U2JAKyOz46r9uVpGVO3Lco12cmnaeHTnQNU+h/m+UJxii+dFq7BoNHYgvOeBtoeF91vJHdreyYjwPl8sjhfe92LyQJ9EmzlzVuhTSavQN9ljk3i7LDTb85kt0JerZZL4MxWBPgAAzDgE+gAAADMEgb5xhgn0dYrSoEIuRTsb91pV+862qn1/JEGJlatkd3pEZSwfCDgMAv2D77vY/e+TozK5OQX9DFXdzTj85fCe2+OIobTdFd7mDYn1qv1W//n2qn1Vv/ZDk3SglVFOXbf62RDjtDLiuR4c6KvrzuLldeBW30fqugz6mq2M1K9ktVKjUm4+172COGBzEtoP6fSq/aXKNoXqe7RXLIiq/eSjW2I/1X7Q0eFyHxreJ9MZSqmX7vC+rn7PkcP7XlChP7ZWhb7ZHhtvlyYN9Kmu7m8qu2JfPu1Av1qtZovF4o1UKvXcxsbGFzKZzEvPP/+88R/4AABwIsxmSQoAAMAp9R/+zb/443jQ9ay2aAhL5GLfcEDeelW7ZhxL/FpHqKPIVWqkbmpLxrHELvcNHoZ53harneJLFyicWCaHq7OfMVfNptZui0s/kneOLL6EttTEYXoj90BbMo4luCxC/V7k7P1mAGKwXu+7x7/6r8ib29CWjGP1+9V133t4rKL+nwiGOfC2WYYL/mcEV+o3dvPNoNtuI2s0TNZYWLv3aER4zz1eKlVSanUivvDyUUNhPliirgdeH3WbnWxWRbQQkqyDg+BGqdwcoruTFct8YMMSVi/erkHUJ8Qj5xxtOqJUsHrIG4xRMLqo7p8uivC+qq4L0SKnUqFarSaWG7y+pkCplaiRfktct8SumCv8VVU3XiWrpO4DQit995HTIm+9xhsaScElsrj3hyRPm9KQqbH9urhuiZw/eKB6ihqlNCm5R+p+xELWxBParcbjg2gOdR/r9fBBNXV/RZT9zndf/PW/+wu/8HvatwAAAIwEgT4AAMAM+V/+9T/9tZW497fsNkvvyYYTgED/oFGfNwdosTMXKBhb1G7Zx/2uM1sPRIV/OwT65gz05UJehPocdlsCPhEenzRcpS/vZDrDbvW58mUYzcr7uuhtL3rfy/LkwnueQ+BUX3O7un44tJ/AQRUjD2SYCa+XfMNBN/3nqeD0EzkDZA2taveag9kDfXnzFfEVgf7wTnug3x3e221W8nk96u6r90HH6zdufuG1N25+4Zd+6Ze+od0EAABwqMGlLAAAAGAqf/ofv/rt3//DL/3Td7/n/fe4/YER7XfQcucgpcjh+/DhJLfYybX12ne41D/mbc2ginvtR+ZXRCU/03vtd7fc4VBAatSoUWqGrEYya8uduTvfnnrLHaVWFWE199rnwPs4W9QcF65u7+i1z0ODuSWPPjSY5wBor49S51kD9WbbnL0SKTltiHDbsNqx5hBweM8ti7h1kcFDhEX7IT5oMcX2Q5MmDqTU29ZLRt1u9orkyOdp1x2iglt9rjanGIprJnK9SlJZ2weasOWOkm+2NJfU163fPnJamp/HJuzvb+KWO0qdh53vkvqBTBb1d42j4s/pwwZMu9TPl35trjLZXfX1sT2TmJv7zGOPXf7CV77yFbTcAQCAoaBCHwAAYIb989/+7ZWFmPvXl+KeX9duOjJL+FzfirpTW6HP1YbK0VpSHFa1v1csk8MXEX/884Ur/PKZLbp//dvadxkHFfqHVOjXmkFvB4tFVHVzKHxiq/Y3k9TIF0XobQkG1KesvkZHrbpnPIdAff1alfcc5HcFXsetV9U+t+Q5rJXPNIjwXt0fKaXmwSYxe2DAerl55knaDp9Bhf4YUKE/upmo0LfayRq/qt06nPbK+/bP6X6V9zoO78uVKhWKpVabK17u9sILL6z+5m/+pvqBCwAAcDgE+gAAACfE737+c39/Pvz/b+/egxs7z/uOP7jfiAsJ8LbkXrQrrVeVLK/sceq4dbSuGrdV6nY9cf6pM1lO0j8cTzJioriV26p2vKNYiqp2FaeJMnXH1riuPW0mUadRRnGd0dqNmpFla1aSLWkl7Yp75S5vAIj7vec9OOCCJEACIEAekN/PDIxzDrgWyAOAuz/88LzuqZDPecI41BEC/fW6EejXqIVyq8H++LpZ+2vFF64T6Js10K+jFmOtjeTpRyvz7tUnEVRAXBcSF5fj1UDf7dYubbaAa/PubbZqeO/UfsYO+46H9xtZGT+0nNR/Du2OH+qmjc5LO8wc6BdzKbHEqmuLEOi3py8C/fAdpvr0QKuB/qqxOdrrl8/n62p43wiBPgCgHearnAAAgI78xfPfe/U7zz7/zF3v/8g3VNwT8Dk+Ur2lPRt9RH7PjtzRxwd0oZmsKZcKkozO6Qvk5rNp/Zjb69eva1QokMnmJJlYlnT0hnG0dxi5s8nIHRWsbqRQlHI8IaWFqPYHtMeJ9v+lRsSYUXXefak6miWTk0pCewyqsTmpjEhW+15VYFy69f2Wc9q5174ni92uXVafn1VUeK+a9163di61n2fAWx2b49eu1THVwrfbujIyp5dWxg9FtNdBn0fKqXR1JE+Pz22756UdN/1jkvForzEmHLljKee11xhG7nTCrCN3ymoNDX1MnTqn4XWv6zvJqr38lNNL2ob2PDdG7tTG5gyFghIeDOrjclaNzdFn4dv1r6tX+z0d0177F6IxuTm/KDcXliS2nNCethnJ5wtSVD+LFl29evUMI3cAAK2ioQ8AwC7WSWvfdA191fabf8PY653taug3olr7oYn3ScHi0pt95boAWX1CQc3w7+WbGjT0t9bQb0SFwVb/wI4utrrS8M5pjyEVBqumaJuL1TZs6Nea9yrYTuekUixIxWHTzmFQn0+/G6kZ+/pInmxuy+e2G+elHaYeuZNPSjl6Ud+2Dt9lukCfhn77StrrgSy8qW+braHvHxiQgxNj+qffLNrzweFwtNS8z2u/AwqF4krzfu3v6W44e/bsoUceeYSGPgCgJeb6GxMAAOiqWmv/fff+3WctZcm20to3X0O/IpV0dYG9XrK41ffduEnYzYZ+I6q1n8mXpSBO7dtd/d9RAZfF5Rd7YFxcHp/YbRYp5jPGrd1BQ3+LDf1G1JiUZLq62Kpqaap2eg9b+ysN71SmuiiqanirxWpVw1stVqsa3h0sVlsuFPQ1AqxBv1hDfrGoxn3QW23e6018n3byLPonFFSTXTXaVZPc6jVPiNcNVp9XbEMhPcxX39/KQrqbnNtVzXvtnHTrvLTDzA19UW9Y1hr6vpHVr/0mYOaGfjFxU2+cW9XvbBPdN4v+qbqdb+irRn05l5BKJipe7S4cPHREItpzWFGfinO5nA2b96p1r9r1teb99ZvzsrAUW9W8X/t7uhtmZmbOvPDCCzT0AQAtoaEPAMAe88dnvvLg5JB3yu91HDcOrbJhQ7/HTXVlxxr6DRriNdvxfaswyzowauxVWStFCQUDEggOitvlXGkR5rMpfWSPunQDDf3uN/Qb6VZrvxoSF/VAWF8gVYXKKjTeKtW8d9pvLVarHm92a9M3O9YqZ7JSji1LeTGm7+vz5we1i8+r7+82+kK62vdbSWW054/LmLfvF8nmbp2XHjbvW/XTfffI0tA+Gvod6IeGvtnum/pUWXn+LX17uxr6KpT3uFzGgrVObd8iAz6f/rty6cZlvZGfTcVlcPSAvjB9bXF6Fd6rpr1q3Nfa991u3rfqxRdfDD388MME+gCAltDQBwBgj3nu+b9+6dt//vyf3Puhj54tliqxta39jRv6vW2qKxbv0OpQZ7sa+g0a4jXb8n07feveSFHtwtT1N0S1WNXs8dqsfZvdKf6hURk9eKc+rkeNOCjk0vptHXH5m4cu2n2QYtbY6Z0dbeg7nU2DxI4b+o3Ut/bzheoCsZu09vVguKhd9IZ3RipR7eehWt7pXLXhXSx11vC2Wavhvc8tlgFPdd59aKC679J+Huq+aV/Tzsx79Wf0+fMjYf17q6ixFHNL1QVmtfu4m1r76k0Vfd6+06W3ysvJlH5uLSrA189Zh+elB+b9ozT0O2TqGfrJ6voqprtvPW7oq/De63bLYDBQnXmvXfaNjuj7KtBXzXun9pquqN+VA6Fhiew7LHa3X2KLN2Tx2juyMHtJFrJWWYrFV5r3Be11thfN+1ZduXLlse9973u9/zgcAGBXoKEPAADka3/w2BdHQ56TqrVf39DP5/OxXC43szA3dzadzZ47EiqecditPU2E1s6y38sNfTXuphy/bOxVZ+1HJo5IMDIuTrfPOFq1lda+JaBmMDdujZfjV7T7UW1c99KONvQHBqTZgq/dbOg3Umt2q9Z+rdVdUUG9auCr/W4ETGqxWqu12rw32vettu63Sr1xUVqM9nVrXz8v6vlf+0SEOj9150WtIVBKVt94sgWDpgul3zhwrywGtNcWGvptM3VD36T3rZsNfTUSx+lwrDTv1fVm8+7VYrV57fWzoL1uq6A+m82vNO/LqXmpJLTfKXa39pp71PgT5kBDHwDQDgJ9AACw4qnHH70vGA6fSGaL51SQ/9BDD71q3KT7P9/5wyiBfm+0EujXU6MDAuHxldEB9ZZuXJLozcuSildbkpsh0N+5QL/G4nKJzbPFkLtusVq9+e/ULtsY3m+mfkSNul+28OCOLhrcSC28r2TyLb+pQqDfOTMH+iW1YPH8T/Rt69DhpqPodspuC/Sro3JsemjvsNskoMaTbRLel43wPpvLVS914X0jBPoAgN2CQB8AALSMQL932g30a2qt/aGxA/p4gXqttvYJ9Psw0K+F92o8jjE+x0zh/UYatvYDA/plu+jrEKjxOGoMkgruWwzvG1GBojWV0LcJ9NtDoN+5fg70a+G92+WQgN+v77favK8P79V1OzPvCfQBALuF+f/GDwAAgKbU7PzZi6/LT//fc3Ll/I/1xf9q1FiefUfukXt+7lMyefSD4gtGjFvQTyrqzSQ1NseYdW8ZGRTL+JBYR7WLmnvv91bn3vdBmK9YnA6xj4+I8+6jYpsYlUqpJMXL1yV//qKUFqL6fjep8F417yuJtJRjSSnPx6QyuySVOe2/FU2IJDPrxui0w2HpwlgkmI6V89oRp/Ems3qzWfTQ3in+AZ+MDUfk0P4JOXb7bXLk0AG57cCEjI+ONByjo8J7tWDt4lJMZufm5b3L1+Tti5fk4qUrcv3GnCxF45LOZHZsAVsAAHaaeSoQAADA9P7R/f9gzOOyHbNZLT1bgc/ijaxuaVb27qK4UsxJJdd6YS+bikt8/pos3ai2+t3eAb0FqXgGQjI0dlAf1aOkE9WFKBWLK9CwRakWHyxntf8+i+Iae71jsdvF6mj8+FOfDiklE2JxO/X58+0uVmtmVo9bbKqhr13Uz1m19svzS3qLX1FvVLRDb94XStVFhDPa8yeuPX6W0yJqzI8K7VULXzWvu6hQqohFPU40VrfbdOdmPjguGdeA9hz3mm4OvKkXxVW/e/TXfvX61Hyx+J1itgV71e8Ll9MhAwNe2bf/sAxP3q4vWhseGpJgwC9e7bmu5uGrr6unwvuc9nxfXk5KPJGQuflFmVuM6gvWJtNpPdjv1oK16hMhkk9pd1Z7vfWGjaPm8JnPfOYLxiYAAJsi0AcAAC37s+e++1ff/NO/fPwjH/3YjPrHtc9tP2bc1DUE+nXKxY7G3ZRLBUlG52T+yjuSz6b1Y26vX79WY3n8Q6MyevBOvUFZKhakIHaxuXzicbslFAzoIUxkaFCGQgEpZeP6GwW9RqC/UaCvPQcyGakk01KaW+w47DYzi80mVr9PbMND+uigSjanB/tq7r5+u/bzUV9Tb1V4n0jrl3Xhfbn3LeuSdj/6ItC3ewj020Gg39RKeO/zir2Sk8z8RbFoP6uQ9hwOBoPicFbvT+0N5ZpWwvui9jXdCO8bqagw36SB/te//vXfNTYBANgUM/QBAEDHnjh9+uB4xDM9OeydNg5tGTP0b6nOl37P2NuajWbtJxIJ8furgf9aaoyPWmC315ih33yGvnoOlJaXjb06Jl1YtlvUGxdqEV091C8UteeIR2yDoersezWWR133KPhrR7/M0Le4B8Ua3G8cNYdiNiGWePU1zmwz9PXfPeq1X2PqGfo9vm8qvHdqrzVer0ec2uuk2+1qOPNeX4xdu6jF2NV4t0BknwxE9ks6nVmZe6+eKzs5JqecvFl9I8SEM/Q/9rGPkc0AAFrWH4M2AQCAKX3+kUcu/fKv/85vnfj05yxvXV2eWohnzxo3wWQ2mrXfKMxXTclUOiP5bQiz0aFCUUo35iX/k7elePWGlJd7/2mG7aDPvM/lRbJ5sVjtYg9WW+WVVEbK0WX9uN7MN0GYr9hl5wLKfmezkmGaiQrvVVg/NBhcmXl/9PBBfeb9+MiwhIdCTWfee0JjEjpwj/gn7tJD/dkLr8mFixfkxvyCxJYTktWe08y8BwCgO/gbFAAA6KqttvZp6N/SzYZ+I7XWvmpRFgoFSWUyks3m9SZlLXgpx690NPanXTT0O2joN2K09quz9s3Tdm6mUixV2/a5gvZ4LzZcnFYtClyKV0fvWH0+sTrMNfqkXMhLOZXSt2not4eGfmdKah2I+Z/o253et7XNe/1avX5s8rqhwnvVtFfNe/U7Q/3uqG/eVwoZKS++o29bh4+ZalTRSkPf6RPb0BHjqDnQ0AcAtINfGgAAoGeePvPYqbFB91TI5zxhHNrUng30vWGx+vcZe1W9DvRrLIFJsXqaj20pZ6JS0S5SqIaWvUCg36VAv45aaNYaGNAvZqAH9trzqJJRDXttW9/fvGVfH+hvdK52CoF+5yrZuJTjl/Rt2+g9+rVZ7KZAvz68t1osEvAP6AvU2mwbP1bVf0d9SiuRTOkN+7XhfSME+p0h0AcAtIOROwAAoGc+O/3wMydPTX/8b99ZOH51Pn3GOIw+o8J+29BhPXT3DK5+0wHmpebPFy9fl/z5i1JaiOoz6beDPjInX5RKKqvdh6SU52NSvrYglTntPszHRZLGorUmGZkD9Burpflzp35szr6xYTl8cFKOHj4gRw7tl/GRiIwOh8Xjdq0L81XzXo1Zm1tYksvXZuXCzBV569335OKlqzK/GF0J9ft5bI7+RogJmfV+AQDMi3eBAQDAtlKt/Ykhz7Tf6zhuHFrFlA39+bdUDdfY6w2zNvSt5ZyMjE6sWwhRLYB488q7Usi03xxvhIZ+9xv6jXS7ta/Ce31x2lxeKiqUaqN53yoa+ltDQ78zZm7oq9D+yP4RWbh6QdJlp7gHQhLw+8XhsLc8NkeF8yrAVyPWCtrzVu13Aw399uXz+dj999+/O1c3BwD0BA19AACwrVRr/5O/8uC9r16InmiltW+mmcp7UTExJ3PvvCTppWurQqKhsYNy54fvlzs++HF9Dj/6w6rW/txiW639leZ9Il1t3t9cksqsdlHN+3iK5j12lZLJmujqDQYVlg+HB2VibEScbp/su/0euf3oMZncNyYBv89o3q/+nbm2ef/2hUvy1rszMnPlutG8T3ctzF/HYrLf39rPEACA3YBAHwAA7IgH//W//f4v//rv/NaJT3/O8u715S8l0oVzxk0rEsvLM0tLS2eNXeyQQi4tsxdfl9d+8Ody5fyPJb5w3bhFxDMQkn1H7pF7fu5TMnn0g+L2BY1bYGqFoh7oF95+TwrvXZHyctK4oWpVeL+03Di8L5QI77Fr2aw7909l1cC326x6eL9/35jsHx2SgdKS3nxffPdlycVnJZ9dv6bJ2vD+zXfeWxfeF4pF46t7o1TmNQEAgF5j5A4AADCNpx5/9D5faOh4Kps/l8lkzj388MP6nI2zf/pHPU8IGLnT+NP+5fgVqWRjxt4tDpdXb+YPT95uHLklk4xJ9OZlWbh2wTiyOUbubM/InQ1ZrWILD1X/gaDG6JgkrGfkzta8uv+DshwcYeROmyol7byq136NNXxH098PW1Wbee/zerRrlz42RzXtGykV8/qYnfjCrGRTcfEFI+KfOCbZfFFS6awp5tuvGrkzcpepPmVXXr4ulfQCI3cAAH2PQB8AAJjetgT6g7c1nZFMoL8+0K83OHpAAuFxCUbWL5irZu2rYF+FTxsh0DdBoK+x+nxidZhn5rVSKFfEslx9DBLot48Z+p3pRaC/Nrx3u53idGz+eM5kc3pYr9r3+tz7TEYKN17XbzPbfH/999bSRX2bQL81BPoAgHYxcgcAAJjefDz7rLEJE1Jt/EtvvCRvvvRXMn/1Xe2Iev+lehkaOyBHP/RxOXj332PWPjpit5jjkwL9qlChw7UTHHa7eD3ulbE5x24/JHfecZvcdmBCRiJD+sz7RmG+Cu9VaD87tyDvXb6mj825eOnqyticdCZruvn+fcdss/0BAGgTgT4AADC9X/q13/7Uy28uHlKL6GbypY3r4tgxt2btPytXzr+ij4WoCQ4Ny74j75d7fu6kjB9+//pZ+xUWKwR6wWK3G1voFdW6XxveHz1ycFV4v3axWkWF98uJVMPwfika18P7TcfoEE73vTLrDgAA2kSgDwAA+sLnH3nkklpE95/8i98cfOvq8hStfXO71dr/rsxfXT1Lf3jyiN7aP3zP31/X2q8Pxmw2/qoKkWIfNczNNm4HnbPZHPpaIWvVXqOGgn45tH+fHt4fObR/w/BeLVarwvtofHldeH/l+o3Ww3sDDf3dpVIpU1QAALSFz18CAIC+9cTp0wfHI57pyWHvtHGoY8zQ73yGfqvUrH11GQhFjCO3JBNx8XgHVgVh7q99Xmxz1fnavcQM/VvMOEO/nxbFtYfMNwb7tdt+RuK+IWbot0mNzFEt+2RsXrKFinh8fj3Mb9S0r6fC+3yhKNlcTrvkJZutXndzwdpisSCWhTf17V4u2NuJvpih7wqIbfCQcXTnZTKZmU984hO3GbsAAGyKCgkAAOhbtdb+iU9/zqJa+7FU/qxxE0xItfYvvvY3DVv7A/7gpkEZ9qZ+auijP6nFaiuFjBSSS2JJz8vooE+OHJrUbxsIDUtkeERfyLZZ835xKbbSvH/7ovY6d+mqXL8x33bzvlW2PllXwkxhvsInGwAAuwX/agIAALvCXzz/vVe/8+zzz9z1/o98Q0UdAZ/jI9VbWmPxDIrF1riZrDf6Kr0NAiwOr1hcfmPPUMp3rR2/EYsr0LThWcktixSzxl53lEsFSUbn5OaltySfTYvN7hCbwyW5fEGWl5MSTyRlYTEqKatbXMtz4swljT/ZG1ans2nwVCnktTvc+xBIzTm3NlggU1epaOchZ+z0lkX9LEz2xooaL23JVR+DG52rnaI+QVH7FIfVbZ6mdM3NwQnJOT3aY0y7uNesXbHDSvmsWPLVT19YB0b1615T4b3L6ZABn1dCAb9EwoMyOjwkY2NjYitnpJSJy9LVtyUdX5RSsSC+wJD+51R4v/Y16ubCkizF4pJMZ/Rgv1Asak/XbQjbK9pjTv1e0qhPd1ls5vnUSimf056v1d9b23VOW2XJaY819fvM7hKrJ2Qc3XnFYjH2zW9+8yljFwCATVF3AQAAu9bTZx47NTbongr5nCeMQ00xcqf3I3c2stHP3z9/UQavvyFj775oHOkuRu7cYsaRO4VyRSzL1ccgI3fatzJyxxtZ9xqz04rpmFgSl/XtXozcUeG902EXu90mA16vuN2ulsbmJONLcvPyO5Jauq7veyfv0R6H1q437TtVKWmPOfV7SWPmkTu2MXONUdJ/n2WijNwBAPQ9Ru4AAIBd67PTDz9z8tT0x//2nYXjV+fTZ4zD6BMqjFPhm+PovZL/h6dkbvoZyWnXpZGDxldgL7ALYzJ2K6vFOLddWEy49noxNBiUseGwTI6PyNHDB/QFaw9O7pPwUKilsTkXZq7Ilbm4ZGwB4ytEspmMacJ8syuV+mMcEAAA/YxAHwAA7Hpf+MK/f7V+1n4iXThn3AQTsySuSMCel/GRyEoYV/yZX5Dsv3xCMp/5ohQ+/IDxlQD2krXh/eGDkyvhfe31IhjwbxjeX5ud08P72sz7G/OL+sz72gK2pRIBfidstTdpTMxsY7sAAGgXgT4AANhTVGv/k7/y4L2vXoie2Ki1n8/nY0tLS+cuXLjwpUKh2PuZM1hHzdefvfi6vPaDZ+XK+VckGavOjFbKB++S/M9PSerf/A9a+8AuVh/eR4ZCDcN7j9u1YXh/+drsuvA+tpxYCe8bsdnq/qlMAIweKqqFQgAAaAMz9AEAwJ73jT/6/S/6w/uOJzLFc8lk8lwul5t56KGHXjVulue/9dX33C5bTwfuMkN//Qz90uI76xbkdbi8Epk4IsOTR4wjt1gv/VQKLz0vgXdfMo60xvQz9EtFKSUSxl5vmXGGfv0aAmacoZ/PF8Sari7czAz99rhsJbHnlmR56abYRu5emXnv9XrEYbOJz+fV9zebea/C+3yhKIlkSrK5nBS0bbW/lTE5RbVg79Lb+rZ1+FjTRdN3gqln6GfjUo5d0rfNOkNfLYJvDe43ju68RCJx7oEHHrjX2AUAYFME+gAAAJvY9YH+wLhYfRFjbzWzBfr1BkcP6JeB0Pr77vi//1Ns538otrlqsLQRAv1bCPTbx6K4nVHhfSjo11v2+WxKSmLvOLxXTftuqxQyUlavQRpTB/pmu28E+m0j0AcAtIuROwAAAOhL0ZuX5eJrfyNvvvRdmb96wThaVfjYL63M2s/c8TPG0Q5Y6L8AW1Ubm2MvJqQUmxFn9qaMBh16mK843b6mY3NS6YzMLSytjM15690ZfWzO/GJUEsl0T8J87E6siwAA2C0YBggAALCJf/zz9x8K+BwfMXZ7wuLwisXlN/YM5ZJUMkvGTu9YnH7t0qQdnlvesCXfLaoxubZlqn/v5aKx11y5VJBkdE5uXnpLn7tvszvE6a5+P5XQiFTu+qge8OuyKbGm4tVtg9XpbLpIot7OL5WMvd6x2O1idTRpnlfKUslvT2hpUT+LTRrS265S0R6HOX1zo3O1UwqlslgK1fNjdZtn9EnNzcEJyTk9jV9jekCF9y6nQwZDAQkPhvS59+OjERkKBSUyMia+Ab/kUjGZv3JefyOuUinpz1mrzaHPvI/FE7IYjcnCUmxl1n06k9VHGxW34bm4Qnvtqb3+WnwRUz3uSsWCWDKL+rbZ7psUc3pLX7tTYh0YMQ6ahPq0WSmnjyiyuIPGwZ2Xz+dvfOtb3/oTYxcAgE2Z7G/rAAAA5vNnz333r+56/0e+oZat87hsx2xWi7t6S/c0DvRvBUq9tGGgX0iJFDLGXu9sJdCvl03F9eb+0o3L+r4vMKRfK2oh3eIHPyGlA39HLLm0WBev68fXhsQVp0dKo4clf+xnRZLLYklGjVt6h0B/AyYP9C3qjTdjLNNeC/RVeK+a9Wp0ztrw3uf1iMvlFIf22K6n2vj+8LgERm/Tnl5RWZ6rPl+Xcs6dC+8bMXGgXy4V+yDQt5gu0NfHx5kw0E9ncje+/e3/TqAPAGgZnyEGAABo09NnHjsV9jtPDgfdJ41DW2Zxh9bN9NVnOC+9a+z1zoYz9BPXpZKuBke91MkM/VY1m7VfyKTF+6PnxB6/IeXRQ1IK75esdrEHw8ZXiDj/938Wx+vfN/Z6hxn6zbEo7tZ0a4Z+bWyOCurd2uPV7XaKs9mbUHXyhYI+516NzlEz71Pp7MpiteXMklSWr2pPAKu+KK6ZmHqGvonvWzEdE8vy5eo5HTXXOS1FZ0Ryy8zQBwD0PWboAwAAtOmz0w8/80u/9tufevnNxUNX59NnjMMwqdqs/bd//MKqWfsOj1cfxZP5p78puQ9/UoqHj68K84FW2GX3zeWulMvi9bhlODwo+/eNybHbD8mdd9wmtx2YkJHIkAT8voZhvhqZUz/z/s133pN3Ll6WmSvXV2be18J87E42ax90Bi3m+pRPsaQ+/wcAQOsI9AEAADr0+UceufTLv/47v3Xi05+zvHV1eWohnj1r3AQTUuN4Zi++Lq/94Fm5cv4VScYWjFtuqQWSs3ML8t7la5JIpoxbgP5UqGwcsKqROGvD+7vvvGNVeL92sVqlPrxXzxUV3qvFagnv9za1JgLaUykXY8YmAAAtIdAHAADoAtXa//Sv/fbHae33h/rW/uzs9XWB5FI0rs/yTvhHjT8B9KeDR+6WQHhc31Yjc2rh/aH9+/Tw/uiRgy2F98uJ1MobXWvDe/Vc6SS8L5dpJgMAALSLGfoAAAA9ombtjw26p0I+5wnjUFPM0O/dDP3NNPpv1yvns7L/3b+R0PU3xBefNY52FzP0mzP7DP1yPifldFrfNtMM/VJ4UvJOrxTuPyWVQOPn91qlUknyhWJ15n0mI9lsTrK5fM+a9maeoV/MpcQSrY7oYoZ+6/RzGjfOqclm6BcW3xNrIVFdTyLQ+XoS3ZDP52O5XG5meXn5XCwWO/vZz372GeMmAAA2RaAPAADQY1/5ypc/sD/knZoc9k4bh9Yh0G8Q6C9dFCn0fuTNZoG+UlsQdDw1K8GfviD2t182bukOAv3mCPQ3li9rP5fhSSkHwpIbOSzXU0lZKJXFPTSuN/OHJ283vnK1WnivFqpVoX2vw/tGiqlFsSSvaU8AFsVtB4F+Z0pLF7QnTGrbA/368D6ZTJ5LpVLnMpnMuYcffjhufAkAAG0h0AcAANhGqrU/MeSZ9nsdx41DOgJ9cwb69mJCRsb2yWB4xDhiyKbE8fJfSuXV74trec442DkC/eYI9G+pOD1S9oelFNlvXCb1a3GtfuxkkjF9rNTCtWrDfHD0gARHDkrJ6tyx8L6RlUDf6hDb8J3GUXOgod+ZvR7oE94DALYDgT4AAMAOeOrxR+8LB1wna619An1zBvrl+BWpZGPiC0aMtvMR45ZbrJd+qof7W2ntE+g3t1cD/Vp4nw3vF+tw8/B+rVrzPp3OSL5YlKULP5RSIVcNMf07O2ZkrXJqXirJWe2BZ75Av5JPaq+/2muQxjpyl1is69cW2CmrAn2T3beVQN9mvnPa7UCf8B4AsFMI9AEAAHbY1/7g978YGQmfsHgiEo1Gz6pgQIUEKnj40B2Rc8aX9QyB/uaBfr3IxBG98ewZCBpHDEZr3/7aWbHG542DrSHQb24vBPq18L44cVS7jnQc3uvX2n598760+La+FoXFNyrWAXMt8kyg35liLi2WaPXNXgL91m0l0Ce8BwCYCYE+AACAST35lS9/gEDffIF+TTdb+wT6ze22QH9teF+9DnclvG+EQL8zBPqdKSaNMUpmDvS158FGzwXCewCA2RHoAwAAmBSBvrkD/Xpbbe0T6DfXN4G+xSL2YMg4WtWN8F6feZ/LtRTeN0Kg3xlTj9wx8X0zc0M/dePtmFuyofpAn/AeANCPCPQBAABMTC2iG/Y7Tw4H3SeNQ11HoL/1QL9mo9Z++fyPxPP6Cw1b+wT6zZk90M+/72elMHxIbO/8SBzFjB7a1xatbTe8T2UyUtC2Ow3vGyHQ7wyBfmfM3NB/5ZVXTkg2KcGh0MmixTVDeA8A6FcE+gAAAH3gidOnD45HPNOjg+4ph926uga8RQT63Qv06zVr7RdjC+L44XPifueHK639ZoG+3vC2O6VyfcY40lsE+q0pWu1SDoSlcuAuKdx2XEoT7zNu2VgtvE8kU3rrvtvhfSME+p0h0O+Mfk4T2jnd4UCf5j0AYDcj0AcAAOgz3W7tE+j3JtCv2ai1X3n1+3qw77j0mliDYb3RXTh8XErh/XpgrPatsTnx/Nd/ZfyJ3iLQX682Nqd2XmL5vMxG5yRTKOjnVr1xE4ysX2BzJ8L7Rgj0O0Og35mdCPQJ7wEAew2BPgAAQJ+qtfYnh73TxqGOEOj3NtCvF5k4bLT213zIIpduOprFenOGQH+bAv214X3tTZVG5yYZm5eFaxdkeXFWrDaH/oaNCs1r4b2afW8GBPqdIdDvTK8D/WKxKCqsTyaTKsA/S3gPANiLCPQBAAB2AdXaj/idU5Gg+4RxqGUE+tsX6ItU9P9VzW4V7A+NHdT3G1ENbxUKF6++K/v+9LRxtLdMH+j7/WKx2fXtrVLhvZpzr8+8r4X32v5mauclpS9Ym5PM0nXJRS9rTySr2EbuNr7KPAj0O0Og35luBvqE9wAANEagDwAAsIt00ton0N/+QL/e6MFj4guNisXhWQmJs9m8FIpF/XZv7Lrc/ddf1bd7bbcG+mvD+9xAWGwj7Yf39eelppxZksryVQL9DhDod6b+vtnG7tGvzWIl0Le7xRY5ahxtTSKRILwHAKAFBPoAAAC7lGrtjw26p0I+54atfQL9nQ30FYs3Ilb/+jnsNZGZH8vg9TdkcPYN40hv7IZAf214X4pMSiXQ+PFdL18o6KNyauF9Kp1tad49gX7nCok5saZvmDLQL2YSYom/p2+bLdCvv2/9GOjTvAcAYGsI9AEAAHa5zVr7BPrmD/RrnKmojL37ooRvvCWOZPfPixkD/bLDLeX5WX17baCv5turSy28V9fN1iKol8nm9LC+3fC+EQL9zpm5oW/m0NzMDf107MZMJT4rbp/vkAr0a+G9dpmJRqOE9wAAdAGBPgAAwB6iWvsTQ55pv9dx3DhEoG/yQF811H0+nwQGfOJ2u8TtcorNZhP7a2fF9vbLYtcu3WLKQN8flqVP/zvx/ug5sS/flPLIQckO7RfLZPvhfTXAz3cc3jdi9kA/P39ebOUcDf02VbJxKccu6dtmC83N+maDCu/fe+/Sl371V6d+96knH79PtfQJ7wEA6D4CfQAAgD3oyccfvW804DqpWvu1QD+fz8dyuZwagaBGIZxTTcpRb2VqbNA5ZfyxntkbgX7jMF/ZMNAvZETiMzI8eUQC4XHxDISMW6ossTlxvPyXerhvjc8bRztjlkA/6fZLUS2qeeyjenBfmnifccvGauH9cjIlWW272+F9IzT0O0eg3xkz3DfG5gAAsHMI9AEAAPa4p7965lSubJlpFMb8tz/+D/+pnQV2O0Wgv3GgX156x9gT8QUjEpk4IsHI+q/famt/uwP9fFnENjwp5UBYivvep8+7T7kDshSbl4VrF/SvUd/r4OiBdW9kqPBen3mfyWxbeN8IDf3OlZM3pZK6WZ23Hm5vAdVeI9BfjQVrAQAwDwJ9AAAANEWgb75Av8Zqc2za2q+89gNx5pLG0c3ZBgbEYncYe92lFqtV43PUgrXVy6R+vdHYnPmr70r05mXJpuL6Gxne0aOSzRd3LLxvhEC/cwT6nen1fSO8BwDA3Aj0AQAA0BSBvnkD/Xrdau13K9CvhffZ8H6xDrcW3iulUknyBRXYVxv3evM+nZTC3Bv67dahO8Ti8OjbZlFMLYolec20gX5p/k3tgVwg0G/TXgn0VXifYcFaAAD6CoE+AAAAmnrq8Ufv2xfxTA8H3SeNQz1BoL+1QL+m1tpXI2qcbp9xtKrW2lcBvyWXNo6u1kmgXwvvixNHtetI2+F9Op2RfLHYdGxOpaQdW3hL3zZjoG/6GfoE+h3ZbYF+beY94T0AAP2PQB8AAACbeuL06YPjEc90OOia8jhtq+e7dMHeCPSVxqF+twL9ep209jcL9NeG99mh/WIdmexaeN9IMZ8VS/RtfZuGfvsI9DvT74E+zXsAAHYvAn0AAAC05ekzj50K+50nu9naJ9DvfqBf005rvz7QXxveV6/DbYf3+rW23+nMe9M39FPzUknOEuh3gEC/M0uL82cTsxfOTUa80+q+Ed4DALC3EOgDAACgI7XWfjdm7BPo9y7Qr7dpaz96Xcqjh/SROTsR3jdi9oZ+3wT6A+Ni9Q0bR82BQL99Kryfm5t7dmpq6nfV/mOPPRYkvAcAYG8h0AcAAMCWbbW1T6C/PYF+jcPlNYL98XWt/Wbqw3t9wdpcruvhfSME+ltDoN8ZMwT6KrxPJpMzy8vLNO8BAMAKAn0AAAB0TaetfWvwgFjcQWOvancE+s0Xwq233YF+PTWKJxAeX9Xarw/vU5mMFLTt7QjvGyHQ3xoC/c4U0zGxLF/Wt7cj0GdsDgAAaBWBPgAAAHpCtfbHBt1TIZ/zhHGoKQL9nQv0a1Rr3zd+pxTKlh0L7xsh0N8aAv3OrDT01Xkd7e55JbwHAABbQaAPAACAnmqltd9/gX6joL7RX637J9BXrIOHm/4sdkr990+g3z4C/c6sNPS3GOgT3gMAgG4j0AcAAMC2Ua39iSHPtN/rOG4c0hHoE+g3Q6C/NQT6nSlnlqQSv9pWoG+E97FoNPos4T0AAOgVAn0AAABsu6cef/S+cMB1stbaXxvo5/P5mC15NdT/gb6yeahPoN8cgf7WmDnQLyzPijUz35eBPuE9AADYKQT6AAAA2FFf++rjDw6OTJxIZIrnksnkuUQiMfOFL3zh1WefOfNCK/P3t6p7gb7SWUufQL+5vgn0rQ6xDd9pHDUPAv3OXLt27RuxGxfPjg36ppzDd4QI7wEAgFkQ6AMAAMCUCPSrCPQJ9LeiLwJ9h09sQ0eMozur1ryfnZ098xu/8Rv/yzgMAABgGlbjGgAAADCVQrHcKEk3CXoxwFbZLJu/2dVLKryfm5s7e/78+elXXnnlxIsvvhh64IEH7v3FX/zFjxPmAwAAs+JfIgAAADCtM0/83qmJIffJ4aD7pHGo6zpr6CuNwkga+t1GQ39r8jffEJsUzbkobuK6VNIL29LQZ+Y9AADYLQj0AQAAYHpPnD59cDzimY4EXCfdLtsh43BX9D7QVzYO9Qn0myPQ3xozj9zpVaCvwvtCoRCbn58nvAcAALsOgT4AAAD6ytNnHjsV9ju71trvbqCvtN/SJ9BvjkB/a3Z7Q5/wHgAA7DUE+gAAAOhLtdb+5LB32jjUEQL9Wwj020eg37l2A33CewAAAAJ9AAAA7AJbae13HugrjYJ6Av1uItDfmn4N9Jl5DwAA0BiBPgAAAHaNTlr7BPq3EOi3z/Qz9Od+ov0Qy6YM9M+fPz9dTM7FwoODJ60DIyHCewAAgM0R6AMAAGBXUq39sUH3VMjnPGEcamh7An2leahPoN+c2QP9QmJOrOkbBPotqh+bE4/Hzz700EOvGjcBAACgBQT6AAAA2NU2a+13P9BX2mvpE+g3R0N/a3Yy0GfmPQAAQPcR6AMAAGDPUK39iSHPtN/rOG4cItCvQ6Dfvr4J9AOTYvUMGUe7rxbeL87Pn02kUmcJ7wEAAHqDQB8AAAB7zpOPP3rfaMB1UrX2a4F+Pp+PJZPJc9Fo9Kxxfe6OMe+XxgY9U8Yfa6JRUE+g3y1mD/T7ZuROFwN9wnsAAICdQ6APAACAPe0Pn/qP/zyZyZ9tFEh+5788+fX2An3112u1X7tuDYF+czT0t2argT7hPQAAgLkQ6AMAAABNtB/o1xDodwsN/a1pJ9CvhffqUypqwVrCewAAAPMh0AcAAACaaBzotx7Ut4pAvzkC/a1pFujTvAcAAOhPBPoAAABAE2rW/oGIZ3o46D5pHNIQ6G8nswf65eRNqaRumjbQf/HFF0Mhd/nk8OjEyXiqcI7wHgAAoL8R6AMAAACbeOL06YPjEc90JOA66XZZDxmHN9H62B0C/eYI9Nuztnn/4IMPft+4CQAAALsAgT4AAADQhqfPPHYq7HecXN3ab4RAvxsI9JtjbA4AAMDeQ6APAAAAdKDa2ndPTw57p41DaxDod8OqQD9yTCw2p75tFtsV6LNgLQAAABQCfQAAAGCLnj7ze6fCflcLrf3GCPSb24uBPuE9AAAAmiHQBwAAALpk89Z+YwT6ze32QJ/wHgAAAO0g0AcAAAB6QM3aHxt0T4V8jhPGoaYI9JvbTYE+M+8BAACwVQT6AAAAQA+10ton0G/O7IF+Onp9xpVfOLQ20Kd5DwAAgF4g0AcAAAC2iZq1PzHkm/Z77ceNQzoC/eaKuZRYYhf0bTMG+hcuXPjSjRs3zowF7NOinUfCewAAAPQSgT4AAACwzZ78ypc/MBryTNVa+40C/UwmE1PBcCYZnRlzpaaMwz1FQ39zNO8BAACwkwj0AQAAgB30ta8+/uDwyNhJcYdEhcTJZPKcdjlbC4lV+P+hO8Ln9C/uMQL91QjvAQAAYDYE+gAAAICJ7fVAf7tG7hDeAwAAoB8Q6AMAAAAmRkO/+w39RGJ5plAozhDeAwAAoN8Q6AMAAAAm9sTp0wc/fOfQjLHbU7uxoV8f3q8dZwQAAAD0GwJ9AAAAwORUqD8ecU9HAq6TbpftkHG46/o90M9kMjPqYjTvz2nbhPcAAADYVQj0AQAAgD7y9JnfOxX2u04OB90njUNdY8ZAP59JxQrzb8fUGxn1gT7hPQAAAPYiAn0AAACgD9Va+5PD3mnj0JaZMdCPxpbP/bNP/sK96o0Md2jsUDyeILwHAADAnkWgDwAAAPS5brX2zRDor1mwlvAeAAAAqEOgDwAAAOwSW23tb3egz4K1AAAAQHsI9AEAAIBdSLX2xwbdUyGf64RxaFO9DPTrZ94T3gMAAACdIdAHAAAAdrF2WvvdCvQJ7wEAAIDeINAHAAAA9gjV2p8Y8k37vfbjxqFVOgn068N7Zt4DAAAAvUWgDwAAAOwxT37lyx8YDXmm1rb2Nwv0ad4DAAAAO4tAHwAAANjDvvbVxx8cDbqnVGu/PtAnvAcAAADMh0AfAAAAgDz1+KP3BcPhE8lskfAeAAAAAAAAAAAAAAAAAAAAAAAAAAAAAAAAAAAAAAAAAAAAAAAAAAAAAAAAAAAAAAAAAAAAAAAAAAAAAAAAAAAAAAAAAAAAAAAAAAAAAAAAAAAAAAAAAAAAAAAAAAAAAAAAAAAAAAAAAAAAAAAAAAAAAAAAAAAAAAAAAAAAAAAAAAAAAAAAAAAAAAAAAAAAAAAAAAAAAAAAAAAAAAAAAAAAAAAAAAAAAAAAAAAAAAAAAAAAAAAAAAAAAAAAAAAAAAAAAAAAAAAAAAAAAAAAAAAAAAAAAAAAAAAAAAAAAAAAAAAAAAAAAAAAAAAAAAAAAAAAAAAAAAAAAAAAAAAAAAAAAAAAAAAAAAAAAAAAAAAAAAAAAAAAAAAAAAAAAAAAAAAAAAAAAAAAAAAAAAAAAAAAAAAAAAAAAAAAAAAAAAAAAAAAAAAAAAAAAAAAAAAAAAAAAAAAAAAAAAAAAAAAAAAAAAAAAAAAAAAAAAAAAAAAAAAAAAAAAAAAAAAAAAAAAAAAAAAAAAAAAAAAAAAAAAAAAAAAAAAAAAAAAAAAAAAAAAAAAAAAAAAAAAAAAAAAAAAAAAAAAAAAAAAAAAAAAAAAAAAAAAAAAAAAAAAAAAAAAAAAAAAAAAAAAAAAAAAAAAAAAAAAAAAAAAAAAAAAAAAAAAAAAAAAAAAAAAAAAAAAAAAAAAAAAAAAAAAAAAAAAAAAAAAAAAAAAAAAAAAAAAAAAAAAAAAAAAAAAAAAAAAAAAAAAAAAAAAAAAAAAAAAAAAAAAAAAAAAAAAAAAAAAAAAAAAAAAAAAAAAAAAAAAAAAAAAAAAAAAAAAAAAAAAAAAAAAAAAAAAAAAAAAAAAAAAAAAAAAAAAAAAAAAAAAAAAAAAAAAAAAAAAAAAAAAAAAAAAAAAAAAAAAAAAAAAAAAAAAAAAAAAAAAAAAAAAAAAAAAAAAAAAAAAAAAAAAAAAAAAAAAAAAAAAAAAAAAAAAAAAAAAAAAAAAAAAAAAAAAAAAAAAAAAAAAAAAAAAAAAAAAAAAAAAAAAAAAAAAAAAAAAAAAAAAAAAAAAAAAAAAAAAAAAAAAAAAAAAAAAAAAAAAAAAAACgL4n8f4k2woqIeGj3AAAAAElFTkSuQmCC;clipPath=inset(14.6% 23.67% 7.14% 29%);" parent="1" vertex="1">
          <mxGeometry x="67" y="390" width="474" height="420.59" as="geometry" />
        </mxCell>
        <mxCell id="EHKfN0rfkp6UrvfrL8R5-2" value="" style="shape=curlyBracket;whiteSpace=wrap;html=1;rounded=1;labelPosition=left;verticalLabelPosition=middle;align=right;verticalAlign=middle;rotation=-180;strokeWidth=2;" parent="1" vertex="1">
          <mxGeometry x="530" y="470" width="45" height="90" as="geometry" />
        </mxCell>
        <mxCell id="EHKfN0rfkp6UrvfrL8R5-3" value="&lt;p style=&quot;line-height: 160%;&quot;&gt;&lt;span style=&quot;font-size: 18px;&quot;&gt;&lt;b&gt;&lt;i&gt;Source &lt;/i&gt;&lt;/b&gt;Parameter&lt;br&gt;Combinations&lt;/span&gt;&lt;br&gt;&lt;/p&gt;" style="text;html=1;align=center;verticalAlign=middle;resizable=0;points=[];autosize=1;strokeColor=none;fillColor=none;" parent="1" vertex="1">
          <mxGeometry x="580" y="475" width="170" height="80" as="geometry" />
        </mxCell>
        <mxCell id="EHKfN0rfkp6UrvfrL8R5-4" value="" style="shape=curlyBracket;whiteSpace=wrap;html=1;rounded=1;labelPosition=left;verticalLabelPosition=middle;align=right;verticalAlign=middle;rotation=-180;strokeWidth=2;" parent="1" vertex="1">
          <mxGeometry x="530" y="560" width="45" height="170" as="geometry" />
        </mxCell>
        <mxCell id="EHKfN0rfkp6UrvfrL8R5-5" value="&lt;p style=&quot;line-height: 160%;&quot;&gt;&lt;span style=&quot;font-size: 18px;&quot;&gt;&lt;b&gt;&lt;i&gt;Target&amp;nbsp;&lt;/i&gt;&lt;/b&gt;Parameter&lt;br&gt;Combinations&lt;/span&gt;&lt;br&gt;&lt;/p&gt;" style="text;html=1;align=center;verticalAlign=middle;resizable=0;points=[];autosize=1;strokeColor=none;fillColor=none;" parent="1" vertex="1">
          <mxGeometry x="580" y="605" width="170" height="80" as="geometry" />
        </mxCell>
        <mxCell id="EHKfN0rfkp6UrvfrL8R5-6" value="" style="edgeStyle=segmentEdgeStyle;endArrow=classic;html=1;curved=0;rounded=0;endSize=8;startSize=8;sourcePerimeterSpacing=0;targetPerimeterSpacing=0;entryX=0.484;entryY=0.226;entryDx=0;entryDy=0;entryPerimeter=0;" parent="1" source="EHKfN0rfkp6UrvfrL8R5-7" edge="1">
          <mxGeometry width="100" relative="1" as="geometry">
            <mxPoint x="560" y="340" as="sourcePoint" />
            <mxPoint x="294.00400000000013" y="489.9801399999999" as="targetPoint" />
            <Array as="points">
              <mxPoint x="294" y="340" />
            </Array>
          </mxGeometry>
        </mxCell>
        <mxCell id="EHKfN0rfkp6UrvfrL8R5-7" value="&lt;p style=&quot;line-height: 160%;&quot;&gt;&lt;span style=&quot;font-size: 18px;&quot;&gt;&lt;b&gt;&lt;i&gt;Target &lt;/i&gt;Slice Position&lt;/b&gt;&lt;/span&gt;&lt;/p&gt;" style="text;html=1;align=center;verticalAlign=middle;resizable=0;points=[];autosize=1;strokeColor=none;fillColor=none;" parent="1" vertex="1">
          <mxGeometry x="565" y="310" width="200" height="60" as="geometry" />
        </mxCell>
        <mxCell id="EHKfN0rfkp6UrvfrL8R5-10" value="&lt;p style=&quot;line-height: 160%;&quot;&gt;&lt;span style=&quot;font-size: 18px;&quot;&gt;&lt;b&gt;&lt;i&gt;Target &lt;/i&gt;Slice&lt;/b&gt;&lt;/span&gt;&lt;/p&gt;" style="text;html=1;align=center;verticalAlign=middle;resizable=0;points=[];autosize=1;strokeColor=none;fillColor=none;" parent="1" vertex="1">
          <mxGeometry x="605" y="771" width="120" height="60" as="geometry" />
        </mxCell>
        <mxCell id="rn8N_09CpntMmY0eAoY0-1" value="" style="edgeStyle=segmentEdgeStyle;endArrow=classic;html=1;curved=0;rounded=0;endSize=8;startSize=8;sourcePerimeterSpacing=0;targetPerimeterSpacing=0;exitX=-0.003;exitY=0.483;exitDx=0;exitDy=0;exitPerimeter=0;" edge="1" parent="1" source="EHKfN0rfkp6UrvfrL8R5-10">
          <mxGeometry width="100" relative="1" as="geometry">
            <mxPoint x="595" y="818" as="sourcePoint" />
            <mxPoint x="285" y="758" as="targetPoint" />
            <Array as="points">
              <mxPoint x="285" y="800" />
            </Array>
          </mxGeometry>
        </mxCell>
      </root>
    </mxGraphModel>
  </diagram>
</mxfile>
